<?xml version="1.0" encoding="UTF-8" standalone="no"?>
<!-- Created with Inkscape (http://www.inkscape.org/) -->

<svg
   width="30.080818mm"
   height="40.14167mm"
   viewBox="0 0 30.080818 40.14167"
   version="1.1"
   id="svg1"
   xml:space="preserve"
   xmlns:xlink="http://www.w3.org/1999/xlink"
   xmlns="http://www.w3.org/2000/svg"
   xmlns:svg="http://www.w3.org/2000/svg"><defs
     id="defs1"><linearGradient
       id="linearGradient74"><stop
         style="stop-color:#19101b;stop-opacity:1;"
         offset="0"
         id="stop74" /><stop
         style="stop-color:#8929b6;stop-opacity:1;"
         offset="1"
         id="stop75" /></linearGradient><linearGradient
       xlink:href="#linearGradient74"
       id="linearGradient75"
       x1="99.003998"
       y1="153.29091"
       x2="101.91965"
       y2="153.29091"
       gradientUnits="userSpaceOnUse"
       gradientTransform="matrix(1.0146954,0,0,1.1134876,-1.4523658,-13.063219)" /></defs><g
     id="g5"
     style="display:inline;fill:#00ff00"
     transform="translate(-82.96989,-133.72518)"><rect
       style="display:inline;fill:#8929b6;fill-opacity:1;fill-rule:evenodd;stroke-width:0.651479;stroke-linecap:round;stroke-linejoin:round;paint-order:stroke fill markers"
       id="rect36-1-6"
       width="1.0356201"
       height="3.370419"
       x="90.392761"
       y="155.35815"
       ry="0.67196727" /><rect
       style="display:inline;fill:#8929b6;fill-opacity:1;fill-rule:evenodd;stroke-width:0.651479;stroke-linecap:round;stroke-linejoin:round;paint-order:stroke fill markers"
       id="rect43-9"
       width="1.2227088"
       height="3.5808938"
       x="97.424919"
       y="155.2646"
       ry="0.71393007" /><path
       id="rect73"
       style="fill:none;fill-opacity:1;fill-rule:evenodd;stroke:url(#linearGradient75);stroke-width:0.661002;stroke-linecap:round;stroke-linejoin:round;stroke-dasharray:none;stroke-opacity:1;paint-order:normal"
       d="m 100.85519,157.11103 -5.3e-4,5.7e-4 h -5.3e-4 l -5.1e-4,5.8e-4 h -5.3e-4 v 5.8e-4 l -5.3e-4,5.7e-4 v 5.8e-4 l -5.2e-4,5.8e-4 v 5.7e-4 5.7e-4 5.8e-4 5.8e-4 l 5.2e-4,5.7e-4 v 5.8e-4 l 5.3e-4,5.8e-4 v 5.6e-4 h 5.3e-4 l 5.1e-4,5.8e-4 h 5.3e-4 l 5.3e-4,5.8e-4 h 5.2e-4 5.2e-4 3.62857 5.2e-4 5.2e-4 l 5.3e-4,-5.8e-4 h 5.3e-4 l 5.1e-4,-5.8e-4 h 5.3e-4 v -5.6e-4 l 5.3e-4,-5.8e-4 v -5.8e-4 l 5.2e-4,-5.7e-4 v -5.8e-4 -5.8e-4 -5.7e-4 -5.7e-4 l -5.2e-4,-5.8e-4 v -5.8e-4 l -5.3e-4,-5.7e-4 v -5.8e-4 h -5.3e-4 l -5.1e-4,-5.8e-4 h -5.3e-4 l -5.3e-4,-5.7e-4 h -5.2e-4 -5.2e-4 -3.62857 -5.2e-4 z m 3.71613,0.0765 v 5.7e-4 h -5.3e-4 -5.3e-4 v 5.8e-4 h -5.1e-4 v 5.8e-4 l -5.3e-4,5.6e-4 -5.3e-4,5.8e-4 v 5.8e-4 5.7e-4 5.8e-4 5.8e-4 5.8e-4 5.6e-4 5.8e-4 h 5.3e-4 v 5.8e-4 l 5.3e-4,5.7e-4 1.01305,0.9408 h 5.2e-4 v 5.8e-4 h 5.3e-4 5.2e-4 l 5.3e-4,5.8e-4 h 5.2e-4 5.2e-4 l 5.3e-4,-5.8e-4 h 5.3e-4 5.3e-4 v -5.8e-4 h 5.1e-4 l 5.3e-4,-5.7e-4 5.3e-4,-5.8e-4 v -5.8e-4 l 5.2e-4,-5.8e-4 v -5.7e-4 -5.7e-4 -5.8e-4 -5.7e-4 -5.8e-4 l -5.2e-4,-5.8e-4 v -5.7e-4 h -5.3e-4 v -5.8e-4 l -5.3e-4,-5.8e-4 -1.01253,-0.94021 h -5.3e-4 l -5.2e-4,-5.8e-4 h -5.2e-4 l -5.3e-4,-5.7e-4 h -5.2e-4 -5.3e-4 -5.2e-4 z" /><path
       id="rect72"
       style="fill:none;fill-rule:evenodd;stroke:#8929b6;stroke-width:0.603204;stroke-linecap:round;stroke-linejoin:round"
       d="m 88.295889,149.92188 2.059582,-0.0957 c 0.757042,-0.0352 1.308805,0.61547 1.21746,1.46123 l -0.19409,1.79705 c -0.09192,0.85102 -0.788741,1.51102 -1.542679,1.47912 l -2.050537,-0.0868 c -0.67795,-0.0287 -1.139569,-0.67905 -1.051245,-1.45761 l 0.186555,-1.64446 c 0.08782,-0.77415 0.693821,-1.42125 1.374954,-1.45289 z m 5.890923,-0.17475 4.363414,-0.19517 c 0.880747,-0.0394 1.540934,0.61381 1.457174,1.46715 l -0.246927,2.51577 c -0.08442,0.86011 -0.878382,1.5218 -1.75702,1.48306 l -4.350602,-0.19183 c -0.737868,-0.0325 -1.252712,-0.67138 -1.171579,-1.43193 l 0.237418,-2.22557 c 0.08057,-0.75526 0.72769,-1.38836 1.468122,-1.42148 z"
       transform="matrix(1.0146954,0,0,1.1834203,-0.69301394,-23.574589)" /></g></svg>
