<?xml version="1.0" encoding="UTF-8" standalone="no"?>
<!-- Created with Inkscape (http://www.inkscape.org/) -->

<svg
   width="51.065968mm"
   height="32.63987mm"
   viewBox="0 0 51.065968 32.63987"
   version="1.1"
   id="svg1"
   xml:space="preserve"
   xmlns:xlink="http://www.w3.org/1999/xlink"
   xmlns="http://www.w3.org/2000/svg"
   xmlns:svg="http://www.w3.org/2000/svg"><defs
     id="defs1"><linearGradient
       id="linearGradient115"><stop
         style="stop-color:#ffc561;stop-opacity:1;"
         offset="0"
         id="stop115" /><stop
         style="stop-color:#b444ff;stop-opacity:1;"
         offset="1"
         id="stop116" /></linearGradient><linearGradient
       id="linearGradient12"><stop
         style="stop-color:#b444ff;stop-opacity:1;"
         offset="0"
         id="stop12" /><stop
         style="stop-color:#ffc561;stop-opacity:1;"
         offset="1"
         id="stop13" /></linearGradient><linearGradient
       xlink:href="#linearGradient12"
       id="linearGradient118"
       gradientUnits="userSpaceOnUse"
       x1="99.542145"
       y1="34.102325"
       x2="101.22619"
       y2="36.008289" /><linearGradient
       xlink:href="#linearGradient115"
       id="linearGradient116"
       x1="85.061073"
       y1="94.209679"
       x2="107.52306"
       y2="123.41326"
       gradientUnits="userSpaceOnUse" /></defs><g
     id="g112"
     style="display:inline"
     transform="translate(-58.096581,-91.524412)"><rect
       style="display:none;fill:#00ff00;fill-rule:evenodd;stroke-width:1.06561;stroke-linecap:round;stroke-linejoin:round;paint-order:stroke fill markers"
       id="rect10"
       width="43.590103"
       height="33.998959"
       x="42.597916"
       y="90.950523"
       ry="0.22091302"
       rx="0.22091302" /><g
       id="g92"
       transform="matrix(4.0930658,0,0,4.0999995,-340.39638,-47.745415)"
       style="display:inline;stroke-width:1.11833"><path
         id="path81"
         style="display:inline;fill:#19101b;fill-opacity:1;fill-rule:evenodd;stroke:#19101b;stroke-width:0.302397;stroke-linejoin:round;stroke-dasharray:none;stroke-dashoffset:0;stroke-opacity:1;paint-order:stroke fill markers"
         d="m 100.52153,34.119608 a 0.86320764,1.0699134 0 0 0 -0.862469,1.07013 0.86320764,1.0699134 0 0 0 0.862469,1.069791 v 4.51e-4 h 0.20462 v -0.0014 a 0.86320764,1.0699134 0 0 0 0.0876,-0.01173 0.86320764,1.0699134 0 0 0 0.0231,-0.0032 0.86320764,1.0699134 0 0 0 0.31201,-0.147654 l -0.002,3.38e-4 a 0.86320764,1.0699134 0 0 0 0.0738,-0.06407 l 0.002,-3.39e-4 a 0.86320764,1.0699134 0 0 0 0.13029,-0.156565 l -0.002,2.25e-4 a 0.86320764,1.0699134 0 0 0 0.0329,-0.05211 l 0.002,-2.26e-4 a 0.86320764,1.0699134 0 0 0 0.0691,-0.138066 l -10e-4,1.12e-4 a 0.86320764,1.0699134 0 0 0 0.0193,-0.0485 l 0.002,-1.13e-4 a 0.86320764,1.0699134 0 0 0 0.0398,-0.12972 h -0.001 a 0.86320764,1.0699134 0 0 0 0.0107,-0.04647 h 0.002 a 0.86320764,1.0699134 0 0 0 0.0201,-0.126674 h -0.001 a 0.86320764,1.0699134 0 0 0 0.004,-0.04535 h 0.002 a 0.86320764,1.0699134 0 0 0 0.004,-0.0987 0.86320764,1.0699134 0 0 0 0,-0.02741 l -0.002,-1.13e-4 a 0.86320764,1.0699134 0 0 0 -0.002,-0.04557 l 0.002,2.25e-4 a 0.86320764,1.0699134 0 0 0 -0.0134,-0.127689 l -0.002,-3.38e-4 a 0.86320764,1.0699134 0 0 0 -0.008,-0.04704 l 0.003,3.39e-4 a 0.86320764,1.0699134 0 0 0 -0.0326,-0.132314 l -0.003,-4.51e-4 a 0.86320764,1.0699134 0 0 0 0,-1.13e-4 0.86320764,1.0699134 0 0 0 -0.0164,-0.04952 l 0.003,4.51e-4 a 0.86320764,1.0699134 0 0 0 -0.061,-0.142015 l -0.003,-5.64e-4 v -1.12e-4 a 0.86320764,1.0699134 0 0 0 -0.0297,-0.05426 l 0.003,6.77e-4 a 0.86320764,1.0699134 0 0 0 -0.11833,-0.164913 l -0.004,-10e-4 a 0.86320764,1.0699134 0 0 0 -0.0681,-0.06926 l 0.004,10e-4 a 0.86320764,1.0699134 0 0 0 -0.29441,-0.173824 0.86320764,1.0699134 0 0 0 -0.0206,-0.0058 0.86320764,1.0699134 0 0 0 -0.0813,-0.0194 0.86320764,1.0699134 0 0 0 -0.0358,-0.0045 0.86320764,1.0699134 0 0 0 -0.0459,-0.0058 v -0.001 h -0.0356 -0.16796 z" /><path
         id="path87"
         style="display:inline;fill:url(#linearGradient118);fill-rule:evenodd;stroke:none;stroke-width:0.43803;stroke-dasharray:none;stroke-dashoffset:0;stroke-opacity:1;paint-order:stroke fill markers"
         d="m 100.52155,34.119557 a 0.86320764,1.0699134 0 0 0 -0.862476,1.070219 0.86320764,1.0699134 0 0 0 0.862476,1.069702 v 5.17e-4 h 0.20464 v -0.0016 a 0.86320764,1.0699134 0 0 0 0.42272,-0.162264 l -0.22945,0.04341 a 0.86320764,1.0699134 0 0 0 0.0951,-0.0708 l 0.20825,-0.03669 a 0.86320764,1.0699134 0 0 0 0.13023,-0.15658 l -0.18604,0.02584 a 0.86320764,1.0699134 0 0 0 0.0372,-0.05529 l 0.1819,-0.02274 a 0.86320764,1.0699134 0 0 0 0.0692,-0.137976 l -0.17415,0.01499 a 0.86320764,1.0699134 0 0 0 0.0207,-0.05116 l 0.17311,-0.0124 a 0.86320764,1.0699134 0 0 0 0.0398,-0.129708 l -0.16949,0.0057 a 0.86320764,1.0699134 0 0 0 0.0114,-0.04858 l 0.16899,-0.0036 a 0.86320764,1.0699134 0 0 0 0.0201,-0.126607 l -0.16795,-0.0031 a 0.86320764,1.0699134 0 0 0 0.005,-0.04754 l 0.16743,0.0052 a 0.86320764,1.0699134 0 0 0 0.004,-0.0987 0.86320764,1.0699134 0 0 0 0,-0.02739 l -0.16846,-0.01137 a 0.86320764,1.0699134 0 0 0 -0.002,-0.04806 l 0.16898,0.01395 a 0.86320764,1.0699134 0 0 0 -0.0134,-0.127641 l -0.17157,-0.02067 a 0.86320764,1.0699134 0 0 0 -0.009,-0.04961 l 0.1726,0.02325 a 0.86320764,1.0699134 0 0 0 -0.0326,-0.132292 l -0.17828,-0.03101 a 0.86320764,1.0699134 0 0 0 -0.0186,-0.05219 l 0.18036,0.03359 a 0.86320764,1.0699134 0 0 0 -0.061,-0.14211 l -0.19121,-0.04289 a 0.86320764,1.0699134 0 0 0 -0.0351,-0.05839 l 0.19689,0.04703 a 0.86320764,1.0699134 0 0 0 -0.11834,-0.164848 l -0.22996,-0.06305 a 0.86320764,1.0699134 0 0 0 -5.1e-4,-5.17e-4 0.86320764,1.0699134 0 0 0 -0.10181,-0.08216 l 0.26407,0.07648 a 0.86320764,1.0699134 0 0 0 -0.47801,-0.20929 v -0.001 h -0.0357 -0.16795 z" /><path
         id="path91"
         style="display:inline;fill:#19101b;fill-opacity:1;stroke-width:0.00532777"
         d="m 101.071,34.853626 -0.28752,0.02255 c -0.18238,0.01462 -0.28356,0.08205 -0.3123,0.201728 l -0.10315,0.427006 c -8e-4,0.0038 -8.2e-4,0.0082 -0.002,0.01322 8e-5,0.0051 0.002,0.0112 0.007,0.01829 0.005,0.0068 0.0133,0.01048 0.0245,0.01113 l 0.0865,0.0049 c 0.0116,6.74e-4 0.0224,-0.0026 0.0329,-0.01 0.0105,-0.0077 0.0172,-0.01746 0.02,-0.0299 l 0.029,-0.115331 0.35288,0.0085 0.002,0.125299 c 2.2e-4,0.0136 0.005,0.02532 0.0145,0.03479 0.009,0.0091 0.0224,0.01425 0.0373,0.01512 l 0.10409,0.0059 c 0.0147,8.52e-4 0.027,-0.003 0.0375,-0.01124 0.0111,-0.0086 0.0158,-0.01959 0.0156,-0.03304 l -0.01,-0.644873 c -2.1e-4,-0.01272 -0.006,-0.02369 -0.0149,-0.0326 -0.009,-0.0089 -0.0207,-0.01273 -0.0346,-0.01164 z m -1.119202,0.08459 c -0.0092,5.73e-4 -0.01701,0.005 -0.02354,0.01314 -0.0065,0.0082 -0.0098,0.01744 -0.0098,0.02789 v 0.499138 c 0,0.01044 0.0032,0.01977 0.0098,0.028 0.0065,0.008 0.01438,0.01234 0.02354,0.01302 l 0.06785,0.005 c 0.009,7.03e-4 0.0176,-0.0023 0.0242,-0.009 0.007,-0.0069 0.0104,-0.01584 0.0104,-0.02661 v -0.201427 l 0.0811,0.0016 c 0.0232,4.45e-4 0.0432,0.0083 0.06,0.0234 0.017,0.01501 0.0338,0.03746 0.0507,0.06742 l 0.0722,0.125429 c 0.007,0.01192 0.0168,0.02242 0.0294,0.03155 8.1e-4,6.5e-4 0.002,0.0013 0.002,0.002 -0.003,-0.0066 -0.006,-0.01383 -0.006,-0.02163 v -4.42e-4 -8.55e-4 c 2.6e-4,-0.006 5.8e-4,-0.01182 0.002,-0.01713 l 4.2e-4,2.6e-5 v -4.41e-4 l 0.0404,-0.168734 c -0.0147,-0.02326 -0.0313,-0.04512 -0.0501,-0.06489 -0.0193,-0.02047 -0.0379,-0.03274 -0.0561,-0.03692 0.0259,-0.0066 0.047,-0.0181 0.0631,-0.03458 0.0166,-0.0166 0.0317,-0.03775 0.0451,-0.06347 l 0.0951,-0.180438 c 0.005,-0.01001 0.008,-0.01851 0.008,-0.0255 0,-0.01277 -0.007,-0.01872 -0.0214,-0.01781 l -0.10056,0.0063 c -0.0257,0.0019 -0.0458,0.01738 -0.0606,0.04633 l -0.0635,0.122788 c -0.0161,0.03119 -0.033,0.05372 -0.0507,0.06768 -0.0173,0.01385 -0.0374,0.02082 -0.06,0.02099 l -0.0811,6.14e-4 v -0.198515 c 0,-0.01078 -0.004,-0.01996 -0.0104,-0.02756 -0.006,-0.0076 -0.0147,-0.01108 -0.0242,-0.01048 z m 0.962182,0.06804 0.004,0.259052 -0.31821,9.36e-4 0.0397,-0.151334 c 0.007,-0.02912 0.0221,-0.05248 0.0448,-0.07053 0.0231,-0.01855 0.051,-0.02849 0.0829,-0.03014 z"
         transform="matrix(0.96203967,0,0,0.96203967,3.8017489,1.3108761)" /><path
         id="path92"
         style="display:inline;fill:#19101b;fill-opacity:1;fill-rule:evenodd;stroke-width:0.793992;stroke-dasharray:0.793992, 0.793992"
         d="m 100.52259,34.212058 a 0.78879362,0.97767991 0 0 0 -0.789102,0.977718 0.78879362,0.97767991 0 0 0 0.789102,0.977718 0.78879362,0.97767991 0 0 0 0.78858,-0.977718 0.78879362,0.97767991 0 0 0 -0.78858,-0.977718 z m 0,0.08682 a 0.71875006,0.89086354 0 0 1 0.71882,0.890902 0.71875006,0.89086354 0 0 1 -0.71882,0.890902 0.71875006,0.89086354 0 0 1 -0.718822,-0.890902 0.71875006,0.89086354 0 0 1 0.718822,-0.890902 z" /></g><path
       id="path94"
       style="display:inline;fill:none;fill-opacity:1;fill-rule:evenodd;stroke:#19101b;stroke-width:1.97304;stroke-dasharray:none;stroke-opacity:1;paint-order:stroke fill markers"
       d="m 74.709955,119.74381 c 0.236234,1.57162 -1.136941,3.08676 -3.06706,3.38415 -1.930106,0.29741 -3.686289,-0.73551 -3.92251,-2.3071 -0.236232,-1.57162 1.136954,-3.08676 3.06706,-3.38416 1.930119,-0.2974 3.68629,0.73552 3.92251,2.30711 z" /><path
       id="path95"
       style="display:inline;fill:#8929b6;fill-opacity:1;fill-rule:evenodd;stroke:#19101b;stroke-width:1.45787;stroke-dasharray:none;stroke-opacity:1;paint-order:stroke fill markers"
       d="m 101.04874,120.50949 c -0.0956,0.74054 -0.91961,1.2445 -1.840545,1.12551 -0.920835,-0.11893 -1.5898,-0.81567 -1.494134,-1.55621 0.09564,-0.74054 0.919644,-1.24449 1.840523,-1.12553 0.920866,0.11895 1.589796,0.81568 1.494156,1.55623 z"
       transform="translate(-37.240104,-0.26458333)" /><path
       id="path96"
       style="display:inline;fill:#bc36d9;fill-opacity:1;fill-rule:evenodd;stroke:#19101b;stroke-width:1.54916;stroke-linecap:round;stroke-linejoin:round;stroke-dasharray:none;stroke-dashoffset:0;stroke-opacity:1;paint-order:stroke markers fill"
       d="m 79.478639,99.908566 a 2.7802737,2.8073762 82.383009 0 1 1.067368,-0.009 2.7802737,2.8073762 82.383009 0 1 2.219422,2.107314 2.7802737,2.8073762 82.383009 0 1 -1.068719,2.86201 c -0.0148,-0.076 -0.03486,-0.16499 -0.05758,-0.26521 -0.249273,-1.07889 -2.772158,-3.34176 -3.870881,-3.5428 -0.0148,-0.002 -0.02949,-0.004 -0.04374,-0.007 a 2.7802737,2.8073762 82.383009 0 1 1.754419,-1.145314 z" /><path
       id="path97"
       style="display:inline;fill:none;fill-opacity:1;fill-rule:evenodd;stroke:#19101b;stroke-width:2.02201;stroke-linecap:round;stroke-linejoin:round;stroke-dasharray:none;stroke-dashoffset:0;stroke-opacity:1;paint-order:stroke markers fill"
       d="m 68.384442,99.987756 a 3.6642725,3.6288977 3.5715836 0 0 -1.390537,0.0862 3.6642725,3.6288977 3.5715836 0 0 -2.695595,2.94805 3.6642725,3.6288977 3.5715836 0 0 1.654981,3.62783 c 0.01222,-0.10031 0.03019,-0.21802 0.05056,-0.3506 0.225202,-1.42762 3.301579,-4.60613 4.713581,-4.96909 0.01901,-0.003 0.0381,-0.007 0.05633,-0.0129 a 3.6642725,3.6288977 3.5715836 0 0 -2.389674,-1.329845 z" /><path
       id="path98"
       style="display:inline;fill:#ca6ad1;fill-opacity:1;fill-rule:evenodd;stroke:#19101b;stroke-width:1.829;stroke-linecap:round;stroke-linejoin:round;stroke-dasharray:none;stroke-opacity:1;paint-order:stroke fill markers"
       d="m 59.931784,108.70503 a 9.822154,9.822154 0 0 0 -1.281533,-0.0844 9.822154,9.822154 0 0 0 -3.385074,0.60211 l -3.85e-4,-0.001 -5.054046,1.91908 5.76e-4,0.004 a 8.8299665,8.8299665 0 0 0 -5.617054,8.22474 8.8299665,8.8299665 0 0 0 8.593644,8.81408 l 0.002,0.0128 0.234529,0.003 a 8.8299665,8.8299665 0 0 0 0.01038,2.6e-4 l 4.990173,0.0634 a 9.822154,9.822154 0 0 0 0.225171,0.003 9.822154,9.822154 0 0 0 9.822007,-9.82203 9.822154,9.822154 0 0 0 -8.540441,-9.73809 z"
       transform="rotate(-7.1370784)" /><path
       id="path99"
       style="display:inline;fill:#bc36d9;fill-opacity:1;fill-rule:evenodd;stroke:#19101b;stroke-width:1.64211;stroke-dasharray:none;stroke-opacity:1;paint-order:stroke fill markers"
       d="m 84.099616,113.55136 c 0.972107,0.69557 1.057145,2.23679 0.189949,3.44238 -0.867197,1.2056 -2.358236,1.61908 -3.330332,0.92352 -0.972098,-0.69557 -1.057135,-2.23679 -0.189939,-3.44239 0.867207,-1.20559 2.358236,-1.61907 3.330322,-0.92351 z" /><rect
       style="display:inline;fill:#8929b6;fill-opacity:1;fill-rule:evenodd;stroke-width:0.651479;stroke-linecap:round;stroke-linejoin:round;paint-order:stroke fill markers"
       id="rect101"
       width="1.2227088"
       height="2.5665147"
       x="79.861221"
       y="106.5897"
       ry="0.51169127"
       rx="0.51169127" /><rect
       style="display:inline;fill:#8929b6;fill-opacity:1;fill-rule:evenodd;stroke-width:0.699402;stroke-linecap:round;stroke-linejoin:round;paint-order:stroke fill markers"
       id="rect102"
       width="1.2227088"
       height="2.5292449"
       x="76.321564"
       y="106.45306"
       ry="0.50426072"
       rx="0.50426072" /><g
       id="g105"
       style="display:inline;fill:#c44fd1;fill-opacity:1"
       transform="matrix(4.044878,0.92747321,-0.92747321,4.044878,-265.65386,-135.69557)"><rect
         style="fill:#bc36d9;fill-opacity:1;fill-rule:evenodd;stroke-width:0.865;stroke-dasharray:0.865, 0.865"
         id="rect103"
         width="1.8024739"
         height="0.82682288"
         x="92.918358"
         y="39.298889"
         ry="0.3156108"
         rx="0.3156108" /><rect
         style="fill:#8929b6;fill-opacity:1;fill-rule:evenodd;stroke-width:0.21629;stroke-dasharray:0.21629, 0.21629"
         id="rect104"
         width="0.5037694"
         height="0.18496683"
         x="39.478928"
         y="-93.639229"
         ry="0.070604645"
         transform="rotate(90)"
         rx="0.070604645" /><rect
         style="fill:#8929b6;fill-opacity:1;fill-rule:evenodd;stroke-width:0.21629;stroke-dasharray:0.21629, 0.21629"
         id="rect105"
         width="0.5037694"
         height="0.18496683"
         x="39.478928"
         y="-94.189064"
         ry="0.070604645"
         transform="rotate(90)"
         rx="0.070604645" /></g><path
       id="path110"
       style="display:inline;fill:#bc36d9;fill-opacity:1;fill-rule:evenodd;stroke:none;stroke-width:2.02201;stroke-linecap:round;stroke-linejoin:round;stroke-dasharray:none;stroke-dashoffset:0;stroke-opacity:1;paint-order:stroke markers fill"
       d="m 68.384442,99.987756 a 3.6642725,3.6288977 3.5715836 0 0 -1.390537,0.0862 3.6642725,3.6288977 3.5715836 0 0 -2.695595,2.94805 3.6642725,3.6288977 3.5715836 0 0 1.654981,3.62783 c 0.01222,-0.10031 0.03019,-0.21802 0.05056,-0.3506 0.225202,-1.42762 3.301579,-4.60613 4.713581,-4.96909 0.01901,-0.003 0.0381,-0.007 0.05633,-0.0129 a 3.6642725,3.6288977 3.5715836 0 0 -2.389674,-1.329845 z" /><path
       id="path111"
       style="display:inline;fill:#bc36d9;fill-opacity:1;fill-rule:evenodd;stroke:none;stroke-width:1.97304;stroke-dasharray:none;stroke-opacity:1;paint-order:stroke fill markers"
       d="m 74.709955,119.74381 c 0.236234,1.57162 -1.136941,3.08676 -3.06706,3.38415 -1.930106,0.29741 -3.686289,-0.73551 -3.92251,-2.3071 -0.236232,-1.57162 1.136954,-3.08676 3.06706,-3.38416 1.930119,-0.2974 3.68629,0.73552 3.92251,2.30711 z" /><path
       id="rect116"
       style="display:inline;fill:#19101b;fill-rule:evenodd;stroke:#19101b;stroke-width:1.183;stroke-linecap:round;stroke-linejoin:round;paint-order:stroke fill markers"
       d="m 86.98718,95.361198 h 18.47338 c 0.40784,0 0.73617,0.328334 0.73617,0.736174 v 24.839068 c 0,0.40784 -0.32833,0.73618 -0.73617,0.73618 H 86.98718 c -0.40784,0 -0.736173,-0.32834 -0.736173,-0.73618 V 96.097372 c 0,-0.40784 0.328333,-0.736174 0.736173,-0.736174 z" /><path
       id="rect118"
       style="fill:url(#linearGradient116);fill-opacity:1;fill-rule:evenodd;stroke-width:1.9;stroke-linecap:round;stroke-linejoin:round;paint-order:stroke fill markers"
       d="m 86.994267,95.360188 c -0.410117,0 -0.740006,0.330407 -0.740006,0.740524 v 24.854818 c 0,0.41011 0.329889,0.74 0.740006,0.74 h 18.462953 c 0.41012,0 0.74001,-0.32989 0.74001,-0.74 V 96.100712 c 0,-0.410117 -0.32989,-0.740524 -0.74001,-0.740524 z m 6.328813,1.12448 c 0.05694,-9e-4 0.10306,0.02013 0.14056,0.06253 0.039,0.04247 0.05911,0.09296 0.05994,0.149862 l 0.04186,2.879927 c 9e-4,0.06 -0.02013,0.110546 -0.06253,0.152446 -0.04247,0.0403 -0.09203,0.06113 -0.151929,0.06201 l -0.433565,0.0072 c -0.06306,9e-4 -0.117224,-0.01858 -0.159164,-0.05788 -0.04038,-0.04093 -0.06108,-0.09358 -0.06201,-0.15658 l -0.0098,-0.58136 -1.639176,0.02532 -0.145211,0.583427 c -0.01446,0.06331 -0.04862,0.114696 -0.101803,0.157096 -0.05324,0.0408 -0.107978,0.06113 -0.167948,0.06201 l -0.454236,0.0072 c -0.05996,9e-4 -0.105005,-0.01508 -0.131775,-0.04858 -0.02679,-0.0349 -0.03889,-0.06568 -0.03927,-0.09198 0.0014,-0.0264 0.0029,-0.04915 0.0072,-0.06925 l 0.546736,-2.20245 c 0.148061,-0.60026 0.655372,-0.907707 1.519287,-0.921907 l 1.242819,-0.0186 z m -5.347478,0.06718 c 0.05996,0 0.110956,0.02258 0.152446,0.06718 0.04314,0.04458 0.06459,0.09658 0.06459,0.15658 v 1.104325 h 0.495577 c 0.135292,0 0.254065,-0.03679 0.355534,-0.110587 0.10303,-0.0738 0.200249,-0.192614 0.292489,-0.357084 l 0.357601,-0.636654 c 0.08148,-0.14759 0.191881,-0.222759 0.331763,-0.223759 h 0.532784 c 0.07366,0 0.110564,0.03255 0.110587,0.09715 0,0.03531 -0.01295,0.07741 -0.03927,0.126607 l -0.499711,0.906405 c -0.07229,0.13221 -0.15372,0.241528 -0.24443,0.327628 -0.08915,0.08604 -0.20636,0.146701 -0.350883,0.181901 0.101468,0.02151 0.205498,0.08514 0.311609,0.191203 0.103069,0.10161 0.192708,0.213719 0.271818,0.332279 l -0.219108,0.885218 v 0.0021 h -0.0021 c -0.0063,0.0281 -0.0079,0.05872 -0.0093,0.08992 v 0.0052 0.0021 c 4.5e-4,0.0407 0.01212,0.07759 0.02997,0.110588 -0.0049,-0.003 -0.0086,-0.0058 -0.01395,-0.0088 -0.06915,-0.04302 -0.12285,-0.09451 -0.16123,-0.154512 l -0.406177,-0.643372 c -0.09687,-0.15675 -0.194615,-0.27455 -0.293005,-0.35295 -0.09839,-0.0797 -0.216643,-0.119889 -0.355018,-0.119889 h -0.495577 v 1.120861 c 0,0.06 -0.02177,0.110429 -0.06459,0.151929 -0.04153,0.0399 -0.09196,0.05995 -0.151929,0.05995 H 87.53997 c -0.05992,0 -0.111682,-0.0218 -0.154512,-0.0646 -0.04314,-0.04458 -0.06459,-0.09658 -0.0646,-0.156579 v -2.866492 c 0,-0.06001 0.02177,-0.11198 0.0646,-0.15658 0.04302,-0.0446 0.09454,-0.06666 0.154512,-0.06666 z m 4.686019,0.595312 -0.657324,0.01137 c -0.147608,0.0021 -0.278154,0.04557 -0.387573,0.131775 -0.107939,0.0846 -0.178317,0.197008 -0.214457,0.338998 l -0.193787,0.744657 1.469161,-0.02325 z m -4.559411,3.49746 h 16.24707 c 0.32747,0 0.59118,0.2184 0.59118,0.48989 0,0.27149 -0.26371,0.4899 -0.59118,0.4899 H 88.10221 c -0.327465,0 -0.590662,-0.21841 -0.590662,-0.4899 0,-0.27149 0.263197,-0.48989 0.590662,-0.48989 z m 0,1.53686 h 16.24707 c 0.32747,0 0.59118,0.26319 0.59118,0.59066 v 1.0635 c 0,0.32747 -0.26371,0.59118 -0.59118,0.59118 H 88.10221 c -0.327465,0 -0.590662,-0.26371 -0.590662,-0.59118 v -1.0635 c 0,-0.32747 0.263197,-0.59066 0.590662,-0.59066 z m 9.716203,17.34364 h 6.530867 c 0.32747,0 0.59118,0.19648 0.59118,0.4408 0,0.24433 -0.26371,0.44132 -0.59118,0.44132 h -6.530867 c -0.327466,0 -0.591179,-0.19699 -0.591179,-0.44132 0,-0.24432 0.263713,-0.4408 0.591179,-0.4408 z" /><path
       id="path73"
       style="display:inline;fill:#19101b;fill-opacity:1;fill-rule:evenodd;stroke:none;stroke-width:1.71812;stroke-linecap:round;stroke-linejoin:round;stroke-dasharray:none;stroke-opacity:1;paint-order:stroke fill markers"
       d="m 98.151435,105.9839 a 5.6781359,5.6781359 0 0 0 -0.654853,8.00282 5.6781359,5.6781359 0 0 0 7.255618,1.19116 l 2.86697,3.37798 c 0.21854,0.25749 0.60191,0.28886 0.85941,0.0703 l 0.4685,-0.39764 c 0.2575,-0.21853 0.28846,-0.60156 0.0699,-0.85905 l -2.86695,-3.37798 a 5.6781359,5.6781359 0 0 0 0.005,-7.35309 5.6781359,5.6781359 0 0 0 -8.00323,-0.65451 z m 0.864611,1.01872 a 4.3418336,4.3418336 0 0 1 6.119904,0.5004 4.3418336,4.3418336 0 0 1 -0.50116,6.11984 4.3418336,4.3418336 0 0 1 -6.119491,-0.50075 4.3418336,4.3418336 0 0 1 0.500747,-6.11949 z" /></g><style
     type="text/css"
     id="style1">

<![CDATA[
	.st0{fill-rule:evenodd;clip-rule:evenodd;}
]]>

</style></svg>
