<?xml version="1.0" encoding="UTF-8" standalone="no"?>
<!-- Created with Inkscape (http://www.inkscape.org/) -->

<svg
   width="73.737724mm"
   height="20.78628mm"
   viewBox="0 0 73.737724 20.78628"
   version="1.1"
   id="svg1"
   xml:space="preserve"
   xmlns="http://www.w3.org/2000/svg"
   xmlns:svg="http://www.w3.org/2000/svg"><defs
     id="defs1" /><style
     type="text/css"
     id="style1">

<![CDATA[
	.st0{fill-rule:evenodd;clip-rule:evenodd;}
]]>

</style><g
     style="display:inline;fill:none;stroke-width:10.2803"
     id="g158"
     transform="matrix(0.85637403,0,0,0.85941871,50.672981,0.48396064)"><path
       d="m 170.52164,350.76691 c -0.2096,0.018 -0.27891,0.84232 -0.4284,0.9958 -0.16075,0.16504 -1.02291,0.28292 -1.03146,0.51315 -0.008,0.2175 0.83989,0.28687 0.9958,0.43873 0.16505,0.16075 0.28344,1.02291 0.51367,1.03146 0.2175,0.008 0.28687,-0.83988 0.43873,-0.9958 0.16075,-0.16505 1.0224,-0.28343 1.03095,-0.51367 0.008,-0.2175 -0.83989,-0.28687 -0.99581,-0.43873 -0.16504,-0.16075 -0.28291,-1.0224 -0.51315,-1.03094 -0.003,-1.3e-4 -0.007,-2.9e-4 -0.0103,0 z m 1.54357,2.57245 c -0.12898,0.0111 -0.17207,0.51843 -0.26406,0.61288 -0.0989,0.10157 -0.62933,0.17406 -0.63459,0.31574 -0.005,0.13385 0.51693,0.1763 0.61288,0.26976 0.10157,0.0989 0.17407,0.62932 0.31575,0.63458 0.13384,0.005 0.17681,-0.51641 0.27026,-0.61236 0.0989,-0.10157 0.62933,-0.17458 0.63459,-0.31626 0.005,-0.13385 -0.51693,-0.1763 -0.61288,-0.26975 -0.10157,-0.0989 -0.17407,-0.62933 -0.31574,-0.63459 -0.002,-8e-5 -0.004,-1.8e-4 -0.006,0 z m 15.52205,3.7114 c -0.2096,0.018 -0.2789,0.84232 -0.42839,0.9958 -0.16075,0.16505 -1.02292,0.28292 -1.03147,0.51315 -0.008,0.21751 0.83989,0.28687 0.99581,0.43873 0.16504,0.16076 0.28343,1.02292 0.51366,1.03147 0.21751,0.008 0.28687,-0.83989 0.43874,-0.99581 0.16075,-0.16504 1.02239,-0.28343 1.03094,-0.51366 0.008,-0.21751 -0.83989,-0.28687 -0.9958,-0.43873 -0.16505,-0.16076 -0.28292,-1.0224 -0.51315,-1.03095 -0.003,-1.3e-4 -0.007,-2.9e-4 -0.0103,0 z"
       style="display:inline;fill:#fcbf68;fill-opacity:1;stroke:#19101b;stroke-width:1.44359;stroke-linecap:round;stroke-linejoin:round;stroke-dasharray:none;stroke-opacity:1;paint-order:stroke fill markers"
       id="path1-50"
       transform="matrix(1.3726857,0,0,1.3726857,-233.64161,-480.60636)" /><path
       id="path1-5"
       style="fill:#bc36d9;fill-opacity:1;stroke:#19101b;stroke-width:2.33129;stroke-linecap:round;stroke-linejoin:round;stroke-dasharray:none;stroke-opacity:1;paint-order:stroke fill markers"
       d="m 11.999858,3.999683 c -2.1419998,0 -3.9425753,0.1700262 -5.4045753,0.5100262 -0.9558068,0.2218101 -1.6934886,0.982241 -1.8861749,1.944342 L 4.3991197,7.9997357 H 2.7136923 C 2.156744,8.0006545 1.7950573,8.5868627 2.0440612,9.0850488 L 2.2937541,9.585144 c 0.1268597,0.2540823 0.386349,0.4147187 0.6703405,0.414973 h 0.995225 c -0.048887,0.115284 -0.1084985,0.225719 -0.1780481,0.32985 l -0.7809998,1.169726 c -0.652,0.978 -1.0001905,2.127466 -1.0001905,3.303466 v 6.446618 c 0,0.414 0.3357882,0.750498 0.7497882,0.750498 h 1.6137825 c 0.3670393,3.47e-4 0.6804066,-0.264994 0.7405666,-0.62707 L 5.5000386,18.999703 H 18.499678 l 0.39511,2.373502 c 0.06012,0.361811 0.373087,0.627071 0.739858,0.62707 h 1.615201 c 0.414603,2.75e-4 0.750773,-0.335895 0.750498,-0.750498 v -6.446618 c 9e-5,-1.175757 -0.347934,-2.32522 -1.000191,-3.303466 l -0.78029,-1.169726 c -0.06958,-0.104115 -0.129188,-0.214553 -0.178049,-0.32985 h 0.994516 c 0.283992,-2.541e-4 0.543481,-0.1608905 0.670341,-0.414973 L 21.957074,9.0850488 C 22.206216,8.5865856 21.843991,8.0001279 21.286733,7.9997357 H 19.599887 L 19.289899,6.4540512 C 19.097432,5.4923403 18.3604,4.7320069 17.405143,4.5097092 c -1.462,-0.34 -3.264285,-0.5100262 -5.405285,-0.5100262 z m 0,2.000381 c 2,0 3.654007,0.1562433 4.952007,0.4582433 0.191451,0.044047 0.339368,0.1961267 0.378086,0.3887265 l 0.631326,3.1566292 c 0.06879,0.345979 0.183039,0.681339 0.339781,0.997354 h -12.6024 c 0.157,-0.315 0.2714904,-0.650354 0.3404904,-0.997354 L 6.6711836,6.8470338 C 6.7091846,6.6542772 6.856549,6.5016399 7.0478511,6.4568886 c 1.298,-0.3 2.9520071,-0.4568246 4.9520069,-0.4568246 z m -6.4998194,6.999915 c 1.9808161,0.019 1.9808161,2.980862 0,2.999862 -1.9808161,-0.019 -1.9808161,-2.980862 0,-2.999862 z m 12.8974924,0.0035 c 0.866817,-0.05933 1.602572,0.627894 1.602433,1.496739 0.0193,2.019113 -3.01916,2.019113 -2.999863,0 -1.31e-4,-0.788714 0.610562,-1.442807 1.39743,-1.496739 z" /></g><path
     id="path1-2"
     class="clr-i-solid clr-i-solid-path-1"
     d="m 40.097521,2.2043407 a 2.3611003,2.3714947 0 0 0 -1.34312,0.47314 l -11.88668,8.6766703 -2.85454,-0.12549 a 0.78078713,0.78422441 0 0 0 -0.51843,1.3928 l 2.7796,2.21461 a 0.34354636,0.34505876 0 0 0 0.33103,0.0563 c 0.79328,-0.30743 3.74781,-1.88213 7.2395,-3.80819 l 0.69957,7.22112 a 0.34354636,0.34505876 0 0 0 0.56217,0.23214 l 1.56155,-1.30495 a 0.47471859,0.47680845 0 0 0 0.16249,-0.2823 l 1.48034,-8.3378503 c 2.49852,-1.39277 4.88458,-2.74164 6.56483,-3.69525 a 0.96817602,0.97243824 0 0 0 -0.26859,-1.80685 l -3.9352,-0.85307 a 2.3611003,2.3714947 0 0 0 -0.57454,-0.0529 z m -5.60931,2.29258 -5.66544,0.16307 a 0.32480745,0.32623736 0 0 0 -0.15609,0.0503 l -1.79268,1.03515 a 0.31856112,0.31996353 0 0 0 0.0748,0.58971 l 3.59162,1.0415 z"
     style="display:inline;fill:#bc36d9;fill-opacity:1;stroke:#19101b;stroke-width:2.58;stroke-linecap:round;stroke-linejoin:round;stroke-dasharray:none;stroke-opacity:1;paint-order:stroke fill markers" /><g
     style="display:inline;fill:#000000;stroke-width:10.1874"
     id="g164"
     transform="matrix(0.86572013,0,0,0.86572013,-1.155719,-5.9961593)"><path
       id="rect202"
       style="display:inline;fill:#bc36d9;fill-opacity:1;fill-rule:evenodd;stroke:none;stroke-width:1.96368;stroke-linecap:round;stroke-linejoin:round;stroke-dasharray:none;stroke-opacity:1;paint-order:stroke fill markers"
       d="m 12.032399,9.8776006 c -1.31696,0 -2.3775263,0.6444884 -2.3775263,1.4451394 0,0.800652 1.0605663,1.44514 2.3775263,1.44514 h 3.538533 c 1.316959,0 2.377526,-0.644488 2.377526,-1.44514 0,-0.800651 -1.060567,-1.4451394 -2.377526,-1.4451394 z M 9.4931078,13.364798 c -1.3169594,0 -2.3775262,1.05997 -2.3775262,2.37693 v 8.581896 c 0,1.31696 1.0605668,2.376929 2.3775262,2.376929 h 8.8063382 c 1.316959,0 2.376929,-1.059969 2.376929,-2.376929 v -8.581896 c 0,-1.31696 -1.05997,-2.37693 -2.376929,-2.37693 z M 12.032399,26.76323 c -1.31696,0 -2.3775263,0.644488 -2.3775263,1.445139 0,0.800652 1.0605663,1.44514 2.3775263,1.44514 h 3.538533 c 1.316959,0 2.377526,-0.644488 2.377526,-1.44514 0,-0.800651 -1.060567,-1.445139 -2.377526,-1.445139 z" /><path
       id="path1-7"
       style="fill:#19101b;fill-opacity:1;stroke-width:10.1874"
       d="m 12.844811,9.0431086 c -0.7308,-2e-5 -1.345957,3.857e-4 -1.844477,0.060886 -0.52902,0.06421 -1.0117992,0.2044396 -1.4355892,0.5443896 -0.42378,0.33995 -0.6654188,0.7808848 -0.8428488,1.2833748 -0.1662,0.47069 -0.2993926,1.066898 -0.4566426,1.774638 -0.0757,0.04292 -0.1499975,0.08835 -0.2232475,0.137291 -0.51865,0.34655 -0.964283,0.792183 -1.310833,1.310833 -0.43313,0.64822 -0.6218337,1.388997 -0.7121237,2.276647 -0.08814,0.86635 -0.088354,1.951457 -0.088344,3.320657 v 0.08297 c -1e-5,1.3692 2.039e-4,2.454257 0.088344,3.320657 0.09029,0.8876 0.2789937,1.628347 0.7121237,2.276647 0.34655,0.5186 0.792183,0.964233 1.310833,1.310833 0.07327,0.0489 0.1475275,0.09499 0.2232475,0.137888 0.15725,0.7077 0.2904526,1.303939 0.4566426,1.774639 0.17744,0.5025 0.4190588,0.942878 0.8428488,1.282778 0.42378,0.34 0.9065692,0.480686 1.4355892,0.544986 0.49852,0.0604 1.113777,0.06029 1.844477,0.06029 h 1.672566 c 0.7307,0 1.345978,1.11e-4 1.844478,-0.06029 0.529,-0.0643 1.011789,-0.204986 1.435589,-0.544986 0.4237,-0.3399 0.665349,-0.780278 0.842849,-1.282778 0.1662,-0.4707 0.298745,-1.067435 0.456045,-1.775235 0.0756,-0.0429 0.150545,-0.08839 0.223845,-0.137292 0.5186,-0.3466 0.963636,-0.792233 1.310236,-1.310833 0.4331,-0.6483 0.621823,-1.389047 0.712123,-2.276647 0.0881,-0.8664 0.08834,-1.951457 0.08834,-3.320657 v -0.08297 c 0,-1.3692 -2.44e-4,-2.454307 -0.08834,-3.320657 -0.0903,-0.88765 -0.279023,-1.628427 -0.712123,-2.276647 -0.3466,-0.51865 -0.791636,-0.964283 -1.310236,-1.310833 -0.0733,-0.04894 -0.148145,-0.09438 -0.223845,-0.137291 -0.1573,-0.70775 -0.289845,-1.303948 -0.456045,-1.774638 -0.1774,-0.50249 -0.419049,-0.9434248 -0.842849,-1.2833748 -0.4238,-0.33995 -0.906589,-0.4801796 -1.435589,-0.5443896 -0.4986,-0.0605 -1.113678,-0.060906 -1.844478,-0.060886 z m 0.04477,1.5000564 h 1.582431 c 0.7877,0 1.311378,0.0013 1.708978,0.04954 0.3772,0.04578 0.552902,0.125665 0.677502,0.225635 0.1246,0.09997 0.240605,0.254128 0.367105,0.612438 0.0721,0.20413 0.138906,0.447393 0.211906,0.749133 -0.1283,-0.01878 -0.259763,-0.03463 -0.394563,-0.04835 -0.8664,-0.08813 -1.951458,-0.08835 -3.320658,-0.08834 h -0.08297 c -1.3692,-1e-5 -2.454297,2.14e-4 -3.320657,0.08834 -0.13486,0.01372 -0.266273,0.02957 -0.3945633,0.04835 0.07305,-0.30175 0.1398263,-0.544993 0.2119063,-0.749133 0.12652,-0.3583 0.242485,-0.512468 0.367105,-0.612438 0.12463,-0.09997 0.300292,-0.179855 0.677502,-0.225635 0.39751,-0.04824 0.921277,-0.04954 1.708977,-0.04954 z m 0.791514,3.000112 c 1.4201,0 2.428728,0.0011 3.210228,0.08058 0.7691,0.07823 1.234266,0.226387 1.594966,0.467387 0.3549,0.23711 0.660068,0.541701 0.897168,0.896571 0.241,0.36067 0.38859,0.826523 0.46679,1.595563 0.0795,0.78158 0.08058,1.790128 0.08058,3.210228 0,1.4201 -0.0011,2.428727 -0.08058,3.210227 -0.0782,0.7691 -0.22579,1.234266 -0.46679,1.594966 -0.2371,0.3549 -0.542268,0.659472 -0.897168,0.896572 -0.3607,0.241 -0.825866,0.389187 -1.594966,0.467387 -0.7815,0.0795 -1.790128,0.08058 -3.210228,0.08058 -1.4201,0 -2.428647,-0.0011 -3.210227,-0.08058 -0.7690399,-0.0782 -1.234893,-0.226387 -1.595563,-0.467387 -0.35487,-0.2371 -0.6594515,-0.541672 -0.8965715,-0.896572 -0.24099,-0.3607 -0.3891472,-0.825866 -0.4673872,-1.594966 -0.0795,-0.7815 -0.080584,-1.790127 -0.080584,-3.210227 0,-1.4201 0.00108,-2.428648 0.080584,-3.210228 0.07824,-0.76904 0.2263972,-1.234893 0.4673872,-1.595563 0.23712,-0.35487 0.5417015,-0.659461 0.8965715,-0.896571 0.36067,-0.241 0.8265231,-0.389157 1.595563,-0.467387 0.78158,-0.07951 1.790127,-0.08058 3.210227,-0.08058 z m 0,2.499894 c -0.4142,0 -0.750326,0.336117 -0.750326,0.750327 v 2.544663 c 0,0.4199 8.7e-5,0.629481 0.07999,0.817181 0.0799,0.1877 0.231542,0.333377 0.534242,0.624377 l 1.615858,1.554376 c 0.2985,0.2871 0.773624,0.277707 1.060724,-0.02089 0.2871,-0.2986 0.277708,-0.773624 -0.02089,-1.060724 L 14.43083,19.551264 v -2.757763 c 0,-0.41421 -0.33553,-0.750327 -0.74973,-0.750327 z M 9.9240897,27.406708 c 0.1282703,0.0188 0.2597233,0.03465 0.3945633,0.04835 0.86637,0.0881 1.951457,0.08834 3.320657,0.08834 h 0.08297 c 1.3692,0 2.454258,-2.44e-4 3.320658,-0.08834 0.1348,-0.0137 0.266163,-0.02955 0.394563,-0.04835 -0.0731,0.3017 -0.139309,0.545032 -0.211309,0.749132 -0.1266,0.3583 -0.242505,0.512439 -0.367105,0.612439 -0.1246,0.0999 -0.300899,0.179835 -0.678099,0.225635 -0.3975,0.0482 -0.920681,0.04954 -1.708381,0.04954 H 12.88958 c -0.7877,0 -1.31087,-0.0013 -1.70838,-0.04954 -0.37721,-0.0458 -0.553479,-0.125735 -0.678099,-0.225635 -0.12462,-0.1 -0.240585,-0.254139 -0.367105,-0.612439 -0.07208,-0.2041 -0.1388563,-0.447432 -0.2119063,-0.749132 z" /><path
       d="m 138.88967,281.40839 c -0.3367,-0.0125 -0.44446,1.30066 -0.67955,1.54203 -0.24884,0.25548 -1.58305,0.43786 -1.59628,0.79426 -0.0125,0.3367 1.30066,0.44394 1.54202,0.67903 0.25549,0.24884 0.43787,1.58357 0.79427,1.5968 0.3367,0.0125 0.44394,-1.30066 0.67903,-1.54202 0.24884,-0.25549 1.58357,-0.43787 1.5968,-0.79427 0.0125,-0.3367 -1.30066,-0.44446 -1.54202,-0.67954 -0.25549,-0.24885 -0.43787,-1.58306 -0.79427,-1.59629 z m 14.46423,15.94115 c -0.20632,-0.008 -0.27194,0.79674 -0.41599,0.94464 -0.15249,0.15656 -0.97013,0.2684 -0.97824,0.48679 -0.008,0.20632 0.79675,0.27246 0.94465,0.41652 0.15655,0.15248 0.2684,0.97012 0.48679,0.97823 0.20632,0.008 0.27246,-0.79674 0.41651,-0.94464 0.15248,-0.15656 0.97013,-0.26892 0.97824,-0.48731 0.008,-0.20632 -0.79675,-0.27195 -0.94465,-0.416 -0.15655,-0.15248 -0.26892,-0.97012 -0.48731,-0.97823 z"
       style="display:inline;fill:#fcbf68;fill-opacity:1;stroke:#19101b;stroke-width:2.019;stroke-linecap:round;stroke-linejoin:round;stroke-dasharray:none;stroke-opacity:1;paint-order:stroke fill markers"
       id="path1-0"
       transform="matrix(1.1551077,0,0,1.1551077,-155.30264,-316.96473)" /></g></svg>
