<svg xmlns="http://www.w3.org/2000/svg" fill="none" viewBox="0 0 282 297"><rect width="221" height="291" y="6" fill="#19101B" rx="15"/><path fill="url(#a)" d="M206 6a15 15 0 0 1 14.9 13l-92.5 92.5a15 15 0 0 0-4.1 7.7l-8 40.5a15 15 0 0 0 17.6 17.7l40.5-8c3-.6 5.6-2 7.7-4.2l38.9-38.9V282a15 15 0 0 1-15 15H15a15 15 0 0 1-15-15V21A15 15 0 0 1 15 6h191ZM31.7 223a8.7 8.7 0 0 0-8.7 8.7v31.6c0 4.8 3.9 8.7 8.7 8.7h157.6c4.8 0 8.7-3.9 8.7-8.7v-31.6c0-4.8-3.9-8.7-8.7-8.7H31.7Zm0-38a8.7 8.7 0 0 0-8.7 8.7v8.6c0 4.8 3.9 8.7 8.7 8.7h157.6c4.8 0 8.7-3.9 8.7-8.7v-8.6c0-4.8-3.9-8.7-8.7-8.7H31.7ZM223.3 16.6a15 15 0 0 1 21.2 0L277 49.1a15 15 0 0 1 0 21.2l-56 56V21l-.1-2 2.4-2.4ZM31 38.2c-1 0-2 .4-2.8 1.3a4 4 0 0 0-1.2 2.8V95c0 1 .4 2 1.2 2.9.8.8 1.7 1.1 2.8 1.1h8c1 0 2-.3 2.8-1 .7-.8 1.1-1.7 1.1-2.8V74.5H52c2.6 0 4.7.7 6.5 2.2a25 25 0 0 1 5.4 6.5L71.4 95a9.2 9.2 0 0 0 3.2 3c-.3-.6-.6-1.3-.6-2v-.1l.2-1.7 4-16.3a38.5 38.5 0 0 0-5-6.1c-1.9-2-3.8-3.1-5.7-3.5 2.7-.7 4.8-1.8 6.5-3.3 1.6-1.6 3.1-3.6 4.5-6l9.1-16.7c.5-.9.7-1.6.7-2.3 0-1.2-.6-1.8-2-1.8h-9.7c-2.6 0-4.6 1.4-6.1 4.1L63.9 54c-1.7 3-3.5 5.2-5.4 6.6-1.8 1.3-4 2-6.5 2h-9V42.3a4 4 0 0 0-1.2-2.8 3.7 3.7 0 0 0-2.8-1.3h-8Zm83.2-.9c-15.8.3-25.1 6-27.8 17l-10 40.3-.2 1.3c0 .5.3 1 .8 1.7.4.6 1.2.9 2.3.9l8.4-.1c1 0 2.1-.4 3-1.2a5 5 0 0 0 2-2.9l2.6-10.7 30-.4.2 10.6a4 4 0 0 0 1.2 2.9 4 4 0 0 0 2.9 1h8a4 4 0 0 0 2.7-1.2c.8-.8 1.2-1.7 1.2-2.8l-.8-52.8c0-1-.4-2-1.1-2.8A3.2 3.2 0 0 0 137 37l-22.8.3Zm11 34-27 .3 3.6-13.6a11.2 11.2 0 0 1 11-8.7l12-.2.4 22.1Z"/><defs><linearGradient id="a" x1="-8.4" x2="205.4" y1="20.1" y2="261.1" gradientUnits="userSpaceOnUse"><stop stop-color="#FFC561"/><stop offset="1" stop-color="#B444FF"/></linearGradient></defs></svg>