<svg xmlns="http://www.w3.org/2000/svg" fill="none" viewBox="0 0 295 274"><path fill="#fff" d="M284 137a137 137 0 1 1-274 0 137 137 0 0 1 274 0Z"/><path fill="url(#a)" d="M147 0c46 0 86.7 22.7 111.5 57.4l-34.2.5c-40.6.7-64.4 15.1-71.4 43.4l-25.7 103.6-.4 3.3c0 1.2.7 2.7 2 4.3 1.2 1.6 3.2 2.3 6 2.3l21.4-.3c2.8 0 5.5-1 8-3s4-4.4 4.7-7.4l7-27.4 77-1.2.4 27.4c0 3 1 5.4 3 7.3 1.4 1.3 3 2.1 4.9 2.5a136.9 136.9 0 0 1-226.5 2.8 9.8 9.8 0 0 0 3.7-2.3c2-2 3-4.4 3-7.2v-52.7h23.4c6.5 0 12 1.9 16.7 5.6 4.6 3.7 9.2 9.3 13.7 16.6l19.1 30.3a23.7 23.7 0 0 0 8.3 7.7c-.8-1.6-1.4-3.3-1.4-5.2v-.4c0-1.4.2-2.8.5-4.2v-.1l10.4-41.7c-3.8-5.6-8-10.8-12.9-15.5-5-5-9.9-8-14.6-9a35.2 35.2 0 0 0 16.5-8.6 62 62 0 0 0 11.5-15.4L156 70.7c1.2-2.3 1.8-4.3 1.8-6 0-3-1.7-4.5-5.2-4.5h-25c-6.6 0-11.8 3.6-15.6 10.5l-16.9 30a51 51 0 0 1-13.7 16.8 27.6 27.6 0 0 1-16.7 5.2H41.4v-52c0-2.8-1-5.2-3-7.3a9.5 9.5 0 0 0-5-3A136.9 136.9 0 0 1 147 0ZM31.2 60.2c.8 0 1.5 0 2.2.2a136.4 136.4 0 0 0 1.3 155c-1 .4-2.2.6-3.5.6H10.8a10 10 0 0 1-7.2-3c-2-2.1-3-4.6-3-7.4V70.7c0-2.8 1-5.2 3-7.3 2-2.1 4.4-3.2 7.2-3.2h20.4Zm251.6-3.1c2.7 0 4.9.9 6.6 2.9 1.9 2 2.8 4.3 2.9 7l2 135.5c0 2.8-1 5.2-3 7.2-2 1.9-4.4 2.9-7.2 3l-20.4.2c-.9 0-1.7 0-2.5-.2a136.4 136.4 0 0 0-2.7-155.3l24.3-.3Zm-30.3 87.7-69.1 1 9-35a28.7 28.7 0 0 1 28.3-22.1l31-.5.8 56.6Z"/><defs><linearGradient id="a" x1="164.3" x2="21.6" y1="243.7" y2="-76.1" gradientUnits="userSpaceOnUse"><stop stop-color="#FFC370"/><stop offset="1" stop-color="#B444FF"/></linearGradient></defs></svg>