<svg width="20" height="20" viewBox="0 0 20 20" fill="none" xmlns="http://www.w3.org/2000/svg"><path d="M2.50073 10.0039C2.50073 14.146 5.8586 17.5039 10.0007 17.5039C14.1429 17.5039 17.5007 14.146 17.5007 10.0039M2.50073 10.0039C2.50073 5.86176 5.8586 2.50389 10.0007 2.50389C14.1429 2.50389 17.5007 5.86176 17.5007 10.0039M2.50073 10.0039L1.00073 10.0039M17.5007 10.0039L19.0007 10.0039M17.5007 10.0039L10.0007 10.0039M1.54329 13.0821L2.95283 12.569M17.0482 7.43874L18.4578 6.92571M3.1062 15.7896L4.25527 14.8254M15.7459 5.18361L16.895 4.21943M5.50064 17.7989L6.25064 16.4999M13.7506 3.50948L14.5006 2.21044M8.43781 18.8679L8.69828 17.3907M11.303 2.61857L11.5635 1.14136M11.5635 18.8679L11.303 17.3907M8.69828 2.61861L8.43781 1.1414M14.5007 17.7987L13.7507 16.4997M5.50068 2.21028L10.0007 10.0039M16.8952 15.789L15.7461 14.8248M4.25542 5.18299L3.10635 4.21881M18.458 13.0822L17.0485 12.5692M2.95308 7.4389L1.54354 6.92587M10.0007 10.0039L6.25073 16.4991" stroke="#fff" stroke-width="1.5" stroke-linecap="round" stroke-linejoin="round"/></svg>