<svg width="29" height="39" viewBox="0 0 29 39" fill="none" xmlns="http://www.w3.org/2000/svg">
<path fill-rule="evenodd" clip-rule="evenodd" d="M14.5 0C8.89431 0 4.35 4.36522 4.35 9.75V16.7143C1.94756 16.7143 0 18.5851 0 20.8929V34.8214C0 37.1292 1.94756 39 4.35 39H24.65C27.0524 39 29 37.1292 29 34.8214V20.8929C29 18.5851 27.0524 16.7143 24.65 16.7143V9.75C24.65 4.36522 20.1057 0 14.5 0ZM20.3 16.7143V9.75C20.3 6.67298 17.7033 4.17857 14.5 4.17857C11.2967 4.17857 8.7 6.67298 8.7 9.75V16.7143H20.3Z" fill="#19101B"/>
</svg>
