<svg width="22" height="22" viewBox="0 0 22 22" fill="none" xmlns="http://www.w3.org/2000/svg">
<path d="M3.52097 0.604092C2.71551 -0.201364 1.40961 -0.201364 0.604153 0.604092C-0.201303 1.40955 -0.201303 2.71545 0.604153 3.52091L8.08325 11L0.604153 18.4791C-0.201303 19.2845 -0.201303 20.5905 0.604153 21.3959C1.40961 22.2014 2.71551 22.2014 3.52097 21.3959L11.0001 13.9168L18.4792 21.3959C19.2846 22.2014 20.5905 22.2014 21.396 21.3959C22.2014 20.5905 22.2014 19.2845 21.396 18.4791L13.9169 11L21.396 3.52091C22.2014 2.71545 22.2014 1.40955 21.396 0.604092C20.5905 -0.201364 19.2846 -0.201364 18.4792 0.604092L11.0001 8.08319L3.52097 0.604092Z" fill="#B444FF"/>
</svg>
