<svg width="113" height="113" viewBox="0 0 113 113" fill="none" xmlns="http://www.w3.org/2000/svg">
<path d="M56.1367 6.00586L56.4004 6.01953C59.1067 6.19999 61.1553 7.57511 62.5127 8.88574C63.8967 10.2221 64.9597 11.8593 65.7871 13.3789C67.4429 16.4201 68.8253 20.2703 70.0029 23.8018C71.2611 27.5748 72.2768 30.9443 73.374 33.9443C73.9053 35.397 74.3853 36.56 74.8223 37.4346C75.129 38.0485 75.3367 38.3583 75.4189 38.4756C75.5279 38.5419 75.7961 38.6976 76.3008 38.9209C77.1301 39.2878 78.2489 39.6865 79.6641 40.123C82.5874 41.0249 85.8677 41.8253 89.5537 42.8408C92.9813 43.7852 96.7666 44.9195 99.7393 46.3711C101.217 47.0929 102.889 48.0776 104.249 49.4551C105.67 50.894 107.105 53.154 106.994 56.1367C106.889 58.974 105.467 61.1115 104.114 62.5127C102.778 63.8967 101.141 64.9597 99.6211 65.7871C96.5799 67.4429 92.7297 68.8253 89.1982 70.0029C85.4252 71.2611 82.0557 72.2768 79.0557 73.374C77.603 73.9053 76.44 74.3853 75.5654 74.8223C74.9522 75.1287 74.6421 75.3355 74.5244 75.418C74.4583 75.5265 74.3029 75.7949 74.0791 76.3008C73.7122 77.1301 73.3135 78.2489 72.877 79.6641C71.9751 82.5874 71.1747 85.8677 70.1592 89.5537C69.2148 92.9813 68.0805 96.7666 66.6289 99.7393C65.9071 101.217 64.9224 102.889 63.5449 104.249C62.106 105.67 59.846 107.105 56.8633 106.994C54.026 106.889 51.8885 105.467 50.4873 104.114C49.1033 102.778 48.0403 101.141 47.2129 99.6211C45.5571 96.5799 44.1747 92.7297 42.9971 89.1982C41.7389 85.4252 40.7232 82.0557 39.626 79.0557C39.0947 77.603 38.6147 76.44 38.1777 75.5654C37.87 74.9495 37.6618 74.6399 37.5801 74.5234C37.4704 74.4567 37.2022 74.3016 36.6992 74.0791C35.8699 73.7122 34.7511 73.3135 33.3359 72.877C30.4126 71.9751 27.1323 71.1747 23.4463 70.1592C20.0187 69.2148 16.2334 68.0805 13.2607 66.6289C11.7826 65.9071 10.1114 64.9224 8.75098 63.5449C7.32998 62.106 5.89512 59.846 6.00586 56.8633C6.11133 54.026 7.53287 51.8885 8.88574 50.4873C10.2221 49.1033 11.8592 48.0403 13.3789 47.2129C16.4201 45.5571 20.2703 44.1747 23.8018 42.9971C27.5748 41.7389 30.9443 40.7232 33.9443 39.626C35.397 39.0947 36.56 38.6147 37.4346 38.1777C38.0474 37.8715 38.3568 37.6636 38.4746 37.5811C38.5408 37.4724 38.6973 37.2046 38.9209 36.6992C39.2878 35.8699 39.6865 34.7511 40.123 33.3359C41.0249 30.4126 41.8253 27.1323 42.8408 23.4463C43.7852 20.0187 44.9195 16.2334 46.3711 13.2607C47.0929 11.7826 48.0776 10.1114 49.4551 8.75098C50.849 7.37445 53.013 5.98493 55.8584 6L56.1367 6.00586Z" fill="#DA83B8" stroke="#19101B" stroke-width="12" stroke-linecap="round" stroke-linejoin="round"/>
</svg>
