<svg width="17" height="23" viewBox="0 0 17 23" fill="none" xmlns="http://www.w3.org/2000/svg">
<path fill-rule="evenodd" clip-rule="evenodd" d="M8.5 0C5.21391 0 2.55 2.57436 2.55 5.75V9.85714C1.14167 9.85714 0 10.9604 0 12.3214V20.5357C0 21.8967 1.14167 23 2.55 23H14.45C15.8583 23 17 21.8967 17 20.5357V12.3214C17 10.9604 15.8583 9.85714 14.45 9.85714V5.75C14.45 2.57436 11.7861 0 8.5 0ZM11.9 9.85714V5.75C11.9 3.93535 10.3778 2.46429 8.5 2.46429C6.62223 2.46429 5.1 3.93535 5.1 5.75V9.85714H11.9Z" fill="white"/>
</svg>
