<?xml version="1.0" encoding="UTF-8" standalone="no"?>
<!-- Created with Inkscape (http://www.inkscape.org/) -->

<svg
   width="46.455963mm"
   height="68.848625mm"
   viewBox="0 0 46.455963 68.848625"
   version="1.1"
   id="svg1"
   xml:space="preserve"
   xmlns="http://www.w3.org/2000/svg"
   xmlns:svg="http://www.w3.org/2000/svg"><defs
     id="defs1" /><g
     id="g38"
     style="display:inline"
     transform="translate(-92.634992,-37.059604)"><path
       id="path50"
       style="display:inline;fill:#ca6ad1;fill-opacity:1;fill-rule:evenodd;stroke:#19101b;stroke-width:2.544;stroke-linecap:round;stroke-linejoin:round;stroke-dasharray:none;stroke-opacity:1;paint-order:stroke fill markers"
       d="m 119.85109,62.78639 a 13.794276,13.794276 0 0 0 -6.50712,1.656545 l -0.0179,-0.01549 -0.37155,0.207324 a 13.794276,13.794276 0 0 0 -0.0118,0.0062 l -7.72541,4.301473 0.0104,0.0081 a 16.815879,16.815879 0 0 0 -8.234491,14.461409 16.815879,16.815879 0 0 0 16.815871,16.815879 16.815879,16.815879 0 0 0 15.47445,-10.234859 l 0.001,0.001 0.0216,-0.0544 a 16.815879,16.815879 0 0 0 0.15392,-0.377701 l 3.24843,-7.982 0.1089,-0.265828 -0.006,-0.0052 a 13.794276,13.794276 0 0 0 0.83547,-4.72844 13.794276,13.794276 0 0 0 -13.79427,-13.794277 z"
       transform="translate(1.1666667e-6)" /><path
       id="rect44-6"
       style="display:inline;fill:#8929b6;fill-rule:evenodd;stroke-width:1.59009;stroke-linecap:round;stroke-linejoin:round;paint-order:stroke fill markers"
       transform="rotate(51.574605,1.3803246,-0.72659993)"
       d="m 126.39827,-54.522143 c 0.5846,-0.517092 1.05669,-0.665054 1.04738,-0.306733 l -0.19008,7.314377 c -0.0223,0.859279 -0.84038,2.181468 -1.80288,2.880254 -0.93111,0.675999 -1.53893,0.43006 -1.39947,-0.469891 l 1.21162,-7.818646 c 0.0605,-0.39045 0.56037,-1.092478 1.13343,-1.599361 z" /></g></svg>
