<?xml version="1.0" encoding="UTF-8" standalone="no"?>
<!-- Created with Inkscape (http://www.inkscape.org/) -->

<svg
   width="46.455963mm"
   height="68.848625mm"
   viewBox="0 0 46.455963 68.848625"
   version="1.1"
   id="svg1"
   xml:space="preserve"
   xmlns="http://www.w3.org/2000/svg"
   xmlns:svg="http://www.w3.org/2000/svg"><defs
     id="defs1" /><g
     id="g38"
     style="display:inline"
     transform="translate(-92.634992,-37.059604)"><g
       id="g51"
       transform="matrix(0.81430671,0,0,0.81430671,20.331781,15.33608)"><path
         id="rect26-1"
         style="display:inline;fill:#8929b6;fill-rule:evenodd;stroke-width:1.23915;stroke-linecap:round;stroke-linejoin:round;paint-order:stroke fill markers"
         d="m 103.47351,79.429788 c -0.30069,-0.0076 -0.59528,0.144746 -0.75682,0.424614 -0.23498,0.407001 -0.0965,0.923884 0.31059,1.158844 l 2.31771,1.338742 -2.32951,1.344638 c -0.40698,0.234979 -0.54556,0.751863 -0.3106,1.158845 0.23497,0.407001 0.75186,0.545585 1.15887,0.310605 l 3.58173,-2.068065 c 0.12648,-0.07303 0.22733,-0.173277 0.29879,-0.288979 0.008,-0.01331 0.0153,-0.02549 0.0227,-0.03843 0.23497,-0.406982 0.0974,-0.923865 -0.30962,-1.158844 l -3.58172,-2.067076 c -0.12725,-0.07342 -0.26534,-0.111271 -0.40202,-0.115074 z" /><path
         id="path56"
         style="display:inline;fill:#8929b6;fill-rule:evenodd;stroke-width:1.23915;stroke-linecap:round;stroke-linejoin:round;paint-order:stroke fill markers"
         d="m 118.46255,79.551632 c 0.30069,-0.0076 0.59528,0.144746 0.75682,0.424614 0.23498,0.407001 0.0965,0.923884 -0.31059,1.158844 l -2.31771,1.338742 2.32951,1.344638 c 0.40698,0.234979 0.54556,0.751863 0.3106,1.158845 -0.23497,0.407001 -0.75186,0.545585 -1.15887,0.310605 l -3.58173,-2.068065 c -0.12648,-0.07303 -0.22733,-0.173277 -0.29879,-0.288979 -0.008,-0.01331 -0.0153,-0.02549 -0.0227,-0.03843 -0.23497,-0.406982 -0.0974,-0.923865 0.30962,-1.158844 l 3.58172,-2.067076 c 0.12725,-0.07342 0.26534,-0.111271 0.40202,-0.115074 z" /></g></g></svg>
