<?xml version="1.0" encoding="UTF-8" standalone="no"?>
<!-- Created with Inkscape (http://www.inkscape.org/) -->

<svg
   width="46.455963mm"
   height="68.848625mm"
   viewBox="0 0 46.455963 68.848625"
   version="1.1"
   id="svg1"
   xml:space="preserve"
   xmlns="http://www.w3.org/2000/svg"
   xmlns:svg="http://www.w3.org/2000/svg"><defs
     id="defs1" /><g
     id="g38"
     style="display:inline"
     transform="translate(-92.634992,-37.059604)"><g
       id="g51"
       transform="matrix(0.81430671,0,0,0.81430671,20.331781,15.33608)"><path
         style="display:inline;fill:#8929b6;fill-opacity:1;fill-rule:evenodd;stroke-width:8.65118;stroke-dasharray:8.65118, 8.65118"
         d="m 101.11775,83.210928 c 0.36285,-0.877535 1.44527,-2.704275 3.46337,-2.337939 2.27359,0.412757 2.79918,3.182865 2.26258,3.385546 -0.59171,0.223578 -0.59809,-0.689245 -0.99236,-1.355814 -0.42459,-0.717722 -1.38227,-1.16268 -1.91897,-1.06888 -0.82322,0.143912 -1.62379,0.774388 -2.06075,1.861526 -0.38089,0.94656 -1.19268,0.732836 -0.75386,-0.48467 z"
         id="path40-1" /><path
         style="display:inline;fill:#8929b6;fill-opacity:1;fill-rule:evenodd;stroke-width:8.65118;stroke-dasharray:8.65118, 8.65118"
         d="m 114.54179,83.269328 c 0.36285,-0.877535 1.44527,-2.704275 3.46337,-2.337939 2.27359,0.412757 2.79918,3.182865 2.26258,3.385546 -0.59171,0.223578 -0.59809,-0.689245 -0.99236,-1.355814 -0.42459,-0.717722 -1.38227,-1.16268 -1.91897,-1.06888 -0.82322,0.143912 -1.62379,0.774388 -2.06075,1.861526 -0.38089,0.94656 -1.19268,0.732836 -0.75386,-0.48467 z"
         id="path55" /></g></g></svg>
