<svg xmlns="http://www.w3.org/2000/svg" fill="none" viewBox="0 0 322 276"><path fill="url(#a)" d="M196.3 104c4.3-1.8 8.5-2.5 12.8-2.1l18.9 1.8-15.8 30.6-42.2-4.1 15.5-18.2c3-3.5 6.6-6.2 10.8-8Z"/><path fill="url(#b)" fill-rule="evenodd" d="M46.3 110.2C73.8 58.8 143 22.3 200.8 28.7c58 6.5 82.7 53.4 55.2 104.8-27.4 51.4-96.5 87.9-154.5 81.4-57.9-6.4-82.6-53.3-55.2-104.7Zm173.8-24.6c-24.9-2.4-43.5 3.8-55.8 18.5L119 158.2l-1.1 1.7c-.4.7-.4 1.5-.1 2.5.3 1 1.3 1.5 3 1.6l13 1.3c1.8.2 3.7-.2 5.8-1a13 13 0 0 0 5-3.7l12-14.3 47.2 4.5-7.7 14.8c-.8 1.6-.9 3-.3 4.1.7 1.2 2 1.8 3.7 2l12.5 1.2c1.7.2 3.5-.2 5.2-1 1.8-1 3-2.2 3.9-3.8l37.7-73c.7-1.5.8-2.8.3-4-.5-1.2-1.6-1.9-3.2-2L220 85.6ZM89.9 72.4a9 9 0 0 0-5.3 1.2 9.4 9.4 0 0 0-4 3.8L42 150c-.8 1.5-.9 3-.2 4.2.6 1.2 1.8 2 3.5 2.1l12.4 1.4a9 9 0 0 0 5.1-1c1.8-1 3.1-2.2 4-3.7l15-28.4 14.2 1.6c4 .4 6.8 1.8 8.5 4.2 1.8 2.3 3 5.5 3.6 9.8l2.9 17.6a7.9 7.9 0 0 0 2.8 4.7c0-.9.1-1.9.6-2.9l.1-.2 1.5-2.2h.1l18.3-21.8a33 33 0 0 0-3.4-9.3c-1.6-3-3.7-5-6.3-5.8 4.6-.4 8.8-1.6 12.5-3.5 3.7-2 7.5-4.4 11.4-7.5L175 87.9c1.4-1.2 2.4-2.2 2.8-3 1-1.7.3-2.7-1.8-2.9l-15.2-1.7c-4-.4-8.2 1.1-12.5 4.6l-18.8 15a53 53 0 0 1-13.2 8.1 24 24 0 0 1-11.6 1.7l-14.2-1.6 15-28c.8-1.4.9-2.8.2-4.1-.5-1.3-1.7-2-3.4-2.2l-12.4-1.4Z" clip-rule="evenodd"/><path fill="url(#c)" fill-rule="evenodd" d="M15 106.7C50.6 40 140.5-7.4 215.7 1c40.6 4.5 68.6 24.3 80.2 52.2L306 71.4c2.1 3 4 6.3 5.5 9.7 4 6.3 6.8 13.2 8.5 20.6l-18.4-24.3c.5 5.7.3 11.6-.4 17.6l20.7 27.4a92 92 0 0 1-2 15.5l-21.5-28.4c-1.2 4.2-2.5 8.4-4.2 12.7l21.9 29a123.9 123.9 0 0 1-4.9 11.7l-22.1-29.3a151.1 151.1 0 0 1-5.8 10.6l22.3 29.5c-2 3.3-4 6.7-6.3 10L277 153.8c-2.2 3.1-4.5 6.1-7 9.1l22.6 29.8c-2.3 3-4.7 5.8-7.2 8.6l-22.6-29.8c-2.5 2.7-5 5.4-7.7 8l22.6 30a209 209 0 0 1-8 7.5l-22.7-30a217 217 0 0 1-8.4 7l22.7 30.2a227 227 0 0 1-8.7 6.7l-22.8-30.2-9 6.2 22.8 30.3c-3 2-6.2 4-9.3 5.8l-23-30.3c-3.1 1.9-6.4 3.7-9.6 5.4l23 30.4c-3.3 1.8-6.7 3.4-10 5l-23-30.5-10.4 4.6 23.1 30.6a232 232 0 0 1-10.6 4.1l-23.2-30.7c-3.6 1.3-7.3 2.5-11 3.6l23.2 30.8c-3.7 1.2-7.5 2.2-11.3 3.2l-23.4-31c-4 1-8 1.8-12 2.5l23.6 31c-4.2.8-8.3 1.5-12.4 2l-23.5-31.2c-4.4.5-8.7.8-13 1l23.6 31.3a170.8 170.8 0 0 1-13.6.1l-23.9-31.5a156.4 156.4 0 0 1-14.8-1.4l24 31.8c-5.7-.8-11-1.9-16.2-3.2l-24-32c-7-1.9-13.4-4.3-19.3-7.1l24.1 31.8a85 85 0 0 1-13.7-8.4l-.2.1-1-1.1a71.6 71.6 0 0 1-15.8-17.3l-17.3-19.1.8-.9a86.7 86.7 0 0 0 20.2 13.4C.6 207.3-12.7 158.8 15 106.7Zm193.4-92C141.7 7.1 62 49.1 30.4 108.3-1 167.6 27.4 221.6 94 229c66.7 7.5 146.4-34.5 178-93.7C303.4 76 275 22 208.3 14.6Z" clip-rule="evenodd"/><ellipse cx="138.6" cy="127.6" fill="#19101B" rx="138.6" ry="127.6" transform="matrix(1 0 -.37 .93 83.8 38)"/><ellipse cx="131.9" cy="125.2" fill="#19101B" rx="131.9" ry="125.2" transform="matrix(1 0 -.37 .93 67 7)"/><path fill="url(#d)" d="M196.3 104c4.3-1.8 8.5-2.5 12.8-2.1l18.9 1.8-15.8 30.6-42.2-4.1 15.5-18.2c3-3.5 6.6-6.2 10.8-8Z"/><path fill="url(#e)" fill-rule="evenodd" d="M46.3 110.2C73.8 58.8 143 22.3 200.8 28.7c58 6.5 82.7 53.4 55.2 104.8-27.4 51.4-96.5 87.9-154.5 81.4-57.9-6.4-82.6-53.3-55.2-104.7Zm173.8-24.6c-24.9-2.4-43.5 3.8-55.8 18.5L119 158.2l-1.1 1.7c-.4.7-.4 1.5-.1 2.5.3 1 1.3 1.5 3 1.6l13 1.3c1.8.2 3.7-.2 5.8-1a13 13 0 0 0 5-3.7l12-14.3 47.2 4.5-7.7 14.8c-.8 1.6-.9 3-.3 4.1.7 1.2 2 1.8 3.7 2l12.5 1.2c1.7.2 3.5-.2 5.2-1 1.8-1 3-2.2 3.9-3.8l37.7-73c.7-1.5.8-2.8.3-4-.5-1.2-1.6-1.9-3.2-2L220 85.6ZM89.9 72.4a9 9 0 0 0-5.3 1.2 9.4 9.4 0 0 0-4 3.8L42 150c-.8 1.5-.9 3-.2 4.2.6 1.2 1.8 2 3.5 2.1l12.4 1.4a9 9 0 0 0 5.1-1c1.8-1 3.1-2.2 4-3.7l15-28.4 14.2 1.6c4 .4 6.8 1.8 8.5 4.2 1.8 2.3 3 5.5 3.6 9.8l2.9 17.6a7.9 7.9 0 0 0 2.8 4.7c0-.9.1-1.9.6-2.9l.1-.2 1.5-2.2h.1l18.3-21.8a33 33 0 0 0-3.4-9.3c-1.6-3-3.7-5-6.3-5.8 4.6-.4 8.8-1.6 12.5-3.5 3.7-2 7.5-4.4 11.4-7.5L175 87.9c1.4-1.2 2.4-2.2 2.8-3 1-1.7.3-2.7-1.8-2.9l-15.2-1.7c-4-.4-8.2 1.1-12.5 4.6l-18.8 15a53 53 0 0 1-13.2 8.1 24 24 0 0 1-11.6 1.7l-14.2-1.6 15-28c.8-1.4.9-2.8.2-4.1-.5-1.3-1.7-2-3.4-2.2l-12.4-1.4Z" clip-rule="evenodd"/><path fill="url(#f)" fill-rule="evenodd" d="M15 106.7C50.6 40 140.5-7.4 215.7 1c40.6 4.5 68.6 24.3 80.2 52.2L306 71.4c2.1 3 4 6.3 5.5 9.7 4 6.3 6.8 13.2 8.5 20.6l-18.4-24.3c.5 5.7.3 11.6-.4 17.6l20.7 27.4a92 92 0 0 1-2 15.5l-21.5-28.4c-1.2 4.2-2.5 8.4-4.2 12.7l21.9 29a123.9 123.9 0 0 1-4.9 11.7l-22.1-29.3a151.1 151.1 0 0 1-5.8 10.6l22.3 29.5c-2 3.3-4 6.7-6.3 10L277 153.8c-2.2 3.1-4.5 6.1-7 9.1l22.6 29.8c-2.3 3-4.7 5.8-7.2 8.6l-22.6-29.8c-2.5 2.7-5 5.4-7.7 8l22.6 30a209 209 0 0 1-8 7.5l-22.7-30a217 217 0 0 1-8.4 7l22.7 30.2a227 227 0 0 1-8.7 6.7l-22.8-30.2-9 6.2 22.8 30.3c-3 2-6.2 4-9.3 5.8l-23-30.3c-3.1 1.9-6.4 3.7-9.6 5.4l23 30.4c-3.3 1.8-6.7 3.4-10 5l-23-30.5-10.4 4.6 23.1 30.6a232 232 0 0 1-10.6 4.1l-23.2-30.7c-3.6 1.3-7.3 2.5-11 3.6l23.2 30.8c-3.7 1.2-7.5 2.2-11.3 3.2l-23.4-31c-4 1-8 1.8-12 2.5l23.6 31c-4.2.8-8.3 1.5-12.4 2l-23.5-31.2c-4.4.5-8.7.8-13 1l23.6 31.3a170.8 170.8 0 0 1-13.6.1l-23.9-31.5a156.4 156.4 0 0 1-14.8-1.4l24 31.8c-5.7-.8-11-1.9-16.2-3.2l-24-32c-7-1.9-13.4-4.3-19.3-7.1l24.1 31.8a85 85 0 0 1-13.7-8.4l-.2.1-1-1.1a71.6 71.6 0 0 1-15.8-17.3l-17.3-19.1.8-.9a86.7 86.7 0 0 0 20.2 13.4C.6 207.3-12.7 158.8 15 106.7Zm193.4-92C141.7 7.1 62 49.1 30.4 108.3-1 167.6 27.4 221.6 94 229c66.7 7.5 146.4-34.5 178-93.7C303.4 76 275 22 208.3 14.6Z" clip-rule="evenodd"/><defs><linearGradient id="a" x1="177.1" x2="283.1" y1="-.2" y2="240.3" gradientUnits="userSpaceOnUse"><stop stop-color="#FFC561"/><stop offset="1" stop-color="#B444FF"/></linearGradient><linearGradient id="b" x1="177.1" x2="283.1" y1="-.2" y2="240.3" gradientUnits="userSpaceOnUse"><stop stop-color="#FFC561"/><stop offset="1" stop-color="#B444FF"/></linearGradient><linearGradient id="c" x1="177.1" x2="283.1" y1="-.2" y2="240.3" gradientUnits="userSpaceOnUse"><stop stop-color="#FFC561"/><stop offset="1" stop-color="#B444FF"/></linearGradient><linearGradient id="d" x1="177.1" x2="283.1" y1="-.2" y2="240.3" gradientUnits="userSpaceOnUse"><stop stop-color="#FFC561"/><stop offset="1" stop-color="#B444FF"/></linearGradient><linearGradient id="e" x1="177.1" x2="283.1" y1="-.2" y2="240.3" gradientUnits="userSpaceOnUse"><stop stop-color="#FFC561"/><stop offset="1" stop-color="#B444FF"/></linearGradient><linearGradient id="f" x1="177.1" x2="283.1" y1="-.2" y2="240.3" gradientUnits="userSpaceOnUse"><stop stop-color="#FFC561"/><stop offset="1" stop-color="#B444FF"/></linearGradient></defs></svg>