<svg width="322" height="276" viewBox="0 0 322 276" fill="none" xmlns="http://www.w3.org/2000/svg">
<path d="M196.283 104.04C200.569 102.204 204.833 101.491 209.073 101.904L227.952 103.745L212.195 134.288L169.997 130.177L185.516 111.963C188.471 108.482 192.061 105.841 196.283 104.04Z" fill="url(#paint0_linear_224_357)"/>
<path fill-rule="evenodd" clip-rule="evenodd" d="M46.3344 110.187C73.7538 58.7763 142.927 22.3155 200.836 28.7498C258.746 35.1843 283.464 82.0779 256.044 133.489C228.625 184.9 159.452 221.361 101.542 214.927C43.6327 208.492 18.9151 161.599 46.3344 110.187ZM220.066 85.5838C195.227 83.2047 176.639 89.383 164.306 104.118L118.942 158.203C118.548 158.697 118.156 159.274 117.77 159.932C117.428 160.596 117.402 161.413 117.69 162.383C117.998 163.314 119.013 163.864 120.735 164.032L133.785 165.304C135.507 165.471 137.404 165.123 139.473 164.26C141.562 163.357 143.24 162.127 144.506 160.571L156.552 146.259L203.652 150.848L196.044 165.594C195.22 167.193 195.109 168.575 195.713 169.74C196.382 170.87 197.624 171.524 199.434 171.7L211.887 172.913C213.609 173.081 215.351 172.719 217.111 171.825C218.891 170.892 220.174 169.665 220.958 168.143L258.662 95.0604C259.406 93.6173 259.508 92.2952 258.967 91.0956C258.471 89.9004 257.405 89.2235 255.771 89.0643L220.066 85.5838ZM89.9321 72.4413C88.2215 72.2513 86.4499 72.6526 84.6196 73.6454C82.7892 74.6381 81.4686 75.8943 80.6586 77.4129L41.935 150.02C41.1255 151.539 41.0339 152.931 41.6596 154.196C42.3062 155.423 43.4853 156.131 45.1957 156.321L57.5649 157.696C59.2754 157.886 60.994 157.54 62.7182 156.659C64.5064 155.744 65.8058 154.528 66.6156 153.01L81.7563 124.621L95.9018 126.192C99.8495 126.631 102.687 128.019 104.414 130.356C106.162 132.654 107.359 135.943 108.004 140.222L110.893 157.806C111.18 159.446 112.019 160.921 113.411 162.23C113.516 162.325 113.623 162.415 113.73 162.504C113.667 161.617 113.8 160.631 114.332 159.598L114.379 159.509L114.43 159.421C114.89 158.637 115.391 157.887 115.944 157.194L115.98 157.149L116.017 157.105L134.259 135.355C133.604 132.102 132.494 129.024 130.926 126.124C129.333 123.101 127.233 121.156 124.628 120.289C129.229 119.851 133.384 118.683 137.091 116.785C140.842 114.892 144.641 112.385 148.489 109.265L175.01 87.8963C176.42 86.7331 177.366 85.7031 177.843 84.8075C178.715 83.1723 178.098 82.2377 175.993 82.0038L160.794 80.3143C156.782 79.9097 152.616 81.4485 148.297 84.9286L129.5 99.9168C124.647 103.791 120.251 106.499 116.316 108.042C112.424 109.589 108.547 110.148 104.687 109.72L90.5424 108.148L105.464 80.1688C106.274 78.6503 106.366 77.2577 105.741 75.992C105.159 74.7312 104.012 74.0054 102.301 73.8153L89.9321 72.4413Z" fill="url(#paint1_linear_224_357)"/>
<path fill-rule="evenodd" clip-rule="evenodd" d="M15.0268 106.709C50.6329 39.9475 140.459 -7.39957 215.66 0.955901C256.298 5.47123 284.347 25.3301 295.928 53.1659L306.016 71.3661C308.114 74.4557 309.947 77.7047 311.508 81.0956C315.429 87.4012 318.295 94.3188 320.022 101.736L301.638 77.4041C302.065 83.0983 301.921 88.9861 301.189 95.0252L321.871 122.398C321.657 127.431 320.987 132.615 319.839 137.925L298.364 109.501C297.244 113.68 295.851 117.91 294.181 122.181L316.07 151.151C315.335 153.233 314.532 155.331 313.655 157.442C312.888 159.286 312.074 161.12 311.216 162.943L289.073 133.636C288.517 134.744 287.944 135.856 287.351 136.968C286.058 139.391 284.692 141.788 283.26 144.158L305.576 173.693C303.632 177.045 301.538 180.352 299.305 183.609L276.874 153.922C274.694 157.013 272.396 160.049 269.992 163.028L292.508 192.829C290.2 195.752 287.782 198.629 285.258 201.45L262.673 171.557C260.19 174.284 257.616 176.953 254.958 179.562L277.602 209.531C275.011 212.117 272.334 214.649 269.577 217.124L246.879 187.084C244.142 189.502 241.333 191.859 238.456 194.152L261.205 224.26C258.374 226.554 255.472 228.791 252.508 230.964L229.706 200.786C226.74 202.924 223.714 204.995 220.637 206.998L243.495 237.25C240.44 239.275 237.331 241.237 234.171 243.127L211.255 212.797C208.068 214.665 204.834 216.46 201.56 218.18L224.538 248.591C221.263 250.35 217.945 252.034 214.59 253.64L191.548 223.143C188.134 224.737 184.683 226.246 181.205 227.67L204.319 258.262C200.812 259.74 197.272 261.132 193.707 262.432L170.518 231.74C166.853 233.033 163.166 234.23 159.462 235.324L182.733 266.123C178.96 267.284 175.167 268.339 171.362 269.287L148.004 238.372C144.041 239.311 140.068 240.131 136.095 240.827L159.55 271.87C155.446 272.64 151.335 273.277 147.23 273.778L123.671 242.598C119.309 243.075 114.959 243.397 110.631 243.556L134.311 274.896C131.866 275.019 129.427 275.091 126.995 275.109C124.852 275.125 122.737 275.098 120.652 275.032L96.8315 243.506C93.4357 243.351 90.0622 243.092 86.7182 242.721C85.1331 242.544 83.5675 242.342 82.0209 242.12L105.999 273.855C100.336 273.106 94.9362 272.03 89.8158 270.651L65.7084 238.746C58.8096 236.847 52.4015 234.433 46.5121 231.554L70.5971 263.43C65.6396 260.954 61.0776 258.121 56.9389 254.959L56.7387 255.142L55.6684 253.966C49.3699 248.945 44.0961 243.143 39.9467 236.681L22.5561 217.561L23.4487 216.748C29.2265 221.907 35.9689 226.386 43.6098 230.074C0.673546 207.288 -12.7465 158.784 15.0268 106.709ZM208.366 14.6327C141.673 7.22242 62.0097 49.2126 30.4321 108.421C-1.14564 167.629 27.3209 221.634 94.0131 229.044C160.705 236.454 240.368 194.464 271.946 135.256C303.523 76.0475 275.058 22.0429 208.366 14.6327Z" fill="url(#paint2_linear_224_357)"/>
<ellipse cx="138.6" cy="127.628" rx="138.6" ry="127.628" transform="matrix(1 0 -0.371391 0.928477 83.8 38)" fill="#19101B"/>
<ellipse cx="131.876" cy="125.233" rx="131.876" ry="125.233" transform="matrix(1 0 -0.371391 0.928477 67.021 7)" fill="#19101B"/>
<path d="M196.283 104.04C200.569 102.204 204.833 101.491 209.073 101.904L227.952 103.745L212.195 134.288L169.997 130.177L185.516 111.963C188.471 108.482 192.061 105.841 196.283 104.04Z" fill="url(#paint3_linear_224_357)"/>
<path fill-rule="evenodd" clip-rule="evenodd" d="M46.3344 110.187C73.7538 58.7763 142.927 22.3155 200.836 28.7498C258.746 35.1843 283.464 82.0779 256.044 133.489C228.625 184.9 159.452 221.361 101.542 214.927C43.6327 208.492 18.9151 161.599 46.3344 110.187ZM220.066 85.5838C195.227 83.2047 176.639 89.383 164.306 104.118L118.942 158.203C118.548 158.697 118.156 159.274 117.77 159.932C117.428 160.596 117.402 161.413 117.69 162.383C117.998 163.314 119.013 163.864 120.735 164.032L133.785 165.304C135.507 165.471 137.404 165.123 139.473 164.26C141.562 163.357 143.24 162.127 144.506 160.571L156.552 146.259L203.652 150.848L196.044 165.594C195.22 167.193 195.109 168.575 195.713 169.74C196.382 170.87 197.624 171.524 199.434 171.7L211.887 172.913C213.609 173.081 215.351 172.719 217.111 171.825C218.891 170.892 220.174 169.665 220.958 168.143L258.662 95.0604C259.406 93.6173 259.508 92.2952 258.967 91.0956C258.471 89.9004 257.405 89.2235 255.771 89.0643L220.066 85.5838ZM89.9321 72.4413C88.2215 72.2513 86.4499 72.6526 84.6196 73.6454C82.7892 74.6381 81.4686 75.8943 80.6586 77.4129L41.935 150.02C41.1255 151.539 41.0339 152.931 41.6596 154.196C42.3062 155.423 43.4853 156.131 45.1957 156.321L57.5649 157.696C59.2754 157.886 60.994 157.54 62.7182 156.659C64.5064 155.744 65.8058 154.528 66.6156 153.01L81.7563 124.621L95.9018 126.192C99.8495 126.631 102.687 128.019 104.414 130.356C106.162 132.654 107.359 135.943 108.004 140.222L110.893 157.806C111.18 159.446 112.019 160.921 113.411 162.23C113.516 162.325 113.623 162.415 113.73 162.504C113.667 161.617 113.8 160.631 114.332 159.598L114.379 159.509L114.43 159.421C114.89 158.637 115.391 157.887 115.944 157.194L115.98 157.149L116.017 157.105L134.259 135.355C133.604 132.102 132.494 129.024 130.926 126.124C129.333 123.101 127.233 121.156 124.628 120.289C129.229 119.851 133.384 118.683 137.091 116.785C140.842 114.892 144.641 112.385 148.489 109.265L175.01 87.8963C176.42 86.7331 177.366 85.7031 177.843 84.8075C178.715 83.1723 178.098 82.2377 175.993 82.0038L160.794 80.3143C156.782 79.9097 152.616 81.4485 148.297 84.9286L129.5 99.9168C124.647 103.791 120.251 106.499 116.316 108.042C112.424 109.589 108.547 110.148 104.687 109.72L90.5424 108.148L105.464 80.1688C106.274 78.6503 106.366 77.2577 105.741 75.992C105.159 74.7312 104.012 74.0054 102.301 73.8153L89.9321 72.4413Z" fill="url(#paint4_linear_224_357)"/>
<path fill-rule="evenodd" clip-rule="evenodd" d="M15.0268 106.709C50.6329 39.9475 140.459 -7.39957 215.66 0.955901C256.298 5.47123 284.347 25.3301 295.928 53.1659L306.016 71.3661C308.114 74.4557 309.947 77.7047 311.508 81.0956C315.429 87.4012 318.295 94.3188 320.022 101.736L301.638 77.4041C302.065 83.0983 301.921 88.9861 301.189 95.0252L321.871 122.398C321.657 127.431 320.987 132.615 319.839 137.925L298.364 109.501C297.244 113.68 295.851 117.91 294.181 122.181L316.07 151.151C315.335 153.233 314.532 155.331 313.655 157.442C312.888 159.286 312.074 161.12 311.216 162.943L289.073 133.636C288.517 134.744 287.944 135.856 287.351 136.968C286.058 139.391 284.692 141.788 283.26 144.158L305.576 173.693C303.632 177.045 301.538 180.352 299.305 183.609L276.874 153.922C274.694 157.013 272.396 160.049 269.992 163.028L292.508 192.829C290.2 195.752 287.782 198.629 285.258 201.45L262.673 171.557C260.19 174.284 257.616 176.953 254.958 179.562L277.602 209.531C275.011 212.117 272.334 214.649 269.577 217.124L246.879 187.084C244.142 189.502 241.333 191.859 238.456 194.152L261.205 224.26C258.374 226.554 255.472 228.791 252.508 230.964L229.706 200.786C226.74 202.924 223.714 204.995 220.637 206.998L243.495 237.25C240.44 239.275 237.331 241.237 234.171 243.127L211.255 212.797C208.068 214.665 204.834 216.46 201.56 218.18L224.538 248.591C221.263 250.35 217.945 252.034 214.59 253.64L191.548 223.143C188.134 224.737 184.683 226.246 181.205 227.67L204.319 258.262C200.812 259.74 197.272 261.132 193.707 262.432L170.518 231.74C166.853 233.033 163.166 234.23 159.462 235.324L182.733 266.123C178.96 267.284 175.167 268.339 171.362 269.287L148.004 238.372C144.041 239.311 140.068 240.131 136.095 240.827L159.55 271.87C155.446 272.64 151.335 273.277 147.23 273.778L123.671 242.598C119.309 243.075 114.959 243.397 110.631 243.556L134.311 274.896C131.866 275.019 129.427 275.091 126.995 275.109C124.852 275.125 122.737 275.098 120.652 275.032L96.8315 243.506C93.4357 243.351 90.0622 243.092 86.7182 242.721C85.1331 242.544 83.5675 242.342 82.0209 242.12L105.999 273.855C100.336 273.106 94.9362 272.03 89.8158 270.651L65.7084 238.746C58.8096 236.847 52.4015 234.433 46.5121 231.554L70.5971 263.43C65.6396 260.954 61.0776 258.121 56.9389 254.959L56.7387 255.142L55.6684 253.966C49.3699 248.945 44.0961 243.143 39.9467 236.681L22.5561 217.561L23.4487 216.748C29.2265 221.907 35.9689 226.386 43.6098 230.074C0.673546 207.288 -12.7465 158.784 15.0268 106.709ZM208.366 14.6327C141.673 7.22242 62.0097 49.2126 30.4321 108.421C-1.14564 167.629 27.3209 221.634 94.0131 229.044C160.705 236.454 240.368 194.464 271.946 135.256C303.523 76.0475 275.058 22.0429 208.366 14.6327Z" fill="url(#paint5_linear_224_357)"/>
<defs>
<linearGradient id="paint0_linear_224_357" x1="177.057" y1="-0.173102" x2="283.057" y2="240.327" gradientUnits="userSpaceOnUse">
<stop stop-color="#FFC561"/>
<stop offset="1" stop-color="#B444FF"/>
</linearGradient>
<linearGradient id="paint1_linear_224_357" x1="177.057" y1="-0.173102" x2="283.057" y2="240.327" gradientUnits="userSpaceOnUse">
<stop stop-color="#FFC561"/>
<stop offset="1" stop-color="#B444FF"/>
</linearGradient>
<linearGradient id="paint2_linear_224_357" x1="177.057" y1="-0.173102" x2="283.057" y2="240.327" gradientUnits="userSpaceOnUse">
<stop stop-color="#FFC561"/>
<stop offset="1" stop-color="#B444FF"/>
</linearGradient>
<linearGradient id="paint3_linear_224_357" x1="177.057" y1="-0.173102" x2="283.057" y2="240.327" gradientUnits="userSpaceOnUse">
<stop stop-color="#FFC561"/>
<stop offset="1" stop-color="#B444FF"/>
</linearGradient>
<linearGradient id="paint4_linear_224_357" x1="177.057" y1="-0.173102" x2="283.057" y2="240.327" gradientUnits="userSpaceOnUse">
<stop stop-color="#FFC561"/>
<stop offset="1" stop-color="#B444FF"/>
</linearGradient>
<linearGradient id="paint5_linear_224_357" x1="177.057" y1="-0.173102" x2="283.057" y2="240.327" gradientUnits="userSpaceOnUse">
<stop stop-color="#FFC561"/>
<stop offset="1" stop-color="#B444FF"/>
</linearGradient>
</defs>
</svg>
