<svg xmlns="http://www.w3.org/2000/svg" fill="none" viewBox="0 0 380 274"><path fill="#fff" d="M274 137c0 75.66-61.34 137-137 137S0 212.66 0 137 61.34 0 137 0s137 61.34 137 137Z"/><path fill="url(#a)" d="M137 0c66.75 0 122.35 47.73 134.52 110.93v24.72c0 .99.31 1.8.94 2.42.42.42.93.7 1.53.84a136.89 136.89 0 0 1-6.04 38.45 51.87 51.87 0 0 0-6.97 4.32v-3.46a3.27 3.27 0 0 0-3.35-3.4h-12.3a3.3 3.3 0 0 0-3.35 3.4v46.8A136.7 136.7 0 0 1 137 274C61.34 274 0 212.66 0 137S61.34 0 137 0Zm56.05 156.25c-20.58.04-32.73 7.18-36.47 21.42l-13.78 52.28c-.1.47-.18 1.02-.22 1.65 0 .62.31 1.35.94 2.2.62.8 1.64 1.2 3.07 1.2h10.82a6.7 6.7 0 0 0 4.06-1.43 6.58 6.58 0 0 0 2.47-3.73l3.68-13.84h39.05v13.84c0 1.5.47 2.74 1.43 3.73a5.17 5.17 0 0 0 3.73 1.43h10.32c1.43 0 2.66-.48 3.68-1.43a4.84 4.84 0 0 0 1.54-3.62v-68.6a5.2 5.2 0 0 0-1.37-3.56 4.22 4.22 0 0 0-3.35-1.54h-29.6Zm92.31 17.47c.99 0 1.8.32 2.42.98.66.63.99 1.41.99 2.37v8.34c0 1-.33 1.8-1 2.42-.62.62-1.42.93-2.4.93h-1.77l-8.45-.33c-4.95 0-9.67 2.71-14.17 8.13v35.09c0 .99-.33 1.8-.99 2.42a3.2 3.2 0 0 1-2.36.93h-12.3c-1 0-1.8-.31-2.42-.93a3.27 3.27 0 0 1-.93-2.42v-6.62a136.7 136.7 0 0 0 25.97-47.67c1.29-.65 2.55-1.2 3.8-1.67 3.47-1.32 8-1.97 13.61-1.97Zm27.18 2.47c1 0 1.8.33 2.42.99.62.62.93 1.4.93 2.36v52.11c0 .99-.33 1.8-.99 2.42a3.2 3.2 0 0 1-2.36.93h-12.3c-.99 0-1.8-.31-2.41-.93a3.27 3.27 0 0 1-.94-2.42v-52.11c0-1 .31-1.8.94-2.42a3.39 3.39 0 0 1 2.41-.93h12.3Zm48.55-21.04c6 0 10.2.22 12.57.66 2.38.44 3.88 1 4.5 1.65a3 3 0 0 1 .94 2.2v6.04c0 .99-.33 1.81-.99 2.47a3.2 3.2 0 0 1-2.36.93h-2.03l-7.58-.93c-7.28 0-12.03.99-14.22 2.97-2.2 1.94-3.3 5.98-3.3 12.13v.88h19.88c.93 0 1.7.29 2.3.87l.24.24c.58.6.87 1.37.87 2.3v6.53c0 .99-.33 1.8-1 2.41-.61.63-1.42.94-2.4.94h-19.89v34.21c0 .99-.33 1.8-.99 2.42a3.2 3.2 0 0 1-2.36.93h-12.3c-.99 0-1.8-.31-2.41-.93a3.27 3.27 0 0 1-.94-2.42v-48.38c0-10.21 2.33-17.44 6.98-21.7 4.64-4.27 12.81-6.42 24.49-6.42ZM206.67 171.8v28.67h-34.98l4.83-17.63a14.54 14.54 0 0 1 5.27-8.02 14.77 14.77 0 0 1 9.23-3.02h15.65Zm103.13-16.64c1.94 0 3.48.57 4.61 1.7 1.13 1.1 1.7 2.64 1.7 4.62v1.87c0 1.94-.56 3.47-1.7 4.6-1.1 1.14-2.64 1.71-4.61 1.71h-6.81a6.23 6.23 0 0 1-4.62-1.7 6.24 6.24 0 0 1-1.7-4.61v-1.87c0-1.94.55-3.48 1.65-4.61 1.14-1.14 2.7-1.7 4.67-1.7h6.8Zm-81.88-77.43c-10.69 0-18.9 2.63-24.6 7.9-5.71 5.24-8.57 13-8.57 23.29 0 10.25 2.86 18.01 8.57 23.28 5.7 5.27 13.91 7.9 24.6 7.9 10.73 0 18.95-2.63 24.66-7.9 5.7-5.27 8.56-13.03 8.56-23.28 0-10.29-2.85-18.05-8.56-23.29-5.72-5.27-13.93-7.9-24.66-7.9ZM115.07 60.14c-1.43 0-2.65.53-3.68 1.6a5.2 5.2 0 0 0-1.54 3.73v68.26a5.2 5.2 0 0 0 1.54 3.73 5.02 5.02 0 0 0 3.68 1.54h10.32c1.43 0 2.64-.48 3.63-1.43a4.84 4.84 0 0 0 1.54-3.62v-26.69h11.8a13 13 0 0 1 8.46 2.85c2.34 1.87 4.67 4.67 6.97 8.4l9.67 15.33c.91 1.43 2.2 2.65 3.84 3.68a9.07 9.07 0 0 0 4.61 1.48h12.58c1.9 0 2.86-.8 2.86-2.42 0-.77-.31-1.68-.94-2.74l-13.73-21.86a49.9 49.9 0 0 0-6.75-8.23c-2.53-2.53-5-4.05-7.41-4.56 3.44-.84 6.22-2.3 8.34-4.34a31.43 31.43 0 0 0 5.82-7.8l11.92-21.58a6.7 6.7 0 0 0 .93-3.02c0-1.54-.87-2.3-2.63-2.3H174.2c-3.33.03-5.97 1.8-7.9 5.32l-8.52 15.16c-2.2 3.91-4.52 6.75-6.97 8.5a14 14 0 0 1-8.46 2.64h-11.8v-26.3a5.2 5.2 0 0 0-1.54-3.73 4.76 4.76 0 0 0-3.63-1.6h-10.32Zm172.1 20.05c1 0 1.8.33 2.42.98.62.63.93 1.41.93 2.37v52.11c0 .99-.33 1.8-.99 2.42a3.2 3.2 0 0 1-2.36.93h-12.3c-.31 0-.6-.03-.88-.1l.01-1.9c0-8.91-.85-17.63-2.48-26.07v-27.4c0-.98.31-1.79.94-2.41a3.4 3.4 0 0 1 2.41-.93h12.3Zm56.18-2.47c7.14 0 12.94 2.17 17.4 6.53 4.48 4.32 6.7 10.95 6.7 19.88v31.52a3.29 3.29 0 0 1-3.4 3.35h-12.24c-.95 0-1.76-.31-2.42-.93a3.4 3.4 0 0 1-.93-2.42v-31.52c0-8.75-3.5-13.13-10.5-13.13-4.57 0-9.47 2.62-14.7 7.86v36.79a3.29 3.29 0 0 1-3.36 3.35h-12.3c-.95 0-1.76-.31-2.42-.93a3.39 3.39 0 0 1-.93-2.42V82.22a3.27 3.27 0 0 1 3.35-3.4h12.3c.95 0 1.74.32 2.36.98.66.63 1 1.43 1 2.42v3.46c6.29-5.31 12.99-7.96 20.1-7.96ZM227.92 90.18c4.9 0 8.5 1.48 10.76 4.45 2.3 2.96 3.46 7.7 3.46 14.22 0 6.52-1.15 11.28-3.46 14.28-2.27 3-5.85 4.5-10.76 4.5-4.87 0-8.44-1.5-10.7-4.5-2.28-3-3.41-7.76-3.41-14.28 0-6.51 1.13-11.26 3.4-14.22 2.27-2.97 5.84-4.45 10.71-4.45Zm56.5-31.03c1.95 0 3.48.57 4.62 1.7 1.13 1.1 1.7 2.64 1.7 4.62v1.87c0 1.94-.56 3.47-1.7 4.6-1.1 1.14-2.64 1.71-4.61 1.71h-6.81a6.23 6.23 0 0 1-4.62-1.7 6.23 6.23 0 0 1-1.7-4.61v-1.87c0-1.94.55-3.48 1.65-4.61 1.13-1.14 2.7-1.7 4.67-1.7h6.8Z"/><defs><linearGradient id="a" x1="128.65" x2="-118.89" y1="336.5" y2="-22.16" gradientUnits="userSpaceOnUse"><stop stop-color="#FFC370"/><stop offset=".96" stop-color="#B444FF"/></linearGradient></defs></svg>