<svg width="295" height="274" viewBox="0 0 295 274" fill="none" xmlns="http://www.w3.org/2000/svg">
<path d="M284 137C284 212.663 222.663 274 147 274C71.337 274 10 212.663 10 137C10 61.3375 71.337 0.000488281 147 0.000488281C222.663 0.000488281 284 61.3375 284 137Z" fill="white"/>
<path d="M147 0C192.981 0.000100229 233.669 22.6538 258.518 57.4072L224.311 57.9082C183.671 58.5756 159.868 73.0291 152.904 101.268L127.189 204.933C126.986 205.876 126.856 206.963 126.802 208.193C126.82 209.423 127.457 210.86 128.71 212.505C129.963 214.078 132 214.844 134.82 214.803L156.189 214.49C159.009 214.449 161.672 213.469 164.175 211.552C166.677 209.562 168.269 207.079 168.949 204.104L175.816 176.663L252.94 175.534L253.339 202.869C253.383 205.834 254.359 208.279 256.268 210.204C257.665 211.511 259.309 212.343 261.198 212.706C236.658 249.648 194.674 274.001 147 274.001C100.521 274.001 59.4498 250.854 34.68 215.46C36.0547 214.997 37.2925 214.237 38.3919 213.179C40.4164 211.226 41.4289 208.84 41.429 206.02V153.296H64.7532C71.2622 153.296 76.8317 155.176 81.4603 158.937C86.0889 162.625 90.6813 168.158 95.2376 175.535L114.33 205.802C116.138 208.622 118.67 211.046 121.924 213.071C122.166 213.216 122.407 213.355 122.647 213.489C121.812 211.947 121.202 210.191 121.174 208.276L121.171 208.11L121.179 207.945C121.244 206.482 121.401 205.069 121.686 203.747L121.704 203.662L121.725 203.577L132.066 161.889C128.345 156.313 124.062 151.132 119.213 146.353C114.223 141.362 109.34 138.361 104.567 137.349C111.365 135.685 116.861 132.828 121.056 128.778C125.323 124.728 129.156 119.593 132.555 113.373L156.097 70.7383C157.326 68.4241 157.942 66.4348 157.942 64.7715C157.941 61.7345 156.206 60.216 152.735 60.2158H127.674C121.093 60.2883 115.885 63.7956 112.052 70.7383L95.2376 100.681C90.8985 108.419 86.3056 114.024 81.4603 117.495C76.687 120.967 71.1175 122.704 64.7532 122.704H41.429V70.7383C41.4289 67.918 40.4167 65.4585 38.3919 63.3613C36.9548 61.8178 35.2817 60.8441 33.3743 60.4365C57.9912 23.9751 99.6962 0 147 0ZM31.2308 60.2158C31.9755 60.2158 32.69 60.2903 33.3743 60.4365C18.6165 82.2952 10.0003 108.642 10.0003 137.001C10.0004 166.185 19.1271 193.236 34.68 215.46C33.613 215.819 32.4633 216 31.2308 216H10.8353C8.01514 216 5.59249 214.988 3.56769 212.963C1.54278 210.866 0.53072 208.406 0.530579 205.586V70.7383C0.530711 67.9179 1.5428 65.4586 3.56769 63.3613C5.59249 61.2644 8.01513 60.216 10.8353 60.2158H31.2308ZM282.777 57.0527C285.452 57.0136 287.674 57.994 289.439 59.9932C291.276 61.9914 292.215 64.3285 292.254 67.0039L294.239 202.486C294.28 205.307 293.301 207.709 291.305 209.691C289.308 211.601 286.898 212.576 284.078 212.617L263.686 212.916C262.814 212.929 261.985 212.857 261.198 212.706C275.605 191.017 284 164.99 284 137.001C284 107.319 274.559 79.8419 258.518 57.4072L282.777 57.0527ZM252.491 144.835L183.393 145.847L192.429 110.887C194.14 104.208 197.534 98.8785 202.611 94.8984C207.759 90.845 213.804 88.7667 220.746 88.665L251.66 88.2129L252.491 144.835Z" fill="url(#paint0_linear_192_397)"/>
<defs>
<linearGradient id="paint0_linear_192_397" x1="164.273" y1="243.657" x2="21.6389" y2="-76.1346" gradientUnits="userSpaceOnUse">
<stop stop-color="#FFC370"/>
<stop offset="0.956731" stop-color="#B444FF"/>
</linearGradient>
</defs>
</svg>
