<svg width="78" height="78" viewBox="0 0 78 78" fill="none" xmlns="http://www.w3.org/2000/svg">
<path d="M38.5576 6.00488L39.0166 6.03613C41.2732 6.25324 42.9317 7.41121 43.959 8.40234C45.0373 9.44278 45.8118 10.6609 46.3643 11.6748C47.4701 13.7044 48.3567 16.1963 49.0625 18.3115C49.8489 20.6681 50.4163 22.5638 51.0605 24.3242C51.3324 25.067 51.5646 25.6248 51.7559 26.0264C52.1213 26.1741 52.6228 26.3515 53.2852 26.5557C54.9971 27.0835 56.8378 27.5297 59.1455 28.165C61.195 28.7293 63.6637 29.4585 65.6699 30.4375C66.6648 30.923 67.9406 31.6541 69.0293 32.7559C70.1786 33.9189 71.4669 35.8812 71.3682 38.54C71.2754 41.0342 70.0253 42.8488 68.9678 43.9434C67.9266 45.021 66.7076 45.7948 65.6934 46.3467C63.663 47.4514 61.1702 48.3367 59.0537 49.042C56.696 49.8277 54.7988 50.3952 53.0371 51.0391C52.292 51.3114 51.7325 51.5438 51.3301 51.7354C51.1827 52.0999 51.0065 52.5999 50.8027 53.2598C50.2746 54.9705 49.8293 56.8105 49.1934 59.1172C48.6287 61.1652 47.898 63.6321 46.918 65.6377C46.4319 66.6324 45.7003 67.9079 44.5977 68.9961C43.4334 70.1451 41.4714 71.4306 38.8154 71.332C36.3236 71.2395 34.5098 69.9918 33.4141 68.9346C32.3357 67.8941 31.5612 66.676 31.0088 65.6621C29.903 63.6325 29.0164 61.1406 28.3105 59.0254C27.5242 56.6689 26.9568 54.7731 26.3125 53.0127C26.0404 52.2692 25.8076 51.7112 25.6162 51.3096C25.2509 51.1619 24.7495 50.9852 24.0879 50.7812C22.3759 50.2534 20.5352 49.8072 18.2275 49.1719C16.1781 48.6076 13.7093 47.8784 11.7031 46.8994C10.7083 46.4139 9.43248 45.6828 8.34375 44.5811C7.19442 43.418 5.9061 41.4556 6.00488 38.7969L6.03613 38.3369C6.25383 36.0787 7.41388 34.4197 8.40527 33.3936C9.44645 32.3159 10.6654 31.5421 11.6797 30.9902C13.71 29.8855 16.2028 29.0002 18.3193 28.2949C20.6771 27.5092 22.5742 26.9417 24.3359 26.2979C25.0808 26.0256 25.6396 25.7921 26.042 25.6006C26.1894 25.2361 26.3667 24.7367 26.5703 24.0771C27.0985 22.3664 27.5437 20.5264 28.1797 18.2197C28.7443 16.1717 29.4751 13.7048 30.4551 11.6992C30.9411 10.7045 31.6727 9.42906 32.7754 8.34082C33.9033 7.22774 35.7796 5.98682 38.3105 6L38.5576 6.00488Z" fill="#FCBF68" stroke="#19101B" stroke-width="12" stroke-linecap="round" stroke-linejoin="round"/>
</svg>
