<?xml version="1.0" encoding="UTF-8" standalone="no"?>
<!-- Created with Inkscape (http://www.inkscape.org/) -->

<svg
   width="46.455963mm"
   height="68.848625mm"
   viewBox="0 0 46.455963 68.848625"
   version="1.1"
   id="svg1"
   xml:space="preserve"
   xmlns:xlink="http://www.w3.org/1999/xlink"
   xmlns="http://www.w3.org/2000/svg"
   xmlns:svg="http://www.w3.org/2000/svg"><defs
     id="defs1"><linearGradient
       id="linearGradient14"><stop
         style="stop-color:#ffc561;stop-opacity:1;"
         offset="0"
         id="stop14" /><stop
         style="stop-color:#b444ff;stop-opacity:1;"
         offset="1"
         id="stop15" /></linearGradient><linearGradient
       xlink:href="#linearGradient14"
       id="linearGradient15"
       x1="110.5898"
       y1="49.541275"
       x2="121.52152"
       y2="33.70137"
       gradientUnits="userSpaceOnUse" /></defs><g
     id="g38"
     style="display:inline"
     transform="translate(-92.634992,-37.059604)"><rect
       style="display:inline;fill:none;fill-opacity:1;fill-rule:evenodd;stroke:none;stroke-width:1.21473;stroke-linecap:round;stroke-linejoin:round;paint-order:stroke fill markers"
       id="rect2"
       width="46.455971"
       height="68.848625"
       x="92.634987"
       y="37.059605"
       ry="0.25377136" /><g
       id="g15"
       transform="translate(0.55753874,-9.3641691)"
       style="display:inline"><path
         id="path25"
         style="display:inline;fill:#19101b;fill-opacity:1;fill-rule:evenodd;stroke:#19101b;stroke-width:1.61668;stroke-linecap:round;stroke-linejoin:round;stroke-dasharray:none;stroke-opacity:1;paint-order:stroke fill markers"
         d="m 115.54911,29.221372 c -0.0953,0 -0.18988,0.0065 -0.28379,0.01925 v -0.0022 l -2.54044,0.424597 5.5e-4,0.044 c -2.26166,0.443281 -4.03642,4.762917 -4.03642,10.025889 0,5.401957 1.86997,9.809526 4.21682,10.052288 h 5.5e-4 l 1.78694,0.679796 c 0.004,0.0015 0.007,0.0029 0.0105,0.0044 l 0.0682,0.02585 v -0.0011 c 0.2529,0.09572 0.51231,0.147949 0.77714,0.147949 2.59861,2e-6 4.70522,-4.795 4.70522,-10.710085 0,-5.915085 -2.10661,-10.710636 -4.70522,-10.710634 z"
         transform="matrix(0.93957725,0,0,0.93957725,8.7138971,20.673626)" /><path
         id="path9"
         style="display:inline;fill:url(#linearGradient15);fill-opacity:1;fill-rule:evenodd;stroke-width:1.08455;stroke-linecap:round;stroke-linejoin:round;paint-order:stroke fill markers"
         d="m 115.54911,29.221372 c -0.0953,0 -0.18988,0.0065 -0.28379,0.01925 v -0.0022 l -2.54044,0.424597 5.5e-4,0.044 c -0.86027,0.168611 -1.64993,0.897863 -2.29844,2.026738 l 2.28414,-0.345398 c -0.11343,0.195542 -0.22273,0.402736 -0.3278,0.620396 l -2.26213,0.307998 c -0.23956,0.500495 -0.45434,1.060257 -0.64075,1.66924 l 2.21539,-0.202399 c -0.0576,0.186553 -0.1121,0.376965 -0.16445,0.571997 l -2.20494,0.168849 c -0.1335,0.501484 -0.24819,1.031835 -0.3421,1.58564 l 2.17964,-0.0693 c -0.0313,0.182506 -0.0605,0.367735 -0.0875,0.554947 l -2.17359,0.0363 c -0.0712,0.500977 -0.12557,1.019064 -0.16169,1.55099 l 2.16093,0.0605 c -0.0126,0.180904 -0.0234,0.363447 -0.0319,0.547246 l -2.15818,-0.09295 c -0.0153,0.340323 -0.0231,0.685591 -0.0231,1.035094 0,0.171151 0.002,0.341342 0.005,0.510397 l 2.15433,0.189198 c 0.004,0.184328 0.01,0.367116 0.0176,0.548897 L 108.71101,40.7603 c 0.0239,0.535573 0.0666,1.058991 0.12594,1.566391 l 2.15874,0.318448 c 0.0217,0.189207 0.0454,0.376568 0.0715,0.561546 l -2.16204,-0.351447 c 0.0807,0.563009 0.18265,1.104175 0.3036,1.61864 l 2.17634,0.450997 c 0.0464,0.199915 0.0952,0.396319 0.14685,0.588496 l -2.18239,-0.485097 c 0.17099,0.627685 0.37119,1.209555 0.59675,1.73524 l 2.20988,0.590146 c 0.0959,0.227082 0.19653,0.444578 0.30085,0.651746 l -2.22198,-0.626446 c 0.7247,1.412789 1.65266,2.300976 2.67023,2.406235 h 5.5e-4 l 1.53449,0.584097 0.14025,0.04565 0.002,5.5e-4 c 0.31187,0.148176 0.63515,0.226599 0.96634,0.226599 2.59861,2e-6 4.70522,-4.795 4.70522,-10.710085 0,-5.915085 -2.10661,-10.710636 -4.70522,-10.710634 z"
         transform="matrix(0.93957724,0,0,0.93957724,8.7138975,20.673626)" /><path
         id="path23"
         style="display:inline;fill:#19101b;fill-opacity:1;fill-rule:evenodd;stroke-width:0.935562;stroke-linecap:round;stroke-linejoin:round;paint-order:stroke fill markers"
         d="m 117.5964,49.047549 c -2.00439,3e-6 -3.6293,4.08374 -3.6293,9.121415 0,5.037672 1.62491,9.12188 3.6293,9.121883 2.0044,2e-6 3.6293,-4.084207 3.6293,-9.121883 0,-5.037677 -1.6249,-9.121417 -3.6293,-9.121415 z m 0,0.829093 c 1.6863,-2e-6 3.05319,3.712585 3.05319,8.292322 0,4.579736 -1.36689,8.292325 -3.05319,8.292322 -1.6863,-3e-6 -3.05362,-3.712589 -3.05362,-8.292322 0,-4.579732 1.36732,-8.29232 3.05362,-8.292322 z" /><path
         id="path5-4"
         style="display:inline;fill:#19101b;fill-opacity:1;stroke-width:0.00476405"
         d="m 101.0475,34.806251 -0.13291,-0.0399 c -0.10903,-0.03223 -0.18126,0.04765 -0.2041,0.24679 l -0.0894,0.775278 c -7.4e-4,0.0074 -7.9e-4,0.01551 -0.002,0.02513 4e-5,0.0094 0.002,0.01971 0.007,0.03071 0.004,0.0104 0.0118,0.01353 0.0216,0.0099 l 0.0709,-0.02638 c 0.009,-0.0033 0.0171,-0.01289 0.0249,-0.02901 0.008,-0.01649 0.0127,-0.03488 0.0148,-0.05633 l 0.0211,-0.195766 0.19999,-0.04223 2.5e-4,0.165327 c 2e-5,0.01791 0.002,0.03224 0.006,0.0425 0.004,0.0097 0.01,0.01325 0.0166,0.01083 l 0.0433,-0.01624 c 0.006,-0.0021 0.0106,-0.0093 0.0147,-0.02148 0.004,-0.01255 0.006,-0.02651 0.006,-0.0425 l -1.9e-4,-0.772965 c -1e-5,-0.01537 -0.002,-0.02965 -0.005,-0.0423 -0.003,-0.01264 -0.008,-0.01985 -0.0135,-0.02149 z m -0.96865,-0.299407 c -0.0174,-0.0057 -0.0326,-1.3e-5 -0.0454,0.01729 -0.0129,0.01753 -0.0195,0.04083 -0.0195,0.0699 l 2.1e-4,1.380717 c 1e-5,0.02871 0.006,0.05163 0.0194,0.06863 0.0127,0.01602 0.0278,0.02108 0.0451,0.01515 l 0.11838,-0.04065 c 0.0153,-0.0053 0.0282,-0.01842 0.0386,-0.03925 0.0111,-0.02157 0.016,-0.04503 0.016,-0.07087 l 4.5e-4,-0.484045 0.11522,-0.0086 c 0.03,-0.0022 0.0549,0.01192 0.0751,0.04169 0.0198,0.02862 0.039,0.07182 0.0576,0.129141 l 0.0742,0.22311 c 0.007,0.01973 0.0161,0.03559 0.028,0.04725 7.6e-4,8.57e-4 0.002,0.0017 0.002,0.0026 -0.003,-0.01089 -0.005,-0.02349 -0.005,-0.03818 l 0,-8.32e-4 0,-0.0016 c 2.7e-4,-0.01135 6e-4,-0.02249 0.002,-0.03291 l 3.9e-4,-1.13e-4 0,-8.31e-4 0.0377,-0.324024 c -0.013,-0.04087 -0.0281,-0.07984 -0.0457,-0.115677 -0.0185,-0.0382 -0.037,-0.06149 -0.0556,-0.06938 0.0263,-0.0132 0.0471,-0.03544 0.0626,-0.06648 0.0156,-0.03051 0.0294,-0.06885 0.0415,-0.114947 l 0.0796,-0.300116 c 0.004,-0.01557 0.006,-0.02931 0.006,-0.04129 6e-5,-0.02189 -0.005,-0.03459 -0.0166,-0.0383 l -0.0852,-0.02794 c -0.0238,-0.0072 -0.0432,0.01392 -0.0578,0.06424 l -0.0669,0.226048 c -0.0181,0.06105 -0.0374,0.105378 -0.0583,0.132594 -0.0209,0.02783 -0.046,0.04111 -0.0754,0.03943 l -0.11539,-0.0066 4.5e-4,-0.480488 c 2e-5,-0.02615 -0.005,-0.05062 -0.016,-0.07343 -0.0101,-0.02288 -0.0234,-0.03707 -0.0388,-0.04212 z m 0.90022,0.466479 4.5e-4,0.344981 -0.17683,0.01416 0.0266,-0.237009 c 0.005,-0.04439 0.0142,-0.07845 0.028,-0.102616 0.0138,-0.02419 0.0299,-0.03423 0.0477,-0.03128 z"
         transform="matrix(4.4073551,0,0,4.4073551,-325.3946,-97.39278)" /></g></g></svg>
