<?xml version="1.0" encoding="UTF-8" standalone="no"?>
<!-- Created with Inkscape (http://www.inkscape.org/) -->

<svg
   width="30.258623mm"
   height="40.917286mm"
   viewBox="0 0 30.258623 40.917286"
   version="1.1"
   id="svg1"
   xml:space="preserve"
   xmlns:xlink="http://www.w3.org/1999/xlink"
   xmlns="http://www.w3.org/2000/svg"
   xmlns:svg="http://www.w3.org/2000/svg"><defs
     id="defs1"><linearGradient
       id="linearGradient12"><stop
         style="stop-color:#b444ff;stop-opacity:1;"
         offset="0"
         id="stop12" /><stop
         style="stop-color:#ffc561;stop-opacity:1;"
         offset="1"
         id="stop13" /></linearGradient><linearGradient
       xlink:href="#linearGradient12"
       id="linearGradient80"
       gradientUnits="userSpaceOnUse"
       x1="99.542145"
       y1="34.102325"
       x2="101.22619"
       y2="36.008289" /></defs><g
     id="g6"
     transform="translate(-81.029906,-133.9723)"><g
       id="g539-1-3-0"
       transform="matrix(5.2370098,0,0,5.2276578,-433.40811,-43.151986)"
       style="display:inline;fill:#00ff00;stroke-width:0.87557"><path
         id="ellipse11-5-1-0"
         style="display:inline;fill:#19101b;fill-opacity:1;fill-rule:evenodd;stroke:#19101b;stroke-width:0.236755;stroke-linejoin:round;stroke-dasharray:none;stroke-dashoffset:0;stroke-opacity:1;paint-order:stroke fill markers"
         d="m 100.52153,34.119608 a 0.86320764,1.0699134 0 0 0 -0.862469,1.07013 0.86320764,1.0699134 0 0 0 0.862469,1.069791 v 4.51e-4 h 0.20462 v -0.0014 a 0.86320764,1.0699134 0 0 0 0.0876,-0.01173 0.86320764,1.0699134 0 0 0 0.0231,-0.0032 0.86320764,1.0699134 0 0 0 0.31201,-0.147654 l -0.002,3.38e-4 a 0.86320764,1.0699134 0 0 0 0.0738,-0.06407 l 0.002,-3.39e-4 a 0.86320764,1.0699134 0 0 0 0.13029,-0.156565 l -0.002,2.25e-4 a 0.86320764,1.0699134 0 0 0 0.0329,-0.05211 l 0.002,-2.26e-4 a 0.86320764,1.0699134 0 0 0 0.0691,-0.138066 l -10e-4,1.12e-4 a 0.86320764,1.0699134 0 0 0 0.0193,-0.0485 l 0.002,-1.13e-4 a 0.86320764,1.0699134 0 0 0 0.0398,-0.12972 h -0.001 a 0.86320764,1.0699134 0 0 0 0.0107,-0.04647 h 0.002 a 0.86320764,1.0699134 0 0 0 0.0201,-0.126674 h -0.001 a 0.86320764,1.0699134 0 0 0 0.004,-0.04535 h 0.002 a 0.86320764,1.0699134 0 0 0 0.004,-0.0987 0.86320764,1.0699134 0 0 0 0,-0.02741 l -0.002,-1.13e-4 a 0.86320764,1.0699134 0 0 0 -0.002,-0.04557 l 0.002,2.25e-4 a 0.86320764,1.0699134 0 0 0 -0.0134,-0.127689 l -0.002,-3.38e-4 a 0.86320764,1.0699134 0 0 0 -0.008,-0.04704 l 0.003,3.39e-4 a 0.86320764,1.0699134 0 0 0 -0.0326,-0.132314 l -0.003,-4.51e-4 a 0.86320764,1.0699134 0 0 0 0,-1.13e-4 0.86320764,1.0699134 0 0 0 -0.0164,-0.04952 l 0.003,4.51e-4 a 0.86320764,1.0699134 0 0 0 -0.061,-0.142015 l -0.003,-5.64e-4 v -1.12e-4 a 0.86320764,1.0699134 0 0 0 -0.0297,-0.05426 l 0.003,6.77e-4 a 0.86320764,1.0699134 0 0 0 -0.11833,-0.164913 l -0.004,-10e-4 a 0.86320764,1.0699134 0 0 0 -0.0681,-0.06926 l 0.004,10e-4 a 0.86320764,1.0699134 0 0 0 -0.29441,-0.173824 0.86320764,1.0699134 0 0 0 -0.0206,-0.0058 0.86320764,1.0699134 0 0 0 -0.0813,-0.0194 0.86320764,1.0699134 0 0 0 -0.0358,-0.0045 0.86320764,1.0699134 0 0 0 -0.0459,-0.0058 v -0.001 h -0.0356 -0.16796 z" /><path
         id="circle39-2-9-6"
         style="display:inline;fill:url(#linearGradient80);fill-rule:evenodd;stroke:none;stroke-width:0.342945;stroke-dasharray:none;stroke-dashoffset:0;stroke-opacity:1;paint-order:stroke fill markers"
         d="m 100.52155,34.119557 a 0.86320764,1.0699134 0 0 0 -0.862476,1.070219 0.86320764,1.0699134 0 0 0 0.862476,1.069702 v 5.17e-4 h 0.20464 v -0.0016 a 0.86320764,1.0699134 0 0 0 0.42272,-0.162264 l -0.22945,0.04341 a 0.86320764,1.0699134 0 0 0 0.0951,-0.0708 l 0.20825,-0.03669 a 0.86320764,1.0699134 0 0 0 0.13023,-0.15658 l -0.18604,0.02584 a 0.86320764,1.0699134 0 0 0 0.0372,-0.05529 l 0.1819,-0.02274 a 0.86320764,1.0699134 0 0 0 0.0692,-0.137976 l -0.17415,0.01499 a 0.86320764,1.0699134 0 0 0 0.0207,-0.05116 l 0.17311,-0.0124 a 0.86320764,1.0699134 0 0 0 0.0398,-0.129708 l -0.16949,0.0057 a 0.86320764,1.0699134 0 0 0 0.0114,-0.04858 l 0.16899,-0.0036 a 0.86320764,1.0699134 0 0 0 0.0201,-0.126607 l -0.16795,-0.0031 a 0.86320764,1.0699134 0 0 0 0.005,-0.04754 l 0.16743,0.0052 a 0.86320764,1.0699134 0 0 0 0.004,-0.0987 0.86320764,1.0699134 0 0 0 0,-0.02739 l -0.16846,-0.01137 a 0.86320764,1.0699134 0 0 0 -0.002,-0.04806 l 0.16898,0.01395 a 0.86320764,1.0699134 0 0 0 -0.0134,-0.127641 l -0.17157,-0.02067 a 0.86320764,1.0699134 0 0 0 -0.009,-0.04961 l 0.1726,0.02325 a 0.86320764,1.0699134 0 0 0 -0.0326,-0.132292 l -0.17828,-0.03101 a 0.86320764,1.0699134 0 0 0 -0.0186,-0.05219 l 0.18036,0.03359 a 0.86320764,1.0699134 0 0 0 -0.061,-0.14211 l -0.19121,-0.04289 a 0.86320764,1.0699134 0 0 0 -0.0351,-0.05839 l 0.19689,0.04703 a 0.86320764,1.0699134 0 0 0 -0.11834,-0.164848 l -0.22996,-0.06305 a 0.86320764,1.0699134 0 0 0 -5.1e-4,-5.17e-4 0.86320764,1.0699134 0 0 0 -0.10181,-0.08216 l 0.26407,0.07648 a 0.86320764,1.0699134 0 0 0 -0.47801,-0.20929 v -0.001 h -0.0357 -0.16795 z" /><path
         id="path5-7-8-1"
         style="display:inline;fill:#19101b;fill-opacity:1;stroke-width:0.00417125"
         d="m 101.071,34.853626 -0.28752,0.02255 c -0.18238,0.01462 -0.28356,0.08205 -0.3123,0.201728 l -0.10315,0.427006 c -8e-4,0.0038 -8.2e-4,0.0082 -0.002,0.01322 8e-5,0.0051 0.002,0.0112 0.007,0.01829 0.005,0.0068 0.0133,0.01048 0.0245,0.01113 l 0.0865,0.0049 c 0.0116,6.74e-4 0.0224,-0.0026 0.0329,-0.01 0.0105,-0.0077 0.0172,-0.01746 0.02,-0.0299 l 0.029,-0.115331 0.35288,0.0085 0.002,0.125299 c 2.2e-4,0.0136 0.005,0.02532 0.0145,0.03479 0.009,0.0091 0.0224,0.01425 0.0373,0.01512 l 0.10409,0.0059 c 0.0147,8.52e-4 0.027,-0.003 0.0375,-0.01124 0.0111,-0.0086 0.0158,-0.01959 0.0156,-0.03304 l -0.01,-0.644873 c -2.1e-4,-0.01272 -0.006,-0.02369 -0.0149,-0.0326 -0.009,-0.0089 -0.0207,-0.01273 -0.0346,-0.01164 z m -1.119202,0.08459 c -0.0092,5.73e-4 -0.01701,0.005 -0.02354,0.01314 -0.0065,0.0082 -0.0098,0.01744 -0.0098,0.02789 v 0.499138 c 0,0.01044 0.0032,0.01977 0.0098,0.028 0.0065,0.008 0.01438,0.01234 0.02354,0.01302 l 0.06785,0.005 c 0.009,7.03e-4 0.0176,-0.0023 0.0242,-0.009 0.007,-0.0069 0.0104,-0.01584 0.0104,-0.02661 v -0.201427 l 0.0811,0.0016 c 0.0232,4.45e-4 0.0432,0.0083 0.06,0.0234 0.017,0.01501 0.0338,0.03746 0.0507,0.06742 l 0.0722,0.125429 c 0.007,0.01192 0.0168,0.02242 0.0294,0.03155 8.1e-4,6.5e-4 0.002,0.0013 0.002,0.002 -0.003,-0.0066 -0.006,-0.01383 -0.006,-0.02163 v -4.42e-4 -8.55e-4 c 2.6e-4,-0.006 5.8e-4,-0.01182 0.002,-0.01713 l 4.2e-4,2.6e-5 v -4.41e-4 l 0.0404,-0.168734 c -0.0147,-0.02326 -0.0313,-0.04512 -0.0501,-0.06489 -0.0193,-0.02047 -0.0379,-0.03274 -0.0561,-0.03692 0.0259,-0.0066 0.047,-0.0181 0.0631,-0.03458 0.0166,-0.0166 0.0317,-0.03775 0.0451,-0.06347 l 0.0951,-0.180438 c 0.005,-0.01001 0.008,-0.01851 0.008,-0.0255 0,-0.01277 -0.007,-0.01872 -0.0214,-0.01781 l -0.10056,0.0063 c -0.0257,0.0019 -0.0458,0.01738 -0.0606,0.04633 l -0.0635,0.122788 c -0.0161,0.03119 -0.033,0.05372 -0.0507,0.06768 -0.0173,0.01385 -0.0374,0.02082 -0.06,0.02099 l -0.0811,6.14e-4 v -0.198515 c 0,-0.01078 -0.004,-0.01996 -0.0104,-0.02756 -0.006,-0.0076 -0.0147,-0.01108 -0.0242,-0.01048 z m 0.962182,0.06804 0.004,0.259052 -0.31821,9.36e-4 0.0397,-0.151334 c 0.007,-0.02912 0.0221,-0.05248 0.0448,-0.07053 0.0231,-0.01855 0.051,-0.02849 0.0829,-0.03014 z"
         transform="matrix(0.96203967,0,0,0.96203967,3.8017489,1.3108761)" /><path
         id="ellipse10-6-6-3"
         style="display:inline;fill:#19101b;fill-opacity:1;fill-rule:evenodd;stroke-width:0.621637;stroke-dasharray:0.621637, 0.621637"
         d="m 100.52259,34.212058 a 0.78879362,0.97767991 0 0 0 -0.789102,0.977718 0.78879362,0.97767991 0 0 0 0.789102,0.977718 0.78879362,0.97767991 0 0 0 0.78858,-0.977718 0.78879362,0.97767991 0 0 0 -0.78858,-0.977718 z m 0,0.08682 a 0.71875006,0.89086354 0 0 1 0.71882,0.890902 0.71875006,0.89086354 0 0 1 -0.71882,0.890902 0.71875006,0.89086354 0 0 1 -0.718822,-0.890902 0.71875006,0.89086354 0 0 1 0.718822,-0.890902 z" /></g></g></svg>
