<?xml version="1.0" encoding="UTF-8" standalone="no"?>
<!-- Created with Inkscape (http://www.inkscape.org/) -->

<svg
   width="32.667652mm"
   height="44.194832mm"
   viewBox="0 0 32.667652 44.194832"
   version="1.1"
   id="svg1"
   xml:space="preserve"
   xmlns:xlink="http://www.w3.org/1999/xlink"
   xmlns="http://www.w3.org/2000/svg"
   xmlns:svg="http://www.w3.org/2000/svg"><defs
     id="defs1"><linearGradient
       id="linearGradient12"><stop
         style="stop-color:#b444ff;stop-opacity:1;"
         offset="0"
         id="stop12" /><stop
         style="stop-color:#ffc561;stop-opacity:1;"
         offset="1"
         id="stop13" /></linearGradient><linearGradient
       xlink:href="#linearGradient12"
       id="linearGradient188"
       gradientUnits="userSpaceOnUse"
       x1="99.542145"
       y1="34.102325"
       x2="101.22619"
       y2="36.008289" /></defs><g
     id="g187"
     style="display:inline"
     transform="translate(-109.60629,-11.281059)"><path
       id="path169"
       style="display:inline;fill:#8929b6;fill-opacity:1;fill-rule:evenodd;stroke:#19101b;stroke-width:1.81822;stroke-dasharray:none;stroke-opacity:1;paint-order:stroke fill markers"
       d="m 128.05054,52.276578 c 0.22196,0.950191 -0.55591,1.94424 -1.73746,2.220265 -1.18155,0.276026 -2.31933,-0.270493 -2.54131,-1.220684 -0.22198,-0.950194 0.5559,-1.94424 1.73745,-2.220267 1.18154,-0.276025 2.31933,0.270493 2.54132,1.220686 z" /><path
       id="path170"
       style="display:inline;fill:#8929b6;fill-opacity:1;fill-rule:evenodd;stroke:#19101b;stroke-width:1.81822;stroke-dasharray:none;stroke-opacity:1;paint-order:stroke fill markers"
       d="m 134.91486,50.476103 c 0.50983,0.831996 0.0845,2.020388 -0.95015,2.654342 -1.03457,0.633954 -2.28655,0.473409 -2.79635,-0.358588 -0.50983,-0.831998 -0.0845,-2.020387 0.95013,-2.654341 1.03457,-0.633954 2.28654,-0.473411 2.79637,0.358587 z" /><g
       id="g183"
       transform="matrix(4.5812612,0,0,4.5812612,-337.42817,-131.69378)"
       style="display:inline"><path
         id="path180"
         style="display:inline;fill:#19101b;fill-opacity:1;fill-rule:evenodd;stroke:#19101b;stroke-width:0.270401;stroke-linejoin:round;stroke-dasharray:none;stroke-dashoffset:0;stroke-opacity:1;paint-order:stroke fill markers"
         d="m 100.52153,34.119608 a 0.86320764,1.0699134 0 0 0 -0.862469,1.07013 0.86320764,1.0699134 0 0 0 0.862469,1.069791 v 4.51e-4 h 0.20462 v -0.0014 a 0.86320764,1.0699134 0 0 0 0.0876,-0.01173 0.86320764,1.0699134 0 0 0 0.0231,-0.0032 0.86320764,1.0699134 0 0 0 0.31201,-0.147654 l -0.002,3.38e-4 a 0.86320764,1.0699134 0 0 0 0.0738,-0.06407 l 0.002,-3.39e-4 a 0.86320764,1.0699134 0 0 0 0.13029,-0.156565 l -0.002,2.25e-4 a 0.86320764,1.0699134 0 0 0 0.0329,-0.05211 l 0.002,-2.26e-4 a 0.86320764,1.0699134 0 0 0 0.0691,-0.138066 l -10e-4,1.12e-4 a 0.86320764,1.0699134 0 0 0 0.0193,-0.0485 l 0.002,-1.13e-4 a 0.86320764,1.0699134 0 0 0 0.0398,-0.12972 h -0.001 a 0.86320764,1.0699134 0 0 0 0.0107,-0.04647 h 0.002 a 0.86320764,1.0699134 0 0 0 0.0201,-0.126674 h -0.001 a 0.86320764,1.0699134 0 0 0 0.004,-0.04535 h 0.002 a 0.86320764,1.0699134 0 0 0 0.004,-0.0987 0.86320764,1.0699134 0 0 0 0,-0.02741 l -0.002,-1.13e-4 a 0.86320764,1.0699134 0 0 0 -0.002,-0.04557 l 0.002,2.25e-4 a 0.86320764,1.0699134 0 0 0 -0.0134,-0.127689 l -0.002,-3.38e-4 a 0.86320764,1.0699134 0 0 0 -0.008,-0.04704 l 0.003,3.39e-4 a 0.86320764,1.0699134 0 0 0 -0.0326,-0.132314 l -0.003,-4.51e-4 a 0.86320764,1.0699134 0 0 0 0,-1.13e-4 0.86320764,1.0699134 0 0 0 -0.0164,-0.04952 l 0.003,4.51e-4 a 0.86320764,1.0699134 0 0 0 -0.061,-0.142015 l -0.003,-5.64e-4 v -1.12e-4 a 0.86320764,1.0699134 0 0 0 -0.0297,-0.05426 l 0.003,6.77e-4 a 0.86320764,1.0699134 0 0 0 -0.11833,-0.164913 l -0.004,-10e-4 a 0.86320764,1.0699134 0 0 0 -0.0681,-0.06926 l 0.004,10e-4 a 0.86320764,1.0699134 0 0 0 -0.29441,-0.173824 0.86320764,1.0699134 0 0 0 -0.0206,-0.0058 0.86320764,1.0699134 0 0 0 -0.0813,-0.0194 0.86320764,1.0699134 0 0 0 -0.0358,-0.0045 0.86320764,1.0699134 0 0 0 -0.0459,-0.0058 v -0.001 h -0.0356 -0.16796 z" /><path
         id="path181"
         style="display:inline;fill:url(#linearGradient188);fill-rule:evenodd;stroke:none;stroke-width:0.391683;stroke-dasharray:none;stroke-dashoffset:0;stroke-opacity:1;paint-order:stroke fill markers"
         d="m 100.52155,34.119557 a 0.86320764,1.0699134 0 0 0 -0.862476,1.070219 0.86320764,1.0699134 0 0 0 0.862476,1.069702 v 5.17e-4 h 0.20464 v -0.0016 a 0.86320764,1.0699134 0 0 0 0.42272,-0.162264 l -0.22945,0.04341 a 0.86320764,1.0699134 0 0 0 0.0951,-0.0708 l 0.20825,-0.03669 a 0.86320764,1.0699134 0 0 0 0.13023,-0.15658 l -0.18604,0.02584 a 0.86320764,1.0699134 0 0 0 0.0372,-0.05529 l 0.1819,-0.02274 a 0.86320764,1.0699134 0 0 0 0.0692,-0.137976 l -0.17415,0.01499 a 0.86320764,1.0699134 0 0 0 0.0207,-0.05116 l 0.17311,-0.0124 a 0.86320764,1.0699134 0 0 0 0.0398,-0.129708 l -0.16949,0.0057 a 0.86320764,1.0699134 0 0 0 0.0114,-0.04858 l 0.16899,-0.0036 a 0.86320764,1.0699134 0 0 0 0.0201,-0.126607 l -0.16795,-0.0031 a 0.86320764,1.0699134 0 0 0 0.005,-0.04754 l 0.16743,0.0052 a 0.86320764,1.0699134 0 0 0 0.004,-0.0987 0.86320764,1.0699134 0 0 0 0,-0.02739 l -0.16846,-0.01137 a 0.86320764,1.0699134 0 0 0 -0.002,-0.04806 l 0.16898,0.01395 a 0.86320764,1.0699134 0 0 0 -0.0134,-0.127641 l -0.17157,-0.02067 a 0.86320764,1.0699134 0 0 0 -0.009,-0.04961 l 0.1726,0.02325 a 0.86320764,1.0699134 0 0 0 -0.0326,-0.132292 l -0.17828,-0.03101 a 0.86320764,1.0699134 0 0 0 -0.0186,-0.05219 l 0.18036,0.03359 a 0.86320764,1.0699134 0 0 0 -0.061,-0.14211 l -0.19121,-0.04289 a 0.86320764,1.0699134 0 0 0 -0.0351,-0.05839 l 0.19689,0.04703 a 0.86320764,1.0699134 0 0 0 -0.11834,-0.164848 l -0.22996,-0.06305 a 0.86320764,1.0699134 0 0 0 -5.1e-4,-5.17e-4 0.86320764,1.0699134 0 0 0 -0.10181,-0.08216 l 0.26407,0.07648 a 0.86320764,1.0699134 0 0 0 -0.47801,-0.20929 v -0.001 h -0.0357 -0.16795 z" /><path
         id="path182"
         style="display:inline;fill:#19101b;fill-opacity:1;stroke-width:0.00476405"
         d="m 101.071,34.853626 -0.28752,0.02255 c -0.18238,0.01462 -0.28356,0.08205 -0.3123,0.201728 l -0.10315,0.427006 c -8e-4,0.0038 -8.2e-4,0.0082 -0.002,0.01322 8e-5,0.0051 0.002,0.0112 0.007,0.01829 0.005,0.0068 0.0133,0.01048 0.0245,0.01113 l 0.0865,0.0049 c 0.0116,6.74e-4 0.0224,-0.0026 0.0329,-0.01 0.0105,-0.0077 0.0172,-0.01746 0.02,-0.0299 l 0.029,-0.115331 0.35288,0.0085 0.002,0.125299 c 2.2e-4,0.0136 0.005,0.02532 0.0145,0.03479 0.009,0.0091 0.0224,0.01425 0.0373,0.01512 l 0.10409,0.0059 c 0.0147,8.52e-4 0.027,-0.003 0.0375,-0.01124 0.0111,-0.0086 0.0158,-0.01959 0.0156,-0.03304 l -0.01,-0.644873 c -2.1e-4,-0.01272 -0.006,-0.02369 -0.0149,-0.0326 -0.009,-0.0089 -0.0207,-0.01273 -0.0346,-0.01164 z m -1.119202,0.08459 c -0.0092,5.73e-4 -0.01701,0.005 -0.02354,0.01314 -0.0065,0.0082 -0.0098,0.01744 -0.0098,0.02789 v 0.499138 c 0,0.01044 0.0032,0.01977 0.0098,0.028 0.0065,0.008 0.01438,0.01234 0.02354,0.01302 l 0.06785,0.005 c 0.009,7.03e-4 0.0176,-0.0023 0.0242,-0.009 0.007,-0.0069 0.0104,-0.01584 0.0104,-0.02661 v -0.201427 l 0.0811,0.0016 c 0.0232,4.45e-4 0.0432,0.0083 0.06,0.0234 0.017,0.01501 0.0338,0.03746 0.0507,0.06742 l 0.0722,0.125429 c 0.007,0.01192 0.0168,0.02242 0.0294,0.03155 8.1e-4,6.5e-4 0.002,0.0013 0.002,0.002 -0.003,-0.0066 -0.006,-0.01383 -0.006,-0.02163 v -4.42e-4 -8.55e-4 c 2.6e-4,-0.006 5.8e-4,-0.01182 0.002,-0.01713 l 4.2e-4,2.6e-5 v -4.41e-4 l 0.0404,-0.168734 c -0.0147,-0.02326 -0.0313,-0.04512 -0.0501,-0.06489 -0.0193,-0.02047 -0.0379,-0.03274 -0.0561,-0.03692 0.0259,-0.0066 0.047,-0.0181 0.0631,-0.03458 0.0166,-0.0166 0.0317,-0.03775 0.0451,-0.06347 l 0.0951,-0.180438 c 0.005,-0.01001 0.008,-0.01851 0.008,-0.0255 0,-0.01277 -0.007,-0.01872 -0.0214,-0.01781 l -0.10056,0.0063 c -0.0257,0.0019 -0.0458,0.01738 -0.0606,0.04633 l -0.0635,0.122788 c -0.0161,0.03119 -0.033,0.05372 -0.0507,0.06768 -0.0173,0.01385 -0.0374,0.02082 -0.06,0.02099 l -0.0811,6.14e-4 v -0.198515 c 0,-0.01078 -0.004,-0.01996 -0.0104,-0.02756 -0.006,-0.0076 -0.0147,-0.01108 -0.0242,-0.01048 z m 0.962182,0.06804 0.004,0.259052 -0.31821,9.36e-4 0.0397,-0.151334 c 0.007,-0.02912 0.0221,-0.05248 0.0448,-0.07053 0.0231,-0.01855 0.051,-0.02849 0.0829,-0.03014 z"
         transform="matrix(0.96203967,0,0,0.96203967,3.8017489,1.3108761)" /><path
         id="path183"
         style="display:inline;fill:#19101b;fill-opacity:1;fill-rule:evenodd;stroke-width:0.709982;stroke-dasharray:0.709982, 0.709982"
         d="m 100.52259,34.212058 a 0.78879362,0.97767991 0 0 0 -0.789102,0.977718 0.78879362,0.97767991 0 0 0 0.789102,0.977718 0.78879362,0.97767991 0 0 0 0.78858,-0.977718 0.78879362,0.97767991 0 0 0 -0.78858,-0.977718 z m 0,0.08682 a 0.71875006,0.89086354 0 0 1 0.71882,0.890902 0.71875006,0.89086354 0 0 1 -0.71882,0.890902 0.71875006,0.89086354 0 0 1 -0.718822,-0.890902 0.71875006,0.89086354 0 0 1 0.718822,-0.890902 z" /></g><path
       id="path191"
       style="display:inline;fill:#ca6ad1;fill-opacity:1;fill-rule:evenodd;stroke:none;stroke-width:1.20071;stroke-linecap:round;stroke-linejoin:round;stroke-dasharray:none;stroke-opacity:1;paint-order:stroke fill markers"
       d="m 133.60802,15.509894 c -6.84407,-3.19361 -14.68627,-1.108691 -18.97417,5.81757 0.62612,-0.09417 0.85495,0.409213 1.4006,0.649377 4.74364,2.088489 5.66087,3.779459 5.1127,6.299193 1.57392,-1.888157 3.76742,-1.993901 8.256,0.221423 1.52906,0.754669 2.48761,2.348629 2.30178,4.79301 1.57631,-1.960299 3.61362,-2.296357 8.17863,-0.04331 0.54112,0.267075 0.75763,0.262772 1.08913,0.812613 2.63455,-7.767 -0.47494,-15.33509 -7.36466,-18.549918 z" /><path
       d="m 133.50175,15.76584 c 6.80251,3.266466 9.97427,11.160779 7.44917,18.106072 -0.69641,-0.586077 -1.70208,-1.072054 -2.69678,-1.439203 -2.64229,-0.974147 -5.38793,-0.654848 -6.4685,0.716389 m 1.71587,-17.38294 c -6.80238,-3.266413 -14.88173,-0.774707 -18.72318,5.538496 m 18.72318,-5.538496 0.62993,-1.311896 m -19.31214,6.869669 c 0.89281,0.177048 1.90088,0.658034 2.80939,1.204777 2.4124,1.453044 3.87991,3.795432 3.48541,5.496111 m 0.21013,-0.348123 c 1.45505,-1.183011 4.22327,-1.201239 6.508,-0.104147 m 0,0 c 2.28484,1.097143 4.0012,3.268992 3.98754,5.143465 m -3.98754,-5.143465 -4.72452,9.838941 c -0.86967,1.81122 -3.04309,2.574605 -4.85443,1.704835 -1.81121,-0.869717 -2.57461,-3.043109 -1.7048,-4.854487 l 0.31493,-0.65596 m 16.8582,-17.734452 c 1.46842,4.935306 1.01669,11.060465 -1.41759,16.129891 m 0.9776,-16.341177 c -4.76974,1.939813 -9.262,6.177591 -11.69625,11.246994"
       stroke="#000000"
       stroke-width="0.105198"
       stroke-linecap="round"
       stroke-linejoin="round"
       id="path1-1"
       style="display:inline;fill:none;stroke:#19101b;stroke-width:0.92;stroke-dasharray:none;stroke-opacity:1" /><path
       id="path171"
       style="display:inline;fill:#bc36d9;fill-opacity:1;fill-rule:evenodd;stroke:#19101b;stroke-width:1.81819;stroke-linecap:round;stroke-linejoin:round;stroke-dasharray:none;stroke-dashoffset:0;stroke-opacity:1;paint-order:stroke markers fill"
       d="m 115.00254,32.81505 a 2.5713059,2.5713059 0 0 0 -0.95881,0.191774 2.5713059,2.5713059 0 0 0 -1.59565,2.324817 2.5713059,2.5713059 0 0 0 1.49385,2.391106 c -0.001,-0.0716 3.8e-4,-0.155942 0.002,-0.25096 0.0216,-1.023771 1.86024,-3.546406 2.80777,-3.934672 0.0128,-0.005 0.0257,-0.0091 0.038,-0.01411 a 2.5713059,2.5713059 0 0 0 -1.78741,-0.707864 z" /><path
       d="m 115.48852,36.397956 1.87111,10.752899 c 0.34448,1.979439 -0.98094,3.863516 -2.96053,4.207986 -1.97946,0.344451 -3.86354,-0.980946 -4.20801,-2.960593 l -0.1248,-0.716854"
       stroke="#000000"
       stroke-width="0.105198"
       stroke-linecap="round"
       stroke-linejoin="round"
       id="path74"
       style="display:inline;fill:none;stroke:#19101b;stroke-width:0.92;stroke-dasharray:none;stroke-opacity:1"
       transform="translate(1.0833333e-6)" /><path
       id="path174"
       style="display:inline;fill:#bc36d9;fill-opacity:1;fill-rule:evenodd;stroke:#19101b;stroke-width:1.81822;stroke-dasharray:none;stroke-opacity:1;paint-order:stroke fill markers"
       d="m 117.55099,50.3024 c -0.80085,0.897549 -2.35483,0.817868 -3.47091,-0.17798 -1.11608,-0.99584 -1.37163,-2.530741 -0.57077,-3.42829 0.80085,-0.897549 2.35484,-0.817861 3.47091,0.17798 1.11609,0.995847 1.37163,2.53074 0.57077,3.42829 z" /><path
       id="path173"
       style="display:inline;fill:#ca6ad1;fill-opacity:1;fill-rule:evenodd;stroke:#19101b;stroke-width:1.81819;stroke-linejoin:round;stroke-dasharray:none;stroke-dashoffset:0;stroke-opacity:1;paint-order:stroke markers fill"
       d="m 123.54423,31.830196 a 9.6959666,9.6959666 0 0 0 -9.69463,9.694637 9.6959666,9.6959666 0 0 0 7.69889,9.488665 v 0.0023 l 0.0355,0.0048 a 9.6959666,9.6959666 0 0 0 0.99432,0.151525 l 2.92614,0.447443 0.23912,0.03788 a 8.7317271,8.7317271 0 0 0 1.64537,0.168098 8.7317271,8.7317271 0 0 0 8.73108,-8.731089 8.7317271,8.7317271 0 0 0 -3.99385,-7.336676 l -2.384,-1.687978 a 9.6959666,9.6959666 0 0 0 -0.0307,-0.02368 9.6959666,9.6959666 0 0 0 -1.17897,-0.8357 9.6959666,9.6959666 0 0 0 -0.007,-0.0048 l -0.0662,-0.04735 -0.002,0.0071 a 9.6959666,9.6959666 0 0 0 -4.91243,-1.335232 z" /><path
       id="path175"
       style="display:inline;fill:#bc36d9;fill-opacity:1;fill-rule:evenodd;stroke:#19101b;stroke-width:1.8182;stroke-linecap:round;stroke-linejoin:round;stroke-dasharray:none;stroke-dashoffset:0;stroke-opacity:1;paint-order:stroke markers fill"
       d="m 125.39472,52.049954 c -0.23896,1.232613 -1.66884,1.989749 -3.19372,1.691124 -1.5249,-0.298644 -2.56736,-1.540008 -2.32841,-2.772637 0.23896,-1.232614 1.66884,-1.98976 3.19373,-1.691126 1.5249,0.298646 2.56736,1.540009 2.3284,2.772639 z" /><path
       id="path176"
       style="display:inline;fill:#bc36d9;fill-opacity:1;fill-rule:evenodd;stroke:#19101b;stroke-width:1.81819;stroke-linecap:round;stroke-linejoin:round;stroke-dasharray:none;stroke-dashoffset:0;stroke-opacity:1;paint-order:stroke markers fill"
       d="m 127.4797,29.901719 a 2.670535,2.670535 0 0 1 1.01376,0.06024 2.670535,2.670535 0 0 1 1.97375,2.163488 2.670535,2.670535 0 0 1 -1.19497,2.67327 c -0.009,-0.07381 -0.0228,-0.160335 -0.0385,-0.257787 -0.16846,-1.050072 -2.42054,-3.382332 -3.45076,-3.646309 -0.0137,-0.0032 -0.0275,-0.0059 -0.0412,-0.0091 a 2.670535,2.670535 0 0 1 1.73757,-0.983666 z" /><g
       id="g178"
       style="display:inline;fill:#c44fd1;fill-opacity:1"
       transform="matrix(3.9502304,-2.320266,2.320266,3.9502304,-342.55068,103.49144)"><rect
         style="fill:#bc36d9;fill-opacity:1;fill-rule:evenodd;stroke-width:0.865;stroke-dasharray:0.865, 0.865"
         id="rect176"
         width="1.8024739"
         height="0.82682288"
         x="92.918358"
         y="39.298889"
         ry="0.3156108"
         rx="0.3156108" /><rect
         style="fill:#8929b6;fill-opacity:1;fill-rule:evenodd;stroke-width:0.21629;stroke-dasharray:0.21629, 0.21629"
         id="rect177"
         width="0.5037694"
         height="0.18496683"
         x="39.478928"
         y="-93.639229"
         ry="0.070604645"
         transform="rotate(90)"
         rx="0.070604645" /><rect
         style="fill:#8929b6;fill-opacity:1;fill-rule:evenodd;stroke-width:0.21629;stroke-dasharray:0.21629, 0.21629"
         id="rect178"
         width="0.5037694"
         height="0.18496683"
         x="39.478928"
         y="-94.189064"
         ry="0.070604645"
         transform="rotate(90)"
         rx="0.070604645" /></g><path
       style="fill:#8929b6;fill-opacity:1;fill-rule:evenodd;stroke-width:3.9628;stroke-dasharray:3.9628, 3.9628"
       d="m 116.50002,40.446821 c 0.0617,-0.402511 0.34767,-1.291985 1.36682,-1.466082 1.14819,-0.196123 1.75822,0.810966 1.52589,0.975338 -0.25618,0.18128 -0.37685,-0.176887 -0.65262,-0.376993 -0.29696,-0.215451 -0.81553,-0.239509 -1.06192,-0.11797 -0.37795,0.186448 -0.68229,0.56077 -0.75268,1.057443 -0.0615,0.432515 -0.48001,0.476436 -0.42551,-0.07183 z"
       id="path178" /><path
       style="display:inline;fill:#8929b6;fill-opacity:1;fill-rule:evenodd;stroke-width:3.9628;stroke-dasharray:3.9628, 3.9628"
       d="m 122.22713,38.237664 c 0.0617,-0.402511 0.34767,-1.291985 1.36682,-1.466082 1.14818,-0.196123 1.75821,0.810965 1.52589,0.975337 -0.25618,0.18128 -0.37685,-0.176886 -0.65262,-0.376993 -0.29696,-0.21545 -0.81553,-0.239509 -1.06192,-0.117969 -0.37795,0.186447 -0.68229,0.56077 -0.75268,1.057443 -0.0615,0.432515 -0.48001,0.476436 -0.42551,-0.07185 z"
       id="path179" /><g
       id="g186"
       transform="translate(30.691666,5.6885415)"><path
         style="fill:#e79c93;fill-opacity:1;fill-rule:evenodd;stroke:none;stroke-width:1.43744;stroke-linecap:round;stroke-linejoin:round;stroke-dasharray:none;stroke-dashoffset:0;stroke-opacity:1;paint-order:stroke fill markers"
         id="path184"
         d="m 83.489623,21.469179 c -0.563985,-0.02094 -0.85312,-2.13245 -1.257416,-2.52623 -0.381944,-0.372009 -2.459429,-0.541869 -2.439647,-1.074674 0.02094,-0.563985 2.132451,-0.85312 2.52623,-1.257415 0.37201,-0.381944 0.54187,-2.459429 1.074675,-2.439647 0.563984,0.02094 0.85312,2.13245 1.257415,2.52623 0.381944,0.372009 2.459429,0.54187 2.439647,1.074674 -0.02094,0.563985 -2.132451,0.85312 -2.52623,1.257416 -0.372009,0.381944 -0.54187,2.459429 -1.074674,2.439646 z"
         transform="matrix(0.87664454,0,0,0.87664454,9.4749971,4.142677)" /><path
         style="fill:#da83b8;fill-opacity:1;fill-rule:evenodd;stroke:none;stroke-width:3.22421;stroke-linecap:round;stroke-linejoin:round;stroke-dasharray:none;stroke-dashoffset:0;stroke-opacity:1;paint-order:stroke fill markers"
         id="path186"
         d="m 83.489623,21.469179 c -0.563985,-0.02094 -0.85312,-2.13245 -1.257416,-2.52623 -0.381944,-0.372009 -2.459429,-0.541869 -2.439647,-1.074674 0.02094,-0.563985 2.132451,-0.85312 2.52623,-1.257415 0.37201,-0.381944 0.54187,-2.459429 1.074675,-2.439647 0.563984,0.02094 0.85312,2.13245 1.257415,2.52623 0.381944,0.372009 2.459429,0.54187 2.439647,1.074674 -0.02094,0.563985 -2.132451,0.85312 -2.52623,1.257416 -0.372009,0.381944 -0.54187,2.459429 -1.074674,2.439646 z"
         transform="matrix(0.58147103,0,0,0.58147103,58.175462,20.339267)" /><path
         style="fill:#ffc561;fill-opacity:1;fill-rule:evenodd;stroke:none;stroke-width:3.22421;stroke-linecap:round;stroke-linejoin:round;stroke-dasharray:none;stroke-dashoffset:0;stroke-opacity:1;paint-order:stroke fill markers"
         id="path194"
         d="m 83.489623,21.469179 c -0.563985,-0.02094 -0.85312,-2.13245 -1.257416,-2.52623 -0.381944,-0.372009 -2.459429,-0.541869 -2.439647,-1.074674 0.02094,-0.563985 2.132451,-0.85312 2.52623,-1.257415 0.37201,-0.381944 0.54187,-2.459429 1.074675,-2.439647 0.563984,0.02094 0.85312,2.13245 1.257415,2.52623 0.381944,0.372009 2.459429,0.54187 2.439647,1.074674 -0.02094,0.563985 -2.132451,0.85312 -2.52623,1.257416 -0.372009,0.381944 -0.54187,2.459429 -1.074674,2.439646 z"
         transform="matrix(0.69824877,0,0,0.69824877,44.340438,1.4684906)" /></g><path
       id="path195"
       style="fill:#bc36d9;fill-opacity:1;fill-rule:evenodd;stroke:none;stroke-width:1.05118;stroke-linecap:round;stroke-linejoin:round;stroke-dasharray:none;stroke-opacity:1;paint-order:stroke fill markers"
       d="m 114.09428,15.327508 c -0.41291,0.016 -0.97809,1.368596 -0.9989,1.842265 a 1.1017157,1.1017157 0 0 0 -0.0258,0.238228 1.1017157,1.1017157 0 0 0 1.10174,1.101742 1.1017157,1.1017157 0 0 0 1.10174,-1.101742 1.1017157,1.1017157 0 0 0 -0.0377,-0.284737 c -0.0247,-0.43567 -0.71702,-1.812183 -1.14102,-1.795756 z" /><path
       id="path197"
       style="fill:#bc36d9;fill-opacity:1;fill-rule:evenodd;stroke:none;stroke-width:1.47345;stroke-linecap:round;stroke-linejoin:round;stroke-dasharray:none;stroke-opacity:1;paint-order:stroke fill markers"
       d="m 116.71316,11.28126 c -0.57879,0.02243 -1.37101,1.918381 -1.40018,2.58233 a 1.5442911,1.5442911 0 0 0 -0.0362,0.333927 1.5442911,1.5442911 0 0 0 1.54432,1.544328 1.5442911,1.5442911 0 0 0 1.54433,-1.544328 1.5442911,1.5442911 0 0 0 -0.0528,-0.39912 c -0.0346,-0.610685 -1.00506,-2.540163 -1.59939,-2.517137 z" /><path
       id="path198"
       style="fill:#bc36d9;fill-opacity:1;fill-rule:evenodd;stroke:none;stroke-width:1.05118;stroke-linecap:round;stroke-linejoin:round;stroke-dasharray:none;stroke-opacity:1;paint-order:stroke fill markers"
       d="m 138.91126,25.904865 c -0.41291,0.016 -0.97809,1.368596 -0.9989,1.842265 a 1.1017157,1.1017157 0 0 0 -0.0258,0.238228 1.1017157,1.1017157 0 0 0 1.10174,1.101742 1.1017157,1.1017157 0 0 0 1.10174,-1.101742 1.1017157,1.1017157 0 0 0 -0.0377,-0.284737 c -0.0247,-0.43567 -0.71702,-1.812183 -1.14102,-1.795756 z" /><path
       id="path199"
       style="fill:#bc36d9;fill-opacity:1;fill-rule:evenodd;stroke:none;stroke-width:1.05118;stroke-linecap:round;stroke-linejoin:round;stroke-dasharray:none;stroke-opacity:1;paint-order:stroke fill markers"
       d="m 138.851,38.379676 c -0.41291,0.016 -0.97809,1.368596 -0.9989,1.842265 a 1.1017157,1.1017157 0 0 0 -0.0258,0.238228 1.1017157,1.1017157 0 0 0 1.10174,1.101742 1.1017157,1.1017157 0 0 0 1.10174,-1.101742 1.1017157,1.1017157 0 0 0 -0.0377,-0.284737 c -0.0247,-0.43567 -0.71702,-1.812183 -1.14102,-1.795756 z" /></g><style
     type="text/css"
     id="style1">

<![CDATA[
	.st0{fill-rule:evenodd;clip-rule:evenodd;}
]]>

</style></svg>
