<?xml version="1.0" encoding="UTF-8" standalone="no"?>
<!-- Created with Inkscape (http://www.inkscape.org/) -->

<svg
   width="55.480278mm"
   height="44.889252mm"
   viewBox="0 0 55.480278 44.889252"
   version="1.1"
   id="svg1"
   xml:space="preserve"
   xmlns:xlink="http://www.w3.org/1999/xlink"
   xmlns="http://www.w3.org/2000/svg"
   xmlns:svg="http://www.w3.org/2000/svg"><defs
     id="defs1"><linearGradient
       id="linearGradient12"><stop
         style="stop-color:#b444ff;stop-opacity:1;"
         offset="0"
         id="stop12" /><stop
         style="stop-color:#ffc561;stop-opacity:1;"
         offset="1"
         id="stop13" /></linearGradient><linearGradient
       xlink:href="#linearGradient12"
       id="linearGradient149"
       gradientUnits="userSpaceOnUse"
       x1="99.542145"
       y1="34.102325"
       x2="101.22619"
       y2="36.008289" /></defs><g
     id="g143"
     style="display:inline"
     transform="translate(-30.228955,-79.275046)"><rect
       style="display:none;fill:#00ff00;fill-rule:evenodd;stroke-width:1.06561;stroke-linecap:round;stroke-linejoin:round;paint-order:stroke fill markers"
       id="rect119"
       width="43.590103"
       height="33.998959"
       x="42.597916"
       y="90.950523"
       ry="0.22091302"
       rx="0.22091302" /><g
       id="g132"
       transform="matrix(4.0930658,0,0,4.0999995,-340.39638,-47.745415)"
       style="display:inline;stroke-width:1.11833"><path
         id="path129"
         style="display:inline;fill:#19101b;fill-opacity:1;fill-rule:evenodd;stroke:#19101b;stroke-width:0.302397;stroke-linejoin:round;stroke-dasharray:none;stroke-dashoffset:0;stroke-opacity:1;paint-order:stroke fill markers"
         d="m 100.52153,34.119608 a 0.86320764,1.0699134 0 0 0 -0.862469,1.07013 0.86320764,1.0699134 0 0 0 0.862469,1.069791 v 4.51e-4 h 0.20462 v -0.0014 a 0.86320764,1.0699134 0 0 0 0.0876,-0.01173 0.86320764,1.0699134 0 0 0 0.0231,-0.0032 0.86320764,1.0699134 0 0 0 0.31201,-0.147654 l -0.002,3.38e-4 a 0.86320764,1.0699134 0 0 0 0.0738,-0.06407 l 0.002,-3.39e-4 a 0.86320764,1.0699134 0 0 0 0.13029,-0.156565 l -0.002,2.25e-4 a 0.86320764,1.0699134 0 0 0 0.0329,-0.05211 l 0.002,-2.26e-4 a 0.86320764,1.0699134 0 0 0 0.0691,-0.138066 l -10e-4,1.12e-4 a 0.86320764,1.0699134 0 0 0 0.0193,-0.0485 l 0.002,-1.13e-4 a 0.86320764,1.0699134 0 0 0 0.0398,-0.12972 h -0.001 a 0.86320764,1.0699134 0 0 0 0.0107,-0.04647 h 0.002 a 0.86320764,1.0699134 0 0 0 0.0201,-0.126674 h -0.001 a 0.86320764,1.0699134 0 0 0 0.004,-0.04535 h 0.002 a 0.86320764,1.0699134 0 0 0 0.004,-0.0987 0.86320764,1.0699134 0 0 0 0,-0.02741 l -0.002,-1.13e-4 a 0.86320764,1.0699134 0 0 0 -0.002,-0.04557 l 0.002,2.25e-4 a 0.86320764,1.0699134 0 0 0 -0.0134,-0.127689 l -0.002,-3.38e-4 a 0.86320764,1.0699134 0 0 0 -0.008,-0.04704 l 0.003,3.39e-4 a 0.86320764,1.0699134 0 0 0 -0.0326,-0.132314 l -0.003,-4.51e-4 a 0.86320764,1.0699134 0 0 0 0,-1.13e-4 0.86320764,1.0699134 0 0 0 -0.0164,-0.04952 l 0.003,4.51e-4 a 0.86320764,1.0699134 0 0 0 -0.061,-0.142015 l -0.003,-5.64e-4 v -1.12e-4 a 0.86320764,1.0699134 0 0 0 -0.0297,-0.05426 l 0.003,6.77e-4 a 0.86320764,1.0699134 0 0 0 -0.11833,-0.164913 l -0.004,-10e-4 a 0.86320764,1.0699134 0 0 0 -0.0681,-0.06926 l 0.004,10e-4 a 0.86320764,1.0699134 0 0 0 -0.29441,-0.173824 0.86320764,1.0699134 0 0 0 -0.0206,-0.0058 0.86320764,1.0699134 0 0 0 -0.0813,-0.0194 0.86320764,1.0699134 0 0 0 -0.0358,-0.0045 0.86320764,1.0699134 0 0 0 -0.0459,-0.0058 v -0.001 h -0.0356 -0.16796 z" /><path
         id="path130"
         style="display:inline;fill:url(#linearGradient149);fill-rule:evenodd;stroke:none;stroke-width:0.43803;stroke-dasharray:none;stroke-dashoffset:0;stroke-opacity:1;paint-order:stroke fill markers"
         d="m 100.52155,34.119557 a 0.86320764,1.0699134 0 0 0 -0.862476,1.070219 0.86320764,1.0699134 0 0 0 0.862476,1.069702 v 5.17e-4 h 0.20464 v -0.0016 a 0.86320764,1.0699134 0 0 0 0.42272,-0.162264 l -0.22945,0.04341 a 0.86320764,1.0699134 0 0 0 0.0951,-0.0708 l 0.20825,-0.03669 a 0.86320764,1.0699134 0 0 0 0.13023,-0.15658 l -0.18604,0.02584 a 0.86320764,1.0699134 0 0 0 0.0372,-0.05529 l 0.1819,-0.02274 a 0.86320764,1.0699134 0 0 0 0.0692,-0.137976 l -0.17415,0.01499 a 0.86320764,1.0699134 0 0 0 0.0207,-0.05116 l 0.17311,-0.0124 a 0.86320764,1.0699134 0 0 0 0.0398,-0.129708 l -0.16949,0.0057 a 0.86320764,1.0699134 0 0 0 0.0114,-0.04858 l 0.16899,-0.0036 a 0.86320764,1.0699134 0 0 0 0.0201,-0.126607 l -0.16795,-0.0031 a 0.86320764,1.0699134 0 0 0 0.005,-0.04754 l 0.16743,0.0052 a 0.86320764,1.0699134 0 0 0 0.004,-0.0987 0.86320764,1.0699134 0 0 0 0,-0.02739 l -0.16846,-0.01137 a 0.86320764,1.0699134 0 0 0 -0.002,-0.04806 l 0.16898,0.01395 a 0.86320764,1.0699134 0 0 0 -0.0134,-0.127641 l -0.17157,-0.02067 a 0.86320764,1.0699134 0 0 0 -0.009,-0.04961 l 0.1726,0.02325 a 0.86320764,1.0699134 0 0 0 -0.0326,-0.132292 l -0.17828,-0.03101 a 0.86320764,1.0699134 0 0 0 -0.0186,-0.05219 l 0.18036,0.03359 a 0.86320764,1.0699134 0 0 0 -0.061,-0.14211 l -0.19121,-0.04289 a 0.86320764,1.0699134 0 0 0 -0.0351,-0.05839 l 0.19689,0.04703 a 0.86320764,1.0699134 0 0 0 -0.11834,-0.164848 l -0.22996,-0.06305 a 0.86320764,1.0699134 0 0 0 -5.1e-4,-5.17e-4 0.86320764,1.0699134 0 0 0 -0.10181,-0.08216 l 0.26407,0.07648 a 0.86320764,1.0699134 0 0 0 -0.47801,-0.20929 v -0.001 h -0.0357 -0.16795 z" /><path
         id="path131"
         style="display:inline;fill:#19101b;fill-opacity:1;stroke-width:0.00532777"
         d="m 101.071,34.853626 -0.28752,0.02255 c -0.18238,0.01462 -0.28356,0.08205 -0.3123,0.201728 l -0.10315,0.427006 c -8e-4,0.0038 -8.2e-4,0.0082 -0.002,0.01322 8e-5,0.0051 0.002,0.0112 0.007,0.01829 0.005,0.0068 0.0133,0.01048 0.0245,0.01113 l 0.0865,0.0049 c 0.0116,6.74e-4 0.0224,-0.0026 0.0329,-0.01 0.0105,-0.0077 0.0172,-0.01746 0.02,-0.0299 l 0.029,-0.115331 0.35288,0.0085 0.002,0.125299 c 2.2e-4,0.0136 0.005,0.02532 0.0145,0.03479 0.009,0.0091 0.0224,0.01425 0.0373,0.01512 l 0.10409,0.0059 c 0.0147,8.52e-4 0.027,-0.003 0.0375,-0.01124 0.0111,-0.0086 0.0158,-0.01959 0.0156,-0.03304 l -0.01,-0.644873 c -2.1e-4,-0.01272 -0.006,-0.02369 -0.0149,-0.0326 -0.009,-0.0089 -0.0207,-0.01273 -0.0346,-0.01164 z m -1.119202,0.08459 c -0.0092,5.73e-4 -0.01701,0.005 -0.02354,0.01314 -0.0065,0.0082 -0.0098,0.01744 -0.0098,0.02789 v 0.499138 c 0,0.01044 0.0032,0.01977 0.0098,0.028 0.0065,0.008 0.01438,0.01234 0.02354,0.01302 l 0.06785,0.005 c 0.009,7.03e-4 0.0176,-0.0023 0.0242,-0.009 0.007,-0.0069 0.0104,-0.01584 0.0104,-0.02661 v -0.201427 l 0.0811,0.0016 c 0.0232,4.45e-4 0.0432,0.0083 0.06,0.0234 0.017,0.01501 0.0338,0.03746 0.0507,0.06742 l 0.0722,0.125429 c 0.007,0.01192 0.0168,0.02242 0.0294,0.03155 8.1e-4,6.5e-4 0.002,0.0013 0.002,0.002 -0.003,-0.0066 -0.006,-0.01383 -0.006,-0.02163 v -4.42e-4 -8.55e-4 c 2.6e-4,-0.006 5.8e-4,-0.01182 0.002,-0.01713 l 4.2e-4,2.6e-5 v -4.41e-4 l 0.0404,-0.168734 c -0.0147,-0.02326 -0.0313,-0.04512 -0.0501,-0.06489 -0.0193,-0.02047 -0.0379,-0.03274 -0.0561,-0.03692 0.0259,-0.0066 0.047,-0.0181 0.0631,-0.03458 0.0166,-0.0166 0.0317,-0.03775 0.0451,-0.06347 l 0.0951,-0.180438 c 0.005,-0.01001 0.008,-0.01851 0.008,-0.0255 0,-0.01277 -0.007,-0.01872 -0.0214,-0.01781 l -0.10056,0.0063 c -0.0257,0.0019 -0.0458,0.01738 -0.0606,0.04633 l -0.0635,0.122788 c -0.0161,0.03119 -0.033,0.05372 -0.0507,0.06768 -0.0173,0.01385 -0.0374,0.02082 -0.06,0.02099 l -0.0811,6.14e-4 v -0.198515 c 0,-0.01078 -0.004,-0.01996 -0.0104,-0.02756 -0.006,-0.0076 -0.0147,-0.01108 -0.0242,-0.01048 z m 0.962182,0.06804 0.004,0.259052 -0.31821,9.36e-4 0.0397,-0.151334 c 0.007,-0.02912 0.0221,-0.05248 0.0448,-0.07053 0.0231,-0.01855 0.051,-0.02849 0.0829,-0.03014 z"
         transform="matrix(0.96203967,0,0,0.96203967,3.8017489,1.3108761)" /><path
         id="path132"
         style="display:inline;fill:#19101b;fill-opacity:1;fill-rule:evenodd;stroke-width:0.793992;stroke-dasharray:0.793992, 0.793992"
         d="m 100.52259,34.212058 a 0.78879362,0.97767991 0 0 0 -0.789102,0.977718 0.78879362,0.97767991 0 0 0 0.789102,0.977718 0.78879362,0.97767991 0 0 0 0.78858,-0.977718 0.78879362,0.97767991 0 0 0 -0.78858,-0.977718 z m 0,0.08682 a 0.71875006,0.89086354 0 0 1 0.71882,0.890902 0.71875006,0.89086354 0 0 1 -0.71882,0.890902 0.71875006,0.89086354 0 0 1 -0.718822,-0.890902 0.71875006,0.89086354 0 0 1 0.718822,-0.890902 z" /></g><path
       id="path133"
       style="display:inline;fill:none;fill-opacity:1;fill-rule:evenodd;stroke:#19101b;stroke-width:1.97304;stroke-dasharray:none;stroke-opacity:1;paint-order:stroke fill markers"
       d="m 74.709955,119.74381 c 0.236234,1.57162 -1.136941,3.08676 -3.06706,3.38415 -1.930106,0.29741 -3.686289,-0.73551 -3.92251,-2.3071 -0.236232,-1.57162 1.136954,-3.08676 3.06706,-3.38416 1.930119,-0.2974 3.68629,0.73552 3.92251,2.30711 z" /><path
       id="path134"
       style="display:inline;fill:#8929b6;fill-opacity:1;fill-rule:evenodd;stroke:#19101b;stroke-width:1.45787;stroke-dasharray:none;stroke-opacity:1;paint-order:stroke fill markers"
       d="m 101.04874,120.50949 c -0.0956,0.74054 -0.91961,1.2445 -1.840545,1.12551 -0.920835,-0.11893 -1.5898,-0.81567 -1.494134,-1.55621 0.09564,-0.74054 0.919644,-1.24449 1.840523,-1.12553 0.920866,0.11895 1.589796,0.81568 1.494156,1.55623 z"
       transform="translate(-37.240104,-0.26458333)" /><path
       id="path135"
       style="display:inline;fill:#bc36d9;fill-opacity:1;fill-rule:evenodd;stroke:#19101b;stroke-width:1.54916;stroke-linecap:round;stroke-linejoin:round;stroke-dasharray:none;stroke-dashoffset:0;stroke-opacity:1;paint-order:stroke markers fill"
       d="m 79.478639,99.908566 a 2.7802737,2.8073762 82.383009 0 1 1.067368,-0.009 2.7802737,2.8073762 82.383009 0 1 2.219422,2.107314 2.7802737,2.8073762 82.383009 0 1 -1.068719,2.86201 c -0.0148,-0.076 -0.03486,-0.16499 -0.05758,-0.26521 -0.249273,-1.07889 -2.772158,-3.34176 -3.870881,-3.5428 -0.0148,-0.002 -0.02949,-0.004 -0.04374,-0.007 a 2.7802737,2.8073762 82.383009 0 1 1.754419,-1.145314 z" /><path
       id="path136"
       style="display:inline;fill:none;fill-opacity:1;fill-rule:evenodd;stroke:#19101b;stroke-width:2.02201;stroke-linecap:round;stroke-linejoin:round;stroke-dasharray:none;stroke-dashoffset:0;stroke-opacity:1;paint-order:stroke markers fill"
       d="m 68.384442,99.987756 a 3.6642725,3.6288977 3.5715836 0 0 -1.390537,0.0862 3.6642725,3.6288977 3.5715836 0 0 -2.695595,2.94805 3.6642725,3.6288977 3.5715836 0 0 1.654981,3.62783 c 0.01222,-0.10031 0.03019,-0.21802 0.05056,-0.3506 0.225202,-1.42762 3.301579,-4.60613 4.713581,-4.96909 0.01901,-0.003 0.0381,-0.007 0.05633,-0.0129 a 3.6642725,3.6288977 3.5715836 0 0 -2.389674,-1.329865 z" /><path
       id="path137"
       style="display:inline;fill:#ca6ad1;fill-opacity:1;fill-rule:evenodd;stroke:#19101b;stroke-width:1.829;stroke-linecap:round;stroke-linejoin:round;stroke-dasharray:none;stroke-opacity:1;paint-order:stroke fill markers"
       d="m 59.931784,108.70503 a 9.822154,9.822154 0 0 0 -1.281533,-0.0844 9.822154,9.822154 0 0 0 -3.385074,0.60211 l -3.85e-4,-0.001 -5.054046,1.91908 5.76e-4,0.004 a 8.8299665,8.8299665 0 0 0 -5.617054,8.22474 8.8299665,8.8299665 0 0 0 8.593644,8.81408 l 0.002,0.0128 0.234529,0.003 a 8.8299665,8.8299665 0 0 0 0.01038,2.6e-4 l 4.990173,0.0634 a 9.822154,9.822154 0 0 0 0.225171,0.003 9.822154,9.822154 0 0 0 9.822007,-9.82203 9.822154,9.822154 0 0 0 -8.540441,-9.73809 z"
       transform="rotate(-7.1370784)" /><path
       id="path138"
       style="display:inline;fill:#bc36d9;fill-opacity:1;fill-rule:evenodd;stroke:#19101b;stroke-width:1.64211;stroke-dasharray:none;stroke-opacity:1;paint-order:stroke fill markers"
       d="m 84.099616,113.55136 c 0.972107,0.69557 1.057145,2.23679 0.189949,3.44238 -0.867197,1.2056 -2.358236,1.61908 -3.330332,0.92352 -0.972098,-0.69557 -1.057135,-2.23679 -0.189939,-3.44239 0.867207,-1.20559 2.358236,-1.61907 3.330322,-0.92351 z" /><rect
       style="display:inline;fill:#8929b6;fill-opacity:1;fill-rule:evenodd;stroke-width:0.651479;stroke-linecap:round;stroke-linejoin:round;paint-order:stroke fill markers"
       id="rect138"
       width="1.2227088"
       height="3.0664001"
       x="77.033066"
       y="106.12726"
       ry="0.61135441"
       rx="0.61135441" /><rect
       style="display:inline;fill:#8929b6;fill-opacity:1;fill-rule:evenodd;stroke-width:0.699402;stroke-linecap:round;stroke-linejoin:round;paint-order:stroke fill markers"
       id="rect139"
       width="1.2227088"
       height="3.5341218"
       x="72.223564"
       y="105.75307"
       ry="0.70460504"
       rx="0.70460504" /><g
       id="g142"
       style="display:inline;fill:#c44fd1;fill-opacity:1"
       transform="matrix(4.1081558,-0.58677093,0.58677093,4.1081558,-332.57998,3.8998985)"><rect
         style="fill:#bc36d9;fill-opacity:1;fill-rule:evenodd;stroke-width:0.865;stroke-dasharray:0.865, 0.865"
         id="rect140"
         width="1.8024739"
         height="0.82682288"
         x="92.918358"
         y="39.298889"
         ry="0.3156108"
         rx="0.3156108" /><rect
         style="fill:#8929b6;fill-opacity:1;fill-rule:evenodd;stroke-width:0.21629;stroke-dasharray:0.21629, 0.21629"
         id="rect141"
         width="0.5037694"
         height="0.18496683"
         x="39.478928"
         y="-93.639229"
         ry="0.070604645"
         transform="rotate(90)"
         rx="0.070604645" /><rect
         style="fill:#8929b6;fill-opacity:1;fill-rule:evenodd;stroke-width:0.21629;stroke-dasharray:0.21629, 0.21629"
         id="rect142"
         width="0.5037694"
         height="0.18496683"
         x="39.478928"
         y="-94.189064"
         ry="0.070604645"
         transform="rotate(90)"
         rx="0.070604645" /></g><path
       id="path142"
       style="display:inline;fill:#bc36d9;fill-opacity:1;fill-rule:evenodd;stroke:none;stroke-width:2.02201;stroke-linecap:round;stroke-linejoin:round;stroke-dasharray:none;stroke-dashoffset:0;stroke-opacity:1;paint-order:stroke markers fill"
       d="m 68.384442,99.987756 a 3.6642725,3.6288977 3.5715836 0 0 -1.390537,0.0862 3.6642725,3.6288977 3.5715836 0 0 -2.695595,2.94805 3.6642725,3.6288977 3.5715836 0 0 1.654981,3.62783 c 0.01222,-0.10031 0.03019,-0.21802 0.05056,-0.3506 0.225202,-1.42762 3.301579,-4.60613 4.713581,-4.96909 0.01901,-0.003 0.0381,-0.007 0.05633,-0.0129 a 3.6642725,3.6288977 3.5715836 0 0 -2.389674,-1.329865 z" /><path
       id="path143"
       style="display:inline;fill:#bc36d9;fill-opacity:1;fill-rule:evenodd;stroke:none;stroke-width:1.97304;stroke-dasharray:none;stroke-opacity:1;paint-order:stroke fill markers"
       d="m 74.709955,119.74381 c 0.236234,1.57162 -1.136941,3.08676 -3.06706,3.38415 -1.930106,0.29741 -3.686289,-0.73551 -3.92251,-2.3071 -0.236232,-1.57162 1.136954,-3.08676 3.06706,-3.38416 1.930119,-0.2974 3.68629,0.73552 3.92251,2.30711 z" /><path
       id="path157"
       style="display:inline;fill:#eda786;fill-rule:evenodd;stroke-width:1.9;stroke-linecap:round;stroke-linejoin:round;paint-order:stroke fill markers"
       d="m 47.752943,79.275065 a 5.667614,5.667614 0 0 0 -4.583697,2.34766 3.877841,3.877841 0 0 0 -0.845943,-0.10077 3.877841,3.877841 0 0 0 -3.467489,2.14147 5.667614,5.667614 0 0 0 -1.046964,-0.0977 5.667614,5.667614 0 0 0 -5.667871,5.66736 5.667614,5.667614 0 0 0 0.435115,2.17816 3.877841,3.877841 0 0 0 -2.347143,3.56309 3.877841,3.877841 0 0 0 2.458248,3.60856 5.667614,5.667614 0 0 0 -0.11989,1.16014 5.667614,5.667614 0 0 0 5.667355,5.667355 5.667614,5.667614 0 0 0 4.009057,-1.66139 3.877841,3.877841 0 0 0 3.496944,2.20193 3.877841,3.877841 0 0 0 2.793108,-1.19373 5.667614,5.667614 0 0 0 3.34347,1.10846 5.667614,5.667614 0 0 0 4.710824,-2.53834 3.877841,3.877841 0 0 0 1.42524,0.28008 3.877841,3.877841 0 0 0 3.87004,-3.626135 5.667614,5.667614 0 0 0 3.50212,-5.23741 5.667614,5.667614 0 0 0 -1.11053,-3.37034 3.877841,3.877841 0 0 0 0.17311,-1.1467 3.877841,3.877841 0 0 0 -3.08456,-3.79615 5.667614,5.667614 0 0 0 -5.566074,-4.59868 5.667614,5.667614 0 0 0 -2.87683,0.78393 5.667614,5.667614 0 0 0 -5.16764,-3.34088 z" /><circle
       style="display:inline;fill:#eda786;fill-rule:evenodd;stroke-width:1.9;stroke-linecap:round;stroke-linejoin:round;paint-order:stroke fill markers"
       id="path168"
       cx="57.45953"
       cy="107.22952"
       r="2.5994318" /><circle
       style="display:inline;fill:#eda786;fill-rule:evenodd;stroke-width:1.9;stroke-linecap:round;stroke-linejoin:round;paint-order:stroke fill markers"
       id="circle168"
       cx="62.189648"
       cy="109.6585"
       r="1.7897726" /><g
       id="g116"
       transform="matrix(0.69858291,0,0,0.69858291,4.1562146,27.575138)"><path
         id="path27-8-8-7"
         style="display:inline;fill:none;fill-opacity:1;fill-rule:evenodd;stroke:#19101b;stroke-width:1.97303;stroke-dasharray:none;stroke-opacity:1;paint-order:stroke fill markers"
         d="m 58.441527,102.63143 c -0.05565,1.76373 1.648277,3.2575 3.805833,3.33643 2.157543,0.079 3.951723,-1.28676 4.007373,-3.05043 0.0556,-1.76372 -1.648292,-3.2575 -3.805833,-3.33645 -2.157557,-0.0789 -3.951719,1.28678 -4.007373,3.05045 z" /><path
         id="path75-9-6"
         style="display:inline;fill:none;fill-opacity:1;fill-rule:evenodd;stroke:#19101b;stroke-width:1.45787;stroke-dasharray:none;stroke-opacity:1;paint-order:stroke fill markers"
         d="m 48.708176,101.5196 c -0.09057,1.20602 1.022763,2.2659 2.486806,2.36713 1.463897,0.10131 2.724,-0.79425 2.814462,-2.00028 0.09056,-1.20603 -1.022817,-2.2659 -2.486784,-2.36717 -1.463943,-0.10128 -2.72398,0.79427 -2.814484,2.00032 z" /><path
         id="path77-3-1"
         style="display:inline;fill:none;fill-opacity:1;fill-rule:evenodd;stroke:#19101b;stroke-width:1.86101;stroke-linecap:round;stroke-linejoin:round;stroke-dasharray:none;stroke-dashoffset:0;stroke-opacity:1;paint-order:stroke markers fill"
         d="m 99.144437,143.74709 c 0.433235,-0.13734 0.880853,-0.18418 1.317963,-0.13371 1.4456,0.16732 2.54655,1.35132 2.68677,3.00552 0.14183,1.65935 -0.72611,3.28355 -2.10177,4.06877 -0.006,-0.10852 -0.0151,-0.23595 -0.0263,-0.3795 -0.12693,-1.54366 -2.785931,-4.69993 -3.919447,-4.92155 -0.01466,-0.003 -0.02936,-0.004 -0.04346,-0.007 0.509098,-0.77748 1.249336,-1.36745 2.086626,-1.63292 z"
         transform="matrix(-1,0,0,1,160.49182,-62.808996)" /><path
         id="path60-4-4"
         style="display:inline;fill:#bc36d9;fill-opacity:1;fill-rule:evenodd;stroke:#19101b;stroke-width:1.97304;stroke-dasharray:none;stroke-opacity:1;paint-order:stroke fill markers"
         d="m 68.449053,101.63002 c 0.0657,1.40051 1.52226,2.47266 3.25327,2.3947 1.731,-0.0779 3.08098,-1.27643 3.01526,-2.6769 -0.0657,-1.4005 -1.52228,-2.47263 -3.25327,-2.3947 -1.73102,0.0779 -3.08098,1.27643 -3.01526,2.6769 z" /><path
         id="path8-1-4-2"
         style="display:inline;fill:#bc36d9;fill-opacity:1;fill-rule:evenodd;stroke:#19101b;stroke-width:1.86101;stroke-linecap:round;stroke-linejoin:round;stroke-dasharray:none;stroke-dashoffset:0;stroke-opacity:1;paint-order:stroke markers fill"
         d="m 70.943103,81.15859 a 3.433371,3.4855985 77.322997 0 1 1.31885,-0.12942 3.433371,3.4855985 77.322997 0 1 2.97213,2.34763 3.433371,3.4855985 77.322997 0 1 -1.01228,3.63905 c -0.0268,-0.0918 -0.061,-0.19913 -0.0998,-0.31992 -0.42481,-1.29983 -3.78901,-3.80535 -5.16936,-3.93143 -0.0187,-0.002 -0.0369,-0.002 -0.0548,-0.003 a 3.433371,3.4855985 77.322997 0 1 2.04568,-1.60269 z" /><path
         id="path30-6-32"
         style="display:inline;fill:#ca6ad1;fill-opacity:1;fill-rule:evenodd;stroke:#19101b;stroke-width:1.9;stroke-linecap:round;stroke-linejoin:round;stroke-dasharray:none;stroke-opacity:1;paint-order:stroke fill markers"
         d="m 64.300056,81.80708 c 5.889707,-2.3e-4 10.664407,4.77423 10.664467,10.66394 -0.007,5.77817 -4.60966,10.51137 -10.385931,10.65982 l -0.0021,5.2e-4 -0.221692,0.004 h -0.0015 l -5.99343,0.0971 -5.2e-4,-0.004 h -10e-4 c -5.42563,8e-5 -9.82406,-4.41825 -9.82421,-9.86865 -4e-5,-4.38909 2.88538,-8.25078 7.08071,-9.47643 v -0.002 l 5.5578,-1.6061 h 5.17e-4 l 0.0016,-5.2e-4 0.201021,-0.0512 -0.0011,8e-4 c 0.951032,-0.27427 1.935616,-0.4148 2.925402,-0.41754 z" /><g
         id="g25-18-0-2"
         style="display:inline;fill:#c44fd1;fill-opacity:1;stroke-width:0.873661"
         transform="matrix(-4.7499505,0.00320525,0.00320525,4.7499505,514.22948,-94.131958)"><rect
           style="fill:#bc36d9;fill-opacity:1;fill-rule:evenodd;stroke-width:0.755717;stroke-dasharray:0.755717, 0.755717"
           id="rect21-9-6-1"
           width="1.8024739"
           height="0.82682288"
           x="92.918358"
           y="39.298889"
           ry="0.45178717"
           rx="0.45178717" /><rect
           style="fill:#8929b6;fill-opacity:1;fill-rule:evenodd;stroke-width:0.188964;stroke-dasharray:0.188964, 0.188964"
           id="rect24-2-6-6"
           width="0.5037694"
           height="0.18496683"
           x="39.478928"
           y="-93.639229"
           ry="0.10106838"
           transform="rotate(90)"
           rx="0.10106838" /><rect
           style="fill:#8929b6;fill-opacity:1;fill-rule:evenodd;stroke-width:0.188964;stroke-dasharray:0.188964, 0.188964"
           id="rect25-7-1-85"
           width="0.5037694"
           height="0.18496683"
           x="39.478928"
           y="-94.189064"
           ry="0.10106838"
           transform="rotate(90)"
           rx="0.10106838" /></g><path
         style="display:inline;fill:#8929b6;fill-opacity:1;fill-rule:evenodd;stroke-width:3.59603;stroke-dasharray:3.59603, 3.59603"
         d="m 66.074077,90.193231 c 0.166867,0.329702 0.664646,1.016031 1.592716,0.878394 1.045574,-0.155079 1.28729,-1.195842 1.040515,-1.271992 -0.272116,-0.084 -0.275046,0.258959 -0.456365,0.509397 -0.19526,0.269656 -0.635679,0.436833 -0.882484,0.401591 -0.378589,-0.05406 -0.746748,-0.290948 -0.947698,-0.699399 -0.175167,-0.355634 -0.548489,-0.275336 -0.346675,0.182096 z"
         id="path40-3" /><path
         id="ellipse21-6-2-3-1"
         style="display:inline;fill:#8929b6;fill-opacity:1;fill-rule:evenodd;stroke:none;stroke-width:1.45787;stroke-dasharray:none;stroke-opacity:1;paint-order:stroke fill markers"
         d="m 48.708176,101.5196 c -0.09057,1.20602 1.022763,2.2659 2.486806,2.36713 1.463897,0.10131 2.724,-0.79425 2.814462,-2.00028 0.09056,-1.20603 -1.022817,-2.2659 -2.486784,-2.36717 -1.463943,-0.10128 -2.72398,0.79427 -2.814484,2.00032 z" /><path
         id="path67-7-8"
         style="display:inline;fill:#bc36d9;fill-opacity:1;fill-rule:evenodd;stroke:none;stroke-width:1.97303;stroke-dasharray:none;stroke-opacity:1;paint-order:stroke fill markers"
         d="m 58.441527,102.63143 c -0.05565,1.76373 1.648277,3.2575 3.805833,3.33643 2.157543,0.079 3.951723,-1.28676 4.007373,-3.05043 0.0556,-1.76372 -1.648292,-3.2575 -3.805833,-3.33645 -2.157557,-0.0789 -3.951719,1.28678 -4.007373,3.05045 z" /><path
         id="path71-8-92"
         style="display:inline;fill:#bc36d9;fill-opacity:1;fill-rule:evenodd;stroke:none;stroke-width:1.86101;stroke-linecap:round;stroke-linejoin:round;stroke-dasharray:none;stroke-dashoffset:0;stroke-opacity:1;paint-order:stroke markers fill"
         d="m 98.955704,143.79283 c 0.415601,-0.1327 0.855965,-0.17791 1.298426,-0.12614 1.53976,0.18056 2.86882,1.48781 3.15406,3.37357 0.30105,1.98074 -0.65971,3.79419 -2.2438,4.44482 -0.0115,-0.13057 -0.0281,-0.28404 -0.0475,-0.45644 -0.21047,-1.81349 -2.99229,-5.42922 -4.020478,-5.69857 -0.01291,-0.004 -0.02584,-0.005 -0.03822,-0.008 0.449394,-0.72732 1.116222,-1.27943 1.89788,-1.52904 z"
         transform="matrix(-1,0,0,1,160.49182,-62.808996)" /><path
         style="display:inline;fill:#8929b6;fill-opacity:1;fill-rule:evenodd;stroke-width:3.20404;stroke-dasharray:3.20404, 3.20404"
         d="m 71.64594,90.284011 c 0.148677,0.293762 0.592195,0.905277 1.419099,0.782643 0.931599,-0.138174 1.146966,-1.065487 0.927091,-1.133336 -0.242453,-0.07484 -0.245064,0.230731 -0.406618,0.453869 -0.173975,0.240262 -0.566385,0.389216 -0.786287,0.357815 -0.33732,-0.04817 -0.665347,-0.259233 -0.844392,-0.62316 -0.156073,-0.316867 -0.4887,-0.245322 -0.308885,0.162247 z"
         id="path118" /><g
         id="g45"
         transform="matrix(1.0122016,-1.0122016,1.0122016,1.0122016,-268.05019,-46.308897)"><path
           id="rect32"
           style="fill:#eda786;fill-rule:evenodd;stroke-width:1.27275;stroke-linecap:round;stroke-linejoin:round;paint-order:stroke fill markers"
           transform="rotate(90)"
           d="m 227.61855,-92.817566 h 5.14133 c 0.33685,0 0.60804,0.271185 0.60804,0.608039 v 1.075758 c 0,0.336854 -0.27119,0.608039 -0.60804,0.608039 h -5.14133 c -0.33685,0 -0.60804,-0.271185 -0.60804,-0.608039 v -1.075758 c 0,-0.336854 0.27119,-0.608039 0.60804,-0.608039 z" /><path
           id="rect42"
           style="fill:#d984b1;fill-opacity:1;fill-rule:evenodd;stroke-width:0.968141;stroke-linecap:round;stroke-linejoin:round;paint-order:stroke fill markers"
           transform="rotate(90)"
           d="m 228.34996,-92.817566 h 3.6785 v 2.291836 h -3.6785 z" /><path
           id="rect20"
           style="fill:#eda786;fill-rule:evenodd;stroke-width:1.27275;stroke-linecap:round;stroke-linejoin:round;paint-order:stroke fill markers"
           d="m 89.100982,229.0433 h 5.141328 c 0.336853,0 0.608038,0.27119 0.608038,0.60804 v 1.07576 c 0,0.33686 -0.271185,0.60804 -0.608038,0.60804 h -5.141328 c -0.336854,0 -0.608039,-0.27118 -0.608039,-0.60804 v -1.07576 c 0,-0.33685 0.271185,-0.60804 0.608039,-0.60804 z" /><path
           id="path195-8"
           style="display:inline;fill:#bc36d9;fill-opacity:1;fill-rule:evenodd;stroke:none;stroke-width:0.337169;stroke-linecap:round;stroke-linejoin:round;stroke-dasharray:none;stroke-opacity:1;paint-order:stroke fill markers"
           d="m 101.01281,236.79726 c -0.0973,-0.09 -0.53224,0.0886 -0.64439,0.19128 a 0.35337883,0.35337883 0 0 0 -0.0599,0.0482 0.35337883,0.35337883 0 0 0 0,0.49977 0.35337883,0.35337883 0 0 0 0.49977,0 0.35337883,0.35337883 0 0 0 0.056,-0.0731 c 0.0932,-0.10441 0.24839,-0.57363 0.1485,-0.66607 z" /></g></g></g><style
     type="text/css"
     id="style1">

<![CDATA[
	.st0{fill-rule:evenodd;clip-rule:evenodd;}
]]>

</style></svg>
