<?xml version="1.0" encoding="UTF-8" standalone="no"?>
<!-- Created with Inkscape (http://www.inkscape.org/) -->

<svg
   width="56.793949mm"
   height="34.426792mm"
   viewBox="0 0 56.793949 34.426792"
   version="1.1"
   id="svg1"
   xml:space="preserve"
   xmlns:xlink="http://www.w3.org/1999/xlink"
   xmlns="http://www.w3.org/2000/svg"
   xmlns:svg="http://www.w3.org/2000/svg"><defs
     id="defs1"><linearGradient
       id="linearGradient12"><stop
         style="stop-color:#b444ff;stop-opacity:1;"
         offset="0"
         id="stop12" /><stop
         style="stop-color:#ffc561;stop-opacity:1;"
         offset="1"
         id="stop13" /></linearGradient><linearGradient
       xlink:href="#linearGradient12"
       id="linearGradient222"
       gradientUnits="userSpaceOnUse"
       x1="99.542145"
       y1="34.102325"
       x2="101.22619"
       y2="36.008289" /></defs><style
     type="text/css"
     id="style1">

<![CDATA[
	.st0{fill-rule:evenodd;clip-rule:evenodd;}
]]>

</style><g
     id="g222"
     transform="translate(-7.4142762,-234.5787)"><g
       id="g539-1-3-0-5"
       transform="matrix(5.2370098,0,0,5.2276578,-512.50876,56.832719)"
       style="display:inline;fill:#00ff00;stroke-width:0.87557"><path
         id="ellipse11-5-1-0-4"
         style="display:inline;fill:#19101b;fill-opacity:1;fill-rule:evenodd;stroke:#19101b;stroke-width:0.236755;stroke-linejoin:round;stroke-dasharray:none;stroke-dashoffset:0;stroke-opacity:1;paint-order:stroke fill markers"
         d="m 100.52153,34.119608 a 0.86320764,1.0699134 0 0 0 -0.862469,1.07013 0.86320764,1.0699134 0 0 0 0.862469,1.069791 v 4.51e-4 h 0.20462 v -0.0014 a 0.86320764,1.0699134 0 0 0 0.0876,-0.01173 0.86320764,1.0699134 0 0 0 0.0231,-0.0032 0.86320764,1.0699134 0 0 0 0.31201,-0.147654 l -0.002,3.38e-4 a 0.86320764,1.0699134 0 0 0 0.0738,-0.06407 l 0.002,-3.39e-4 a 0.86320764,1.0699134 0 0 0 0.13029,-0.156565 l -0.002,2.25e-4 a 0.86320764,1.0699134 0 0 0 0.0329,-0.05211 l 0.002,-2.26e-4 a 0.86320764,1.0699134 0 0 0 0.0691,-0.138066 l -10e-4,1.12e-4 a 0.86320764,1.0699134 0 0 0 0.0193,-0.0485 l 0.002,-1.13e-4 a 0.86320764,1.0699134 0 0 0 0.0398,-0.12972 h -0.001 a 0.86320764,1.0699134 0 0 0 0.0107,-0.04647 h 0.002 a 0.86320764,1.0699134 0 0 0 0.0201,-0.126674 h -0.001 a 0.86320764,1.0699134 0 0 0 0.004,-0.04535 h 0.002 a 0.86320764,1.0699134 0 0 0 0.004,-0.0987 0.86320764,1.0699134 0 0 0 0,-0.02741 l -0.002,-1.13e-4 a 0.86320764,1.0699134 0 0 0 -0.002,-0.04557 l 0.002,2.25e-4 a 0.86320764,1.0699134 0 0 0 -0.0134,-0.127689 l -0.002,-3.38e-4 a 0.86320764,1.0699134 0 0 0 -0.008,-0.04704 l 0.003,3.39e-4 a 0.86320764,1.0699134 0 0 0 -0.0326,-0.132314 l -0.003,-4.51e-4 a 0.86320764,1.0699134 0 0 0 0,-1.13e-4 0.86320764,1.0699134 0 0 0 -0.0164,-0.04952 l 0.003,4.51e-4 a 0.86320764,1.0699134 0 0 0 -0.061,-0.142015 l -0.003,-5.64e-4 v -1.12e-4 a 0.86320764,1.0699134 0 0 0 -0.0297,-0.05426 l 0.003,6.77e-4 a 0.86320764,1.0699134 0 0 0 -0.11833,-0.164913 l -0.004,-10e-4 a 0.86320764,1.0699134 0 0 0 -0.0681,-0.06926 l 0.004,10e-4 a 0.86320764,1.0699134 0 0 0 -0.29441,-0.173824 0.86320764,1.0699134 0 0 0 -0.0206,-0.0058 0.86320764,1.0699134 0 0 0 -0.0813,-0.0194 0.86320764,1.0699134 0 0 0 -0.0358,-0.0045 0.86320764,1.0699134 0 0 0 -0.0459,-0.0058 v -0.001 h -0.0356 -0.16796 z" /><path
         id="circle39-2-9-6-2"
         style="display:inline;fill:url(#linearGradient222);fill-rule:evenodd;stroke:none;stroke-width:0.342945;stroke-dasharray:none;stroke-dashoffset:0;stroke-opacity:1;paint-order:stroke fill markers"
         d="m 100.52155,34.119557 a 0.86320764,1.0699134 0 0 0 -0.862476,1.070219 0.86320764,1.0699134 0 0 0 0.862476,1.069702 v 5.17e-4 h 0.20464 v -0.0016 a 0.86320764,1.0699134 0 0 0 0.42272,-0.162264 l -0.22945,0.04341 a 0.86320764,1.0699134 0 0 0 0.0951,-0.0708 l 0.20825,-0.03669 a 0.86320764,1.0699134 0 0 0 0.13023,-0.15658 l -0.18604,0.02584 a 0.86320764,1.0699134 0 0 0 0.0372,-0.05529 l 0.1819,-0.02274 a 0.86320764,1.0699134 0 0 0 0.0692,-0.137976 l -0.17415,0.01499 a 0.86320764,1.0699134 0 0 0 0.0207,-0.05116 l 0.17311,-0.0124 a 0.86320764,1.0699134 0 0 0 0.0398,-0.129708 l -0.16949,0.0057 a 0.86320764,1.0699134 0 0 0 0.0114,-0.04858 l 0.16899,-0.0036 a 0.86320764,1.0699134 0 0 0 0.0201,-0.126607 l -0.16795,-0.0031 a 0.86320764,1.0699134 0 0 0 0.005,-0.04754 l 0.16743,0.0052 a 0.86320764,1.0699134 0 0 0 0.004,-0.0987 0.86320764,1.0699134 0 0 0 0,-0.02739 l -0.16846,-0.01137 a 0.86320764,1.0699134 0 0 0 -0.002,-0.04806 l 0.16898,0.01395 a 0.86320764,1.0699134 0 0 0 -0.0134,-0.127641 l -0.17157,-0.02067 a 0.86320764,1.0699134 0 0 0 -0.009,-0.04961 l 0.1726,0.02325 a 0.86320764,1.0699134 0 0 0 -0.0326,-0.132292 l -0.17828,-0.03101 a 0.86320764,1.0699134 0 0 0 -0.0186,-0.05219 l 0.18036,0.03359 a 0.86320764,1.0699134 0 0 0 -0.061,-0.14211 l -0.19121,-0.04289 a 0.86320764,1.0699134 0 0 0 -0.0351,-0.05839 l 0.19689,0.04703 a 0.86320764,1.0699134 0 0 0 -0.11834,-0.164848 l -0.22996,-0.06305 a 0.86320764,1.0699134 0 0 0 -5.1e-4,-5.17e-4 0.86320764,1.0699134 0 0 0 -0.10181,-0.08216 l 0.26407,0.07648 a 0.86320764,1.0699134 0 0 0 -0.47801,-0.20929 v -0.001 h -0.0357 -0.16795 z" /><path
         id="path5-7-8-1-0"
         style="display:inline;fill:#19101b;fill-opacity:1;stroke-width:0.00417125"
         d="m 101.071,34.853626 -0.28752,0.02255 c -0.18238,0.01462 -0.28356,0.08205 -0.3123,0.201728 l -0.10315,0.427006 c -8e-4,0.0038 -8.2e-4,0.0082 -0.002,0.01322 8e-5,0.0051 0.002,0.0112 0.007,0.01829 0.005,0.0068 0.0133,0.01048 0.0245,0.01113 l 0.0865,0.0049 c 0.0116,6.74e-4 0.0224,-0.0026 0.0329,-0.01 0.0105,-0.0077 0.0172,-0.01746 0.02,-0.0299 l 0.029,-0.115331 0.35288,0.0085 0.002,0.125299 c 2.2e-4,0.0136 0.005,0.02532 0.0145,0.03479 0.009,0.0091 0.0224,0.01425 0.0373,0.01512 l 0.10409,0.0059 c 0.0147,8.52e-4 0.027,-0.003 0.0375,-0.01124 0.0111,-0.0086 0.0158,-0.01959 0.0156,-0.03304 l -0.01,-0.644873 c -2.1e-4,-0.01272 -0.006,-0.02369 -0.0149,-0.0326 -0.009,-0.0089 -0.0207,-0.01273 -0.0346,-0.01164 z m -1.119202,0.08459 c -0.0092,5.73e-4 -0.01701,0.005 -0.02354,0.01314 -0.0065,0.0082 -0.0098,0.01744 -0.0098,0.02789 v 0.499138 c 0,0.01044 0.0032,0.01977 0.0098,0.028 0.0065,0.008 0.01438,0.01234 0.02354,0.01302 l 0.06785,0.005 c 0.009,7.03e-4 0.0176,-0.0023 0.0242,-0.009 0.007,-0.0069 0.0104,-0.01584 0.0104,-0.02661 v -0.201427 l 0.0811,0.0016 c 0.0232,4.45e-4 0.0432,0.0083 0.06,0.0234 0.017,0.01501 0.0338,0.03746 0.0507,0.06742 l 0.0722,0.125429 c 0.007,0.01192 0.0168,0.02242 0.0294,0.03155 8.1e-4,6.5e-4 0.002,0.0013 0.002,0.002 -0.003,-0.0066 -0.006,-0.01383 -0.006,-0.02163 v -4.42e-4 -8.55e-4 c 2.6e-4,-0.006 5.8e-4,-0.01182 0.002,-0.01713 l 4.2e-4,2.6e-5 v -4.41e-4 l 0.0404,-0.168734 c -0.0147,-0.02326 -0.0313,-0.04512 -0.0501,-0.06489 -0.0193,-0.02047 -0.0379,-0.03274 -0.0561,-0.03692 0.0259,-0.0066 0.047,-0.0181 0.0631,-0.03458 0.0166,-0.0166 0.0317,-0.03775 0.0451,-0.06347 l 0.0951,-0.180438 c 0.005,-0.01001 0.008,-0.01851 0.008,-0.0255 0,-0.01277 -0.007,-0.01872 -0.0214,-0.01781 l -0.10056,0.0063 c -0.0257,0.0019 -0.0458,0.01738 -0.0606,0.04633 l -0.0635,0.122788 c -0.0161,0.03119 -0.033,0.05372 -0.0507,0.06768 -0.0173,0.01385 -0.0374,0.02082 -0.06,0.02099 l -0.0811,6.14e-4 v -0.198515 c 0,-0.01078 -0.004,-0.01996 -0.0104,-0.02756 -0.006,-0.0076 -0.0147,-0.01108 -0.0242,-0.01048 z m 0.962182,0.06804 0.004,0.259052 -0.31821,9.36e-4 0.0397,-0.151334 c 0.007,-0.02912 0.0221,-0.05248 0.0448,-0.07053 0.0231,-0.01855 0.051,-0.02849 0.0829,-0.03014 z"
         transform="matrix(0.96203967,0,0,0.96203967,3.8017489,1.3108761)" /><path
         id="ellipse10-6-6-3-9"
         style="display:inline;fill:#19101b;fill-opacity:1;fill-rule:evenodd;stroke-width:0.621637;stroke-dasharray:0.621637, 0.621637"
         d="m 100.52259,34.212058 a 0.78879362,0.97767991 0 0 0 -0.789102,0.977718 0.78879362,0.97767991 0 0 0 0.789102,0.977718 0.78879362,0.97767991 0 0 0 0.78858,-0.977718 0.78879362,0.97767991 0 0 0 -0.78858,-0.977718 z m 0,0.08682 a 0.71875006,0.89086354 0 0 1 0.71882,0.890902 0.71875006,0.89086354 0 0 1 -0.71882,0.890902 0.71875006,0.89086354 0 0 1 -0.718822,-0.890902 0.71875006,0.89086354 0 0 1 0.718822,-0.890902 z" /></g><path
       id="path27-8-8-73"
       style="display:inline;fill:none;fill-opacity:1;fill-rule:evenodd;stroke:#19101b;stroke-width:1.97303;stroke-dasharray:none;stroke-opacity:1;paint-order:stroke fill markers"
       d="m 18.271066,264.1875 c -0.0556,1.76373 1.64827,3.2575 3.80583,3.33643 2.15754,0.079 3.95172,-1.28676 4.00737,-3.05043 0.0556,-1.76372 -1.64829,-3.2575 -3.80583,-3.33645 -2.15756,-0.0789 -3.95172,1.28678 -4.00737,3.05045 z" /><path
       id="path75-9-7"
       style="display:inline;fill:none;fill-opacity:1;fill-rule:evenodd;stroke:#19101b;stroke-width:1.45787;stroke-dasharray:none;stroke-opacity:1;paint-order:stroke fill markers"
       d="m 8.5377163,263.07567 c -0.0906,1.20602 1.02276,2.2659 2.4867997,2.36713 1.4639,0.10131 2.724,-0.79425 2.81447,-2.00028 0.0906,-1.20603 -1.02282,-2.2659 -2.48679,-2.36717 -1.4639397,-0.10128 -2.7239797,0.79427 -2.8144797,2.00032 z" /><path
       id="path77-3-2"
       style="display:inline;fill:none;fill-opacity:1;fill-rule:evenodd;stroke:#19101b;stroke-width:1.86101;stroke-linecap:round;stroke-linejoin:round;stroke-dasharray:none;stroke-dashoffset:0;stroke-opacity:1;paint-order:stroke markers fill"
       d="m 99.144437,143.74709 c 0.433235,-0.13734 0.880853,-0.18418 1.317963,-0.13371 1.4456,0.16732 2.54655,1.35132 2.68677,3.00552 0.14183,1.65935 -0.72611,3.28355 -2.10177,4.06877 -0.006,-0.10852 -0.0151,-0.23595 -0.0263,-0.3795 -0.12693,-1.54366 -2.785931,-4.69993 -3.919447,-4.92155 -0.01466,-0.003 -0.02936,-0.004 -0.04346,-0.007 0.509098,-0.77748 1.249336,-1.36745 2.086626,-1.63292 z"
       transform="matrix(-1,0,0,1,120.32136,98.74707)" /><path
       id="path60-4-6"
       style="display:inline;fill:#bc36d9;fill-opacity:1;fill-rule:evenodd;stroke:#19101b;stroke-width:1.97304;stroke-dasharray:none;stroke-opacity:1;paint-order:stroke fill markers"
       d="m 28.278586,263.18609 c 0.0657,1.40051 1.52226,2.47266 3.25327,2.3947 1.731,-0.0779 3.08098,-1.27643 3.01526,-2.6769 -0.0657,-1.4005 -1.52228,-2.47263 -3.25327,-2.3947 -1.73102,0.0779 -3.08098,1.27643 -3.01526,2.6769 z" /><path
       id="path8-1-4-0"
       style="display:inline;fill:#bc36d9;fill-opacity:1;fill-rule:evenodd;stroke:#19101b;stroke-width:1.86101;stroke-linecap:round;stroke-linejoin:round;stroke-dasharray:none;stroke-dashoffset:0;stroke-opacity:1;paint-order:stroke markers fill"
       d="m 30.772636,242.71466 a 3.433371,3.4855985 77.322997 0 1 1.31885,-0.12942 3.433371,3.4855985 77.322997 0 1 2.97213,2.34763 3.433371,3.4855985 77.322997 0 1 -1.01228,3.63905 c -0.0268,-0.0918 -0.061,-0.19913 -0.0998,-0.31992 -0.42481,-1.29983 -3.78901,-3.80535 -5.16936,-3.93143 -0.0187,-0.002 -0.0369,-0.002 -0.0548,-0.003 a 3.433371,3.4855985 77.322997 0 1 2.04568,-1.60269 z" /><path
       id="path30-6-1"
       style="display:inline;fill:#ca6ad1;fill-opacity:1;fill-rule:evenodd;stroke:#19101b;stroke-width:1.9;stroke-linecap:round;stroke-linejoin:round;stroke-dasharray:none;stroke-opacity:1;paint-order:stroke fill markers"
       d="m 24.129596,243.36315 c 5.8897,-2.3e-4 10.6644,4.77423 10.66446,10.66394 -0.007,5.77817 -4.60966,10.51137 -10.38593,10.65982 l -0.002,5.2e-4 -0.22169,0.004 h -0.001 l -5.99343,0.0971 -5.2e-4,-0.004 h -10e-4 c -5.42563,8e-5 -9.8240597,-4.41825 -9.8242097,-9.86865 -4e-5,-4.38909 2.8853797,-8.25078 7.0807097,-9.47643 v -0.002 l 5.5578,-1.6061 h 5.2e-4 l 0.002,-5.2e-4 0.20102,-0.0512 -0.001,8e-4 c 0.95103,-0.27427 1.93561,-0.4148 2.9254,-0.41754 z" /><path
       id="path197-7"
       style="display:inline;fill:#bc36d9;fill-opacity:1;fill-rule:evenodd;stroke:none;stroke-width:1.47345;stroke-linecap:round;stroke-linejoin:round;stroke-dasharray:none;stroke-opacity:1;paint-order:stroke fill markers"
       d="m 21.514323,249.46924 c -0.577851,0.0232 -1.368786,1.98674 -1.397909,2.67434 a 1.5417851,1.5993209 0 0 0 -0.03614,0.34584 1.5417851,1.5993209 0 0 0 1.541814,1.59935 1.5417851,1.5993209 0 0 0 1.541824,-1.59935 1.5417851,1.5993209 0 0 0 -0.05272,-0.41335 c -0.03454,-0.63244 -1.003429,-2.63069 -1.596794,-2.60683 z" /><g
       id="g25-18-0-6"
       style="display:inline;fill:#c44fd1;fill-opacity:1;stroke-width:0.873661"
       transform="matrix(-4.7499505,0.00320525,0.00320525,4.7499505,474.05902,67.424108)"><rect
         style="fill:#bc36d9;fill-opacity:1;fill-rule:evenodd;stroke-width:0.755717;stroke-dasharray:0.755717, 0.755717"
         id="rect21-9-6-5"
         width="1.8024739"
         height="0.82682288"
         x="92.918358"
         y="39.298889"
         ry="0.3156108" /><rect
         style="fill:#8929b6;fill-opacity:1;fill-rule:evenodd;stroke-width:0.188964;stroke-dasharray:0.188964, 0.188964"
         id="rect24-2-6-7"
         width="0.5037694"
         height="0.18496683"
         x="39.478928"
         y="-93.639229"
         ry="0.070604645"
         transform="rotate(90)" /><rect
         style="fill:#8929b6;fill-opacity:1;fill-rule:evenodd;stroke-width:0.188964;stroke-dasharray:0.188964, 0.188964"
         id="rect25-7-1-5"
         width="0.5037694"
         height="0.18496683"
         x="39.478928"
         y="-94.189064"
         ry="0.070604645"
         transform="rotate(90)" /></g><rect
       style="display:inline;fill:#8929b6;fill-opacity:1;fill-rule:evenodd;stroke-width:0.651479;stroke-linecap:round;stroke-linejoin:round;paint-order:stroke fill markers"
       id="rect81-4"
       width="1.2227088"
       height="3.5808938"
       x="-32.401855"
       y="249.7195"
       ry="0.71393007"
       transform="scale(-1,1)" /><rect
       style="display:inline;fill:#8929b6;fill-opacity:1;fill-rule:evenodd;stroke-width:0.651479;stroke-linecap:round;stroke-linejoin:round;paint-order:stroke fill markers"
       id="rect43-9-4-1"
       width="1.2227088"
       height="3.5808938"
       x="-28.291092"
       y="249.67688"
       ry="0.71393007"
       transform="scale(-1,1)" /><path
       id="ellipse21-6-2-3-2"
       style="display:inline;fill:#8929b6;fill-opacity:1;fill-rule:evenodd;stroke:none;stroke-width:1.45787;stroke-dasharray:none;stroke-opacity:1;paint-order:stroke fill markers"
       d="m 8.5377163,263.07567 c -0.0906,1.20602 1.02276,2.2659 2.4867997,2.36713 1.4639,0.10131 2.724,-0.79425 2.81447,-2.00028 0.0906,-1.20603 -1.02282,-2.2659 -2.48679,-2.36717 -1.4639397,-0.10128 -2.7239797,0.79427 -2.8144797,2.00032 z" /><path
       id="path67-7-0"
       style="display:inline;fill:#bc36d9;fill-opacity:1;fill-rule:evenodd;stroke:none;stroke-width:1.97303;stroke-dasharray:none;stroke-opacity:1;paint-order:stroke fill markers"
       d="m 18.271066,264.1875 c -0.0556,1.76373 1.64827,3.2575 3.80583,3.33643 2.15754,0.079 3.95172,-1.28676 4.00737,-3.05043 0.0556,-1.76372 -1.64829,-3.2575 -3.80583,-3.33645 -2.15756,-0.0789 -3.95172,1.28678 -4.00737,3.05045 z" /><path
       id="path71-8-0"
       style="display:inline;fill:#bc36d9;fill-opacity:1;fill-rule:evenodd;stroke:none;stroke-width:1.86101;stroke-linecap:round;stroke-linejoin:round;stroke-dasharray:none;stroke-dashoffset:0;stroke-opacity:1;paint-order:stroke markers fill"
       d="m 98.955704,143.79283 c 0.415601,-0.1327 0.855965,-0.17791 1.298426,-0.12614 1.53976,0.18056 2.86882,1.48781 3.15406,3.37357 0.30105,1.98074 -0.65971,3.79419 -2.2438,4.44482 -0.0115,-0.13057 -0.0281,-0.28404 -0.0475,-0.45644 -0.21047,-1.81349 -2.99229,-5.42922 -4.020478,-5.69857 -0.01291,-0.004 -0.02584,-0.005 -0.03822,-0.008 0.449394,-0.72732 1.116222,-1.27943 1.89788,-1.52904 z"
       transform="matrix(-1,0,0,1,120.32136,98.74707)" /><path
       id="path223"
       style="display:inline;fill:#bc36d9;fill-opacity:1;fill-rule:evenodd;stroke:none;stroke-width:1.47345;stroke-linecap:round;stroke-linejoin:round;stroke-dasharray:none;stroke-opacity:1;paint-order:stroke fill markers"
       d="m 18.755867,252.5185 c -0.411414,0.0165 -0.974538,1.4145 -0.995273,1.90405 a 1.0977083,1.1386722 0 0 0 -0.02574,0.24623 1.0977083,1.1386722 0 0 0 1.097728,1.13869 1.0977083,1.1386722 0 0 0 1.097736,-1.13869 1.0977083,1.1386722 0 0 0 -0.03753,-0.29429 c -0.0246,-0.45028 -0.714414,-1.87298 -1.136873,-1.85599 z" /><path
       id="path225"
       style="fill:#dc88ac;fill-rule:evenodd;stroke:#19101b;stroke-width:2.823;stroke-linecap:round;stroke-linejoin:round;stroke-dasharray:none;stroke-opacity:1;paint-order:stroke fill markers"
       d="m 48.468876,246.26249 c -0.397535,0 -0.623225,0.33103 -0.717269,0.71727 l -0.949296,3.89898 h -4.484997 c -0.397535,0 -0.645639,0.32624 -0.717269,0.71727 l -2.759522,15.06523 c -0.09308,0.50814 0.415649,0.93276 0.932243,0.93276 h 22.082373 c 0.516594,0 1.02584,-0.42462 0.93276,-0.93276 l -2.759522,-15.06523 c -0.07163,-0.39103 -0.32025,-0.71727 -0.717785,-0.71727 h -4.484481 l -0.949296,-3.89898 c -0.09404,-0.38624 -0.320251,-0.71727 -0.717786,-0.71727 z m 0.886768,0.93121 h 2.916618 c 0.372398,0 0.605212,0.30602 0.67231,0.67231 l 0.675411,3.01273 h -5.611544 l 0.675411,-3.01273 c 0.0671,-0.36629 0.299397,-0.67231 0.671794,-0.67231 z m -6.073014,4.63434 h 15.062646 c 0.352367,0 0.572649,0.28955 0.636137,0.63614 l 2.445845,13.3537 c 0.0825,0.45041 -0.368408,0.82631 -0.826306,0.82631 H 41.02747 c -0.457899,0 -0.909325,-0.3759 -0.826823,-0.82631 l 2.446362,-13.3537 c 0.06349,-0.34659 0.283255,-0.63614 0.635621,-0.63614 z" /><text
       xml:space="preserve"
       style="font-style:normal;font-variant:normal;font-weight:normal;font-stretch:normal;font-size:4.35012px;font-family:'Days One';-inkscape-font-specification:'Days One';text-align:start;writing-mode:lr-tb;direction:ltr;text-anchor:start;fill:#dc88ac;fill-opacity:1;fill-rule:evenodd;stroke:#19101b;stroke-width:2.023;stroke-linecap:round;stroke-linejoin:round;stroke-dasharray:none;stroke-opacity:1;paint-order:stroke fill markers"
       x="42.185131"
       y="260.37906"
       id="text224"><tspan
         id="tspan224"
         style="fill:#dc88ac;fill-opacity:1;stroke:#19101b;stroke-width:2.023;stroke-opacity:1"
         x="42.185131"
         y="260.37906">Hutang</tspan></text></g></svg>
