<?xml version="1.0" encoding="UTF-8" standalone="no"?>
<!-- Created with Inkscape (http://www.inkscape.org/) -->

<svg
   width="118.27202mm"
   height="43.522766mm"
   viewBox="0 0 118.27202 43.522766"
   version="1.1"
   id="svg1"
   xml:space="preserve"
   xmlns:xlink="http://www.w3.org/1999/xlink"
   xmlns="http://www.w3.org/2000/svg"
   xmlns:svg="http://www.w3.org/2000/svg"><defs
     id="defs1"><linearGradient
       id="linearGradient81"><stop
         style="stop-color:#b444ff;stop-opacity:1;"
         offset="0"
         id="stop81" /><stop
         style="stop-color:#ffc561;stop-opacity:1;"
         offset="1"
         id="stop82" /></linearGradient><linearGradient
       id="linearGradient12"><stop
         style="stop-color:#b444ff;stop-opacity:1;"
         offset="0"
         id="stop12" /><stop
         style="stop-color:#ffc561;stop-opacity:1;"
         offset="1"
         id="stop13" /></linearGradient><linearGradient
       xlink:href="#linearGradient12"
       id="linearGradient80"
       gradientUnits="userSpaceOnUse"
       x1="99.542145"
       y1="34.102325"
       x2="101.22619"
       y2="36.008289" /><linearGradient
       xlink:href="#linearGradient12"
       id="linearGradient82"
       gradientUnits="userSpaceOnUse"
       x1="99.542145"
       y1="34.102325"
       x2="101.22619"
       y2="36.008289" /><linearGradient
       xlink:href="#linearGradient81"
       id="linearGradient83"
       x1="118.27411"
       y1="-58.326988"
       x2="139.29836"
       y2="-46.961353"
       gradientUnits="userSpaceOnUse"
       gradientTransform="translate(15.979557,20.579753)" /><linearGradient
       xlink:href="#linearGradient81"
       id="linearGradient211"
       gradientUnits="userSpaceOnUse"
       gradientTransform="translate(15.979557,20.579753)"
       x1="118.27411"
       y1="-58.326988"
       x2="139.29836"
       y2="-46.961353" /></defs><g
     id="g6"
     transform="translate(-57.789067,-133.36196)"
     style="display:none"><rect
       style="display:inline;fill:#00ff00;fill-rule:evenodd;stroke-width:1.1594;stroke-linecap:round;stroke-linejoin:round;paint-order:stroke fill markers"
       id="rect6"
       width="30.258623"
       height="40.917274"
       x="81.029907"
       y="133.97229"
       ry="0.28372243" /><g
       id="g539-1-3-0"
       transform="matrix(5.2370098,0,0,5.2276578,-433.40811,-43.151986)"
       style="display:inline;fill:#00ff00;stroke-width:0.87557"><path
         id="ellipse11-5-1-0"
         style="display:inline;fill:#19101b;fill-opacity:1;fill-rule:evenodd;stroke:#19101b;stroke-width:0.236755;stroke-linejoin:round;stroke-dasharray:none;stroke-dashoffset:0;stroke-opacity:1;paint-order:stroke fill markers"
         d="m 100.52153,34.119608 a 0.86320764,1.0699134 0 0 0 -0.862469,1.07013 0.86320764,1.0699134 0 0 0 0.862469,1.069791 v 4.51e-4 h 0.20462 v -0.0014 a 0.86320764,1.0699134 0 0 0 0.0876,-0.01173 0.86320764,1.0699134 0 0 0 0.0231,-0.0032 0.86320764,1.0699134 0 0 0 0.31201,-0.147654 l -0.002,3.38e-4 a 0.86320764,1.0699134 0 0 0 0.0738,-0.06407 l 0.002,-3.39e-4 a 0.86320764,1.0699134 0 0 0 0.13029,-0.156565 l -0.002,2.25e-4 a 0.86320764,1.0699134 0 0 0 0.0329,-0.05211 l 0.002,-2.26e-4 a 0.86320764,1.0699134 0 0 0 0.0691,-0.138066 l -10e-4,1.12e-4 a 0.86320764,1.0699134 0 0 0 0.0193,-0.0485 l 0.002,-1.13e-4 a 0.86320764,1.0699134 0 0 0 0.0398,-0.12972 h -0.001 a 0.86320764,1.0699134 0 0 0 0.0107,-0.04647 h 0.002 a 0.86320764,1.0699134 0 0 0 0.0201,-0.126674 h -0.001 a 0.86320764,1.0699134 0 0 0 0.004,-0.04535 h 0.002 a 0.86320764,1.0699134 0 0 0 0.004,-0.0987 0.86320764,1.0699134 0 0 0 0,-0.02741 l -0.002,-1.13e-4 a 0.86320764,1.0699134 0 0 0 -0.002,-0.04557 l 0.002,2.25e-4 a 0.86320764,1.0699134 0 0 0 -0.0134,-0.127689 l -0.002,-3.38e-4 a 0.86320764,1.0699134 0 0 0 -0.008,-0.04704 l 0.003,3.39e-4 a 0.86320764,1.0699134 0 0 0 -0.0326,-0.132314 l -0.003,-4.51e-4 a 0.86320764,1.0699134 0 0 0 0,-1.13e-4 0.86320764,1.0699134 0 0 0 -0.0164,-0.04952 l 0.003,4.51e-4 a 0.86320764,1.0699134 0 0 0 -0.061,-0.142015 l -0.003,-5.64e-4 v -1.12e-4 a 0.86320764,1.0699134 0 0 0 -0.0297,-0.05426 l 0.003,6.77e-4 a 0.86320764,1.0699134 0 0 0 -0.11833,-0.164913 l -0.004,-10e-4 a 0.86320764,1.0699134 0 0 0 -0.0681,-0.06926 l 0.004,10e-4 a 0.86320764,1.0699134 0 0 0 -0.29441,-0.173824 0.86320764,1.0699134 0 0 0 -0.0206,-0.0058 0.86320764,1.0699134 0 0 0 -0.0813,-0.0194 0.86320764,1.0699134 0 0 0 -0.0358,-0.0045 0.86320764,1.0699134 0 0 0 -0.0459,-0.0058 v -0.001 h -0.0356 -0.16796 z" /><path
         id="circle39-2-9-6"
         style="display:inline;fill:url(#linearGradient80);fill-rule:evenodd;stroke:none;stroke-width:0.342945;stroke-dasharray:none;stroke-dashoffset:0;stroke-opacity:1;paint-order:stroke fill markers"
         d="m 100.52155,34.119557 a 0.86320764,1.0699134 0 0 0 -0.862476,1.070219 0.86320764,1.0699134 0 0 0 0.862476,1.069702 v 5.17e-4 h 0.20464 v -0.0016 a 0.86320764,1.0699134 0 0 0 0.42272,-0.162264 l -0.22945,0.04341 a 0.86320764,1.0699134 0 0 0 0.0951,-0.0708 l 0.20825,-0.03669 a 0.86320764,1.0699134 0 0 0 0.13023,-0.15658 l -0.18604,0.02584 a 0.86320764,1.0699134 0 0 0 0.0372,-0.05529 l 0.1819,-0.02274 a 0.86320764,1.0699134 0 0 0 0.0692,-0.137976 l -0.17415,0.01499 a 0.86320764,1.0699134 0 0 0 0.0207,-0.05116 l 0.17311,-0.0124 a 0.86320764,1.0699134 0 0 0 0.0398,-0.129708 l -0.16949,0.0057 a 0.86320764,1.0699134 0 0 0 0.0114,-0.04858 l 0.16899,-0.0036 a 0.86320764,1.0699134 0 0 0 0.0201,-0.126607 l -0.16795,-0.0031 a 0.86320764,1.0699134 0 0 0 0.005,-0.04754 l 0.16743,0.0052 a 0.86320764,1.0699134 0 0 0 0.004,-0.0987 0.86320764,1.0699134 0 0 0 0,-0.02739 l -0.16846,-0.01137 a 0.86320764,1.0699134 0 0 0 -0.002,-0.04806 l 0.16898,0.01395 a 0.86320764,1.0699134 0 0 0 -0.0134,-0.127641 l -0.17157,-0.02067 a 0.86320764,1.0699134 0 0 0 -0.009,-0.04961 l 0.1726,0.02325 a 0.86320764,1.0699134 0 0 0 -0.0326,-0.132292 l -0.17828,-0.03101 a 0.86320764,1.0699134 0 0 0 -0.0186,-0.05219 l 0.18036,0.03359 a 0.86320764,1.0699134 0 0 0 -0.061,-0.14211 l -0.19121,-0.04289 a 0.86320764,1.0699134 0 0 0 -0.0351,-0.05839 l 0.19689,0.04703 a 0.86320764,1.0699134 0 0 0 -0.11834,-0.164848 l -0.22996,-0.06305 a 0.86320764,1.0699134 0 0 0 -5.1e-4,-5.17e-4 0.86320764,1.0699134 0 0 0 -0.10181,-0.08216 l 0.26407,0.07648 a 0.86320764,1.0699134 0 0 0 -0.47801,-0.20929 v -0.001 h -0.0357 -0.16795 z" /><path
         id="path5-7-8-1"
         style="display:inline;fill:#19101b;fill-opacity:1;stroke-width:0.00417125"
         d="m 101.071,34.853626 -0.28752,0.02255 c -0.18238,0.01462 -0.28356,0.08205 -0.3123,0.201728 l -0.10315,0.427006 c -8e-4,0.0038 -8.2e-4,0.0082 -0.002,0.01322 8e-5,0.0051 0.002,0.0112 0.007,0.01829 0.005,0.0068 0.0133,0.01048 0.0245,0.01113 l 0.0865,0.0049 c 0.0116,6.74e-4 0.0224,-0.0026 0.0329,-0.01 0.0105,-0.0077 0.0172,-0.01746 0.02,-0.0299 l 0.029,-0.115331 0.35288,0.0085 0.002,0.125299 c 2.2e-4,0.0136 0.005,0.02532 0.0145,0.03479 0.009,0.0091 0.0224,0.01425 0.0373,0.01512 l 0.10409,0.0059 c 0.0147,8.52e-4 0.027,-0.003 0.0375,-0.01124 0.0111,-0.0086 0.0158,-0.01959 0.0156,-0.03304 l -0.01,-0.644873 c -2.1e-4,-0.01272 -0.006,-0.02369 -0.0149,-0.0326 -0.009,-0.0089 -0.0207,-0.01273 -0.0346,-0.01164 z m -1.119202,0.08459 c -0.0092,5.73e-4 -0.01701,0.005 -0.02354,0.01314 -0.0065,0.0082 -0.0098,0.01744 -0.0098,0.02789 v 0.499138 c 0,0.01044 0.0032,0.01977 0.0098,0.028 0.0065,0.008 0.01438,0.01234 0.02354,0.01302 l 0.06785,0.005 c 0.009,7.03e-4 0.0176,-0.0023 0.0242,-0.009 0.007,-0.0069 0.0104,-0.01584 0.0104,-0.02661 v -0.201427 l 0.0811,0.0016 c 0.0232,4.45e-4 0.0432,0.0083 0.06,0.0234 0.017,0.01501 0.0338,0.03746 0.0507,0.06742 l 0.0722,0.125429 c 0.007,0.01192 0.0168,0.02242 0.0294,0.03155 8.1e-4,6.5e-4 0.002,0.0013 0.002,0.002 -0.003,-0.0066 -0.006,-0.01383 -0.006,-0.02163 v -4.42e-4 -8.55e-4 c 2.6e-4,-0.006 5.8e-4,-0.01182 0.002,-0.01713 l 4.2e-4,2.6e-5 v -4.41e-4 l 0.0404,-0.168734 c -0.0147,-0.02326 -0.0313,-0.04512 -0.0501,-0.06489 -0.0193,-0.02047 -0.0379,-0.03274 -0.0561,-0.03692 0.0259,-0.0066 0.047,-0.0181 0.0631,-0.03458 0.0166,-0.0166 0.0317,-0.03775 0.0451,-0.06347 l 0.0951,-0.180438 c 0.005,-0.01001 0.008,-0.01851 0.008,-0.0255 0,-0.01277 -0.007,-0.01872 -0.0214,-0.01781 l -0.10056,0.0063 c -0.0257,0.0019 -0.0458,0.01738 -0.0606,0.04633 l -0.0635,0.122788 c -0.0161,0.03119 -0.033,0.05372 -0.0507,0.06768 -0.0173,0.01385 -0.0374,0.02082 -0.06,0.02099 l -0.0811,6.14e-4 v -0.198515 c 0,-0.01078 -0.004,-0.01996 -0.0104,-0.02756 -0.006,-0.0076 -0.0147,-0.01108 -0.0242,-0.01048 z m 0.962182,0.06804 0.004,0.259052 -0.31821,9.36e-4 0.0397,-0.151334 c 0.007,-0.02912 0.0221,-0.05248 0.0448,-0.07053 0.0231,-0.01855 0.051,-0.02849 0.0829,-0.03014 z"
         transform="matrix(0.96203967,0,0,0.96203967,3.8017489,1.3108761)" /><path
         id="ellipse10-6-6-3"
         style="display:inline;fill:#19101b;fill-opacity:1;fill-rule:evenodd;stroke-width:0.621637;stroke-dasharray:0.621637, 0.621637"
         d="m 100.52259,34.212058 a 0.78879362,0.97767991 0 0 0 -0.789102,0.977718 0.78879362,0.97767991 0 0 0 0.789102,0.977718 0.78879362,0.97767991 0 0 0 0.78858,-0.977718 0.78879362,0.97767991 0 0 0 -0.78858,-0.977718 z m 0,0.08682 a 0.71875006,0.89086354 0 0 1 0.71882,0.890902 0.71875006,0.89086354 0 0 1 -0.71882,0.890902 0.71875006,0.89086354 0 0 1 -0.718822,-0.890902 0.71875006,0.89086354 0 0 1 0.718822,-0.890902 z" /></g><path
       id="path27-8-8"
       style="display:inline;fill:none;fill-opacity:1;fill-rule:evenodd;stroke:#19101b;stroke-width:1.97303;stroke-dasharray:none;stroke-opacity:1;paint-order:stroke fill markers"
       d="m 92.410774,170.08977 c -0.05565,1.76373 1.648277,3.2575 3.805833,3.33643 2.157543,0.079 3.951723,-1.28676 4.007373,-3.05043 0.0556,-1.76372 -1.648292,-3.2575 -3.805833,-3.33645 -2.157557,-0.0789 -3.951719,1.28678 -4.007373,3.05045 z" /><path
       id="path75-9"
       style="display:inline;fill:none;fill-opacity:1;fill-rule:evenodd;stroke:#19101b;stroke-width:1.45787;stroke-dasharray:none;stroke-opacity:1;paint-order:stroke fill markers"
       d="m 82.677423,168.97794 c -0.09057,1.20602 1.022763,2.2659 2.486806,2.36713 1.463897,0.10131 2.724,-0.79425 2.814462,-2.00028 0.09056,-1.20603 -1.022817,-2.2659 -2.486784,-2.36717 -1.463943,-0.10128 -2.72398,0.79427 -2.814484,2.00032 z" /><path
       id="path77-3"
       style="display:inline;fill:none;fill-opacity:1;fill-rule:evenodd;stroke:#19101b;stroke-width:1.86101;stroke-linecap:round;stroke-linejoin:round;stroke-dasharray:none;stroke-dashoffset:0;stroke-opacity:1;paint-order:stroke markers fill"
       d="m 99.144437,143.74709 c 0.433235,-0.13734 0.880853,-0.18418 1.317963,-0.13371 1.4456,0.16732 2.54655,1.35132 2.68677,3.00552 0.14183,1.65935 -0.72611,3.28355 -2.10177,4.06877 -0.006,-0.10852 -0.0151,-0.23595 -0.0263,-0.3795 -0.12693,-1.54366 -2.785931,-4.69993 -3.919447,-4.92155 -0.01466,-0.003 -0.02936,-0.004 -0.04346,-0.007 0.509098,-0.77748 1.249336,-1.36745 2.086626,-1.63292 z"
       transform="matrix(-1,0,0,1,194.46107,4.6493437)" /><path
       id="path60-4"
       style="display:inline;fill:#bc36d9;fill-opacity:1;fill-rule:evenodd;stroke:#19101b;stroke-width:1.97304;stroke-dasharray:none;stroke-opacity:1;paint-order:stroke fill markers"
       d="m 102.4183,169.08836 c 0.0657,1.40051 1.52226,2.47266 3.25327,2.3947 1.731,-0.0779 3.08098,-1.27643 3.01526,-2.6769 -0.0657,-1.4005 -1.52228,-2.47263 -3.25327,-2.3947 -1.73102,0.0779 -3.08098,1.27643 -3.01526,2.6769 z" /><path
       id="path8-1-4"
       style="display:inline;fill:#bc36d9;fill-opacity:1;fill-rule:evenodd;stroke:#19101b;stroke-width:1.86101;stroke-linecap:round;stroke-linejoin:round;stroke-dasharray:none;stroke-dashoffset:0;stroke-opacity:1;paint-order:stroke markers fill"
       d="m 104.91235,148.61693 a 3.433371,3.4855985 77.322997 0 1 1.31885,-0.12942 3.433371,3.4855985 77.322997 0 1 2.97213,2.34763 3.433371,3.4855985 77.322997 0 1 -1.01228,3.63905 c -0.0268,-0.0918 -0.061,-0.19913 -0.0998,-0.31992 -0.42481,-1.29983 -3.78901,-3.80535 -5.16936,-3.93143 -0.0187,-0.002 -0.0369,-0.002 -0.0548,-0.003 a 3.433371,3.4855985 77.322997 0 1 2.04568,-1.60269 z" /><path
       id="path30-6"
       style="display:inline;fill:#ca6ad1;fill-opacity:1;fill-rule:evenodd;stroke:#19101b;stroke-width:1.9;stroke-linecap:round;stroke-linejoin:round;stroke-dasharray:none;stroke-opacity:1;paint-order:stroke fill markers"
       d="m 98.269303,149.26542 c 5.889707,-2.3e-4 10.664407,4.77423 10.664467,10.66394 -0.007,5.77817 -4.60966,10.51137 -10.385931,10.65982 l -0.0021,5.2e-4 -0.221692,0.004 h -0.0015 l -5.99343,0.0971 -5.2e-4,-0.004 h -0.001 c -5.42563,8e-5 -9.82406,-4.41825 -9.82421,-9.86865 -4e-5,-4.38909 2.88538,-8.25078 7.08071,-9.47643 v -0.002 l 5.5578,-1.6061 h 5.17e-4 l 0.0016,-5.2e-4 0.201021,-0.0512 -0.0011,8e-4 c 0.951032,-0.27427 1.935616,-0.4148 2.925402,-0.41754 z" /><g
       id="g25-18-0"
       style="display:inline;fill:#c44fd1;fill-opacity:1;stroke-width:0.873661"
       transform="matrix(-4.7499505,0.00320525,0.00320525,4.7499505,548.19873,-26.673618)"><rect
         style="fill:#bc36d9;fill-opacity:1;fill-rule:evenodd;stroke-width:0.755717;stroke-dasharray:0.755717, 0.755717"
         id="rect21-9-6"
         width="1.8024739"
         height="0.82682288"
         x="92.918358"
         y="39.298889"
         ry="0.3156108" /><rect
         style="fill:#8929b6;fill-opacity:1;fill-rule:evenodd;stroke-width:0.188964;stroke-dasharray:0.188964, 0.188964"
         id="rect24-2-6"
         width="0.5037694"
         height="0.18496683"
         x="39.478928"
         y="-93.639229"
         ry="0.070604645"
         transform="rotate(90)" /><rect
         style="fill:#8929b6;fill-opacity:1;fill-rule:evenodd;stroke-width:0.188964;stroke-dasharray:0.188964, 0.188964"
         id="rect25-7-1"
         width="0.5037694"
         height="0.18496683"
         x="39.478928"
         y="-94.189064"
         ry="0.070604645"
         transform="rotate(90)" /></g><rect
       style="display:inline;fill:#8929b6;fill-opacity:1;fill-rule:evenodd;stroke-width:0.651479;stroke-linecap:round;stroke-linejoin:round;paint-order:stroke fill markers"
       id="rect81"
       width="1.2227088"
       height="3.5808938"
       x="-106.54156"
       y="155.62177"
       ry="0.71393007"
       transform="scale(-1,1)" /><rect
       style="display:inline;fill:#8929b6;fill-opacity:1;fill-rule:evenodd;stroke-width:0.651479;stroke-linecap:round;stroke-linejoin:round;paint-order:stroke fill markers"
       id="rect43-9-4"
       width="1.2227088"
       height="3.5808938"
       x="-102.43079"
       y="155.57915"
       ry="0.71393007"
       transform="scale(-1,1)" /><path
       id="ellipse21-6-2-3"
       style="display:inline;fill:#8929b6;fill-opacity:1;fill-rule:evenodd;stroke:none;stroke-width:1.45787;stroke-dasharray:none;stroke-opacity:1;paint-order:stroke fill markers"
       d="m 82.677423,168.97794 c -0.09057,1.20602 1.022763,2.2659 2.486806,2.36713 1.463897,0.10131 2.724,-0.79425 2.814462,-2.00028 0.09056,-1.20603 -1.022817,-2.2659 -2.486784,-2.36717 -1.463943,-0.10128 -2.72398,0.79427 -2.814484,2.00032 z" /><path
       id="path67-7"
       style="display:inline;fill:#bc36d9;fill-opacity:1;fill-rule:evenodd;stroke:none;stroke-width:1.97303;stroke-dasharray:none;stroke-opacity:1;paint-order:stroke fill markers"
       d="m 92.410774,170.08977 c -0.05565,1.76373 1.648277,3.2575 3.805833,3.33643 2.157543,0.079 3.951723,-1.28676 4.007373,-3.05043 0.0556,-1.76372 -1.648292,-3.2575 -3.805833,-3.33645 -2.157557,-0.0789 -3.951719,1.28678 -4.007373,3.05045 z" /><path
       id="path71-8"
       style="display:inline;fill:#bc36d9;fill-opacity:1;fill-rule:evenodd;stroke:none;stroke-width:1.86101;stroke-linecap:round;stroke-linejoin:round;stroke-dasharray:none;stroke-dashoffset:0;stroke-opacity:1;paint-order:stroke markers fill"
       d="m 98.955704,143.79283 c 0.415601,-0.1327 0.855965,-0.17791 1.298426,-0.12614 1.53976,0.18056 2.86882,1.48781 3.15406,3.37357 0.30105,1.98074 -0.65971,3.79419 -2.2438,4.44482 -0.0115,-0.13057 -0.0281,-0.28404 -0.0475,-0.45644 -0.21047,-1.81349 -2.99229,-5.42922 -4.020478,-5.69857 -0.01291,-0.004 -0.02584,-0.005 -0.03822,-0.008 0.449394,-0.72732 1.116222,-1.27943 1.89788,-1.52904 z"
       transform="matrix(-1,0,0,1,194.46107,4.6493437)" /></g><g
     id="g8"
     transform="translate(3.7265554,-133.36196)"
     style="display:none"><rect
       style="fill:#00ff00;fill-rule:evenodd;stroke-width:1.1594;stroke-linecap:round;stroke-linejoin:round;paint-order:stroke fill markers"
       id="rect8"
       width="39.659931"
       height="41.231022"
       x="81.994141"
       y="132.80629"
       ry="0.28589794" /><g
       id="g539-1-3-0-2"
       transform="matrix(5.2370098,0,0,5.2276579,-431.92621,-43.832454)"
       style="display:inline;fill:#00ff00;stroke-width:0.87557"><path
         id="ellipse11-5-1-0-6"
         style="display:inline;fill:#19101b;fill-opacity:1;fill-rule:evenodd;stroke:#19101b;stroke-width:0.236755;stroke-linejoin:round;stroke-dasharray:none;stroke-dashoffset:0;stroke-opacity:1;paint-order:stroke fill markers"
         d="m 100.52153,34.119608 a 0.86320764,1.0699134 0 0 0 -0.862469,1.07013 0.86320764,1.0699134 0 0 0 0.862469,1.069791 v 4.51e-4 h 0.20462 v -0.0014 a 0.86320764,1.0699134 0 0 0 0.0876,-0.01173 0.86320764,1.0699134 0 0 0 0.0231,-0.0032 0.86320764,1.0699134 0 0 0 0.31201,-0.147654 l -0.002,3.38e-4 a 0.86320764,1.0699134 0 0 0 0.0738,-0.06407 l 0.002,-3.39e-4 a 0.86320764,1.0699134 0 0 0 0.13029,-0.156565 l -0.002,2.25e-4 a 0.86320764,1.0699134 0 0 0 0.0329,-0.05211 l 0.002,-2.26e-4 a 0.86320764,1.0699134 0 0 0 0.0691,-0.138066 l -10e-4,1.12e-4 a 0.86320764,1.0699134 0 0 0 0.0193,-0.0485 l 0.002,-1.13e-4 a 0.86320764,1.0699134 0 0 0 0.0398,-0.12972 h -0.001 a 0.86320764,1.0699134 0 0 0 0.0107,-0.04647 h 0.002 a 0.86320764,1.0699134 0 0 0 0.0201,-0.126674 h -0.001 a 0.86320764,1.0699134 0 0 0 0.004,-0.04535 h 0.002 a 0.86320764,1.0699134 0 0 0 0.004,-0.0987 0.86320764,1.0699134 0 0 0 0,-0.02741 l -0.002,-1.13e-4 a 0.86320764,1.0699134 0 0 0 -0.002,-0.04557 l 0.002,2.25e-4 a 0.86320764,1.0699134 0 0 0 -0.0134,-0.127689 l -0.002,-3.38e-4 a 0.86320764,1.0699134 0 0 0 -0.008,-0.04704 l 0.003,3.39e-4 a 0.86320764,1.0699134 0 0 0 -0.0326,-0.132314 l -0.003,-4.51e-4 a 0.86320764,1.0699134 0 0 0 0,-1.13e-4 0.86320764,1.0699134 0 0 0 -0.0164,-0.04952 l 0.003,4.51e-4 a 0.86320764,1.0699134 0 0 0 -0.061,-0.142015 l -0.003,-5.64e-4 v -1.12e-4 a 0.86320764,1.0699134 0 0 0 -0.0297,-0.05426 l 0.003,6.77e-4 a 0.86320764,1.0699134 0 0 0 -0.11833,-0.164913 l -0.004,-10e-4 a 0.86320764,1.0699134 0 0 0 -0.0681,-0.06926 l 0.004,10e-4 a 0.86320764,1.0699134 0 0 0 -0.29441,-0.173824 0.86320764,1.0699134 0 0 0 -0.0206,-0.0058 0.86320764,1.0699134 0 0 0 -0.0813,-0.0194 0.86320764,1.0699134 0 0 0 -0.0358,-0.0045 0.86320764,1.0699134 0 0 0 -0.0459,-0.0058 v -0.001 h -0.0356 -0.16796 z" /><path
         id="circle39-2-9-6-0"
         style="display:inline;fill:url(#linearGradient82);fill-rule:evenodd;stroke:none;stroke-width:0.342945;stroke-dasharray:none;stroke-dashoffset:0;stroke-opacity:1;paint-order:stroke fill markers"
         d="m 100.52155,34.119557 a 0.86320764,1.0699134 0 0 0 -0.862476,1.070219 0.86320764,1.0699134 0 0 0 0.862476,1.069702 v 5.17e-4 h 0.20464 v -0.0016 a 0.86320764,1.0699134 0 0 0 0.42272,-0.162264 l -0.22945,0.04341 a 0.86320764,1.0699134 0 0 0 0.0951,-0.0708 l 0.20825,-0.03669 a 0.86320764,1.0699134 0 0 0 0.13023,-0.15658 l -0.18604,0.02584 a 0.86320764,1.0699134 0 0 0 0.0372,-0.05529 l 0.1819,-0.02274 a 0.86320764,1.0699134 0 0 0 0.0692,-0.137976 l -0.17415,0.01499 a 0.86320764,1.0699134 0 0 0 0.0207,-0.05116 l 0.17311,-0.0124 a 0.86320764,1.0699134 0 0 0 0.0398,-0.129708 l -0.16949,0.0057 a 0.86320764,1.0699134 0 0 0 0.0114,-0.04858 l 0.16899,-0.0036 a 0.86320764,1.0699134 0 0 0 0.0201,-0.126607 l -0.16795,-0.0031 a 0.86320764,1.0699134 0 0 0 0.005,-0.04754 l 0.16743,0.0052 a 0.86320764,1.0699134 0 0 0 0.004,-0.0987 0.86320764,1.0699134 0 0 0 0,-0.02739 l -0.16846,-0.01137 a 0.86320764,1.0699134 0 0 0 -0.002,-0.04806 l 0.16898,0.01395 a 0.86320764,1.0699134 0 0 0 -0.0134,-0.127641 l -0.17157,-0.02067 a 0.86320764,1.0699134 0 0 0 -0.009,-0.04961 l 0.1726,0.02325 a 0.86320764,1.0699134 0 0 0 -0.0326,-0.132292 l -0.17828,-0.03101 a 0.86320764,1.0699134 0 0 0 -0.0186,-0.05219 l 0.18036,0.03359 a 0.86320764,1.0699134 0 0 0 -0.061,-0.14211 l -0.19121,-0.04289 a 0.86320764,1.0699134 0 0 0 -0.0351,-0.05839 l 0.19689,0.04703 a 0.86320764,1.0699134 0 0 0 -0.11834,-0.164848 l -0.22996,-0.06305 a 0.86320764,1.0699134 0 0 0 -5.1e-4,-5.17e-4 0.86320764,1.0699134 0 0 0 -0.10181,-0.08216 l 0.26407,0.07648 a 0.86320764,1.0699134 0 0 0 -0.47801,-0.20929 v -0.001 h -0.0357 -0.16795 z" /><path
         id="path5-7-8-1-1"
         style="display:inline;fill:#19101b;fill-opacity:1;stroke-width:0.00417125"
         d="m 101.071,34.853626 -0.28752,0.02255 c -0.18238,0.01462 -0.28356,0.08205 -0.3123,0.201728 l -0.10315,0.427006 c -8e-4,0.0038 -8.2e-4,0.0082 -0.002,0.01322 8e-5,0.0051 0.002,0.0112 0.007,0.01829 0.005,0.0068 0.0133,0.01048 0.0245,0.01113 l 0.0865,0.0049 c 0.0116,6.74e-4 0.0224,-0.0026 0.0329,-0.01 0.0105,-0.0077 0.0172,-0.01746 0.02,-0.0299 l 0.029,-0.115331 0.35288,0.0085 0.002,0.125299 c 2.2e-4,0.0136 0.005,0.02532 0.0145,0.03479 0.009,0.0091 0.0224,0.01425 0.0373,0.01512 l 0.10409,0.0059 c 0.0147,8.52e-4 0.027,-0.003 0.0375,-0.01124 0.0111,-0.0086 0.0158,-0.01959 0.0156,-0.03304 l -0.01,-0.644873 c -2.1e-4,-0.01272 -0.006,-0.02369 -0.0149,-0.0326 -0.009,-0.0089 -0.0207,-0.01273 -0.0346,-0.01164 z m -1.119202,0.08459 c -0.0092,5.73e-4 -0.01701,0.005 -0.02354,0.01314 -0.0065,0.0082 -0.0098,0.01744 -0.0098,0.02789 v 0.499138 c 0,0.01044 0.0032,0.01977 0.0098,0.028 0.0065,0.008 0.01438,0.01234 0.02354,0.01302 l 0.06785,0.005 c 0.009,7.03e-4 0.0176,-0.0023 0.0242,-0.009 0.007,-0.0069 0.0104,-0.01584 0.0104,-0.02661 v -0.201427 l 0.0811,0.0016 c 0.0232,4.45e-4 0.0432,0.0083 0.06,0.0234 0.017,0.01501 0.0338,0.03746 0.0507,0.06742 l 0.0722,0.125429 c 0.007,0.01192 0.0168,0.02242 0.0294,0.03155 8.1e-4,6.5e-4 0.002,0.0013 0.002,0.002 -0.003,-0.0066 -0.006,-0.01383 -0.006,-0.02163 v -4.42e-4 -8.55e-4 c 2.6e-4,-0.006 5.8e-4,-0.01182 0.002,-0.01713 l 4.2e-4,2.6e-5 v -4.41e-4 l 0.0404,-0.168734 c -0.0147,-0.02326 -0.0313,-0.04512 -0.0501,-0.06489 -0.0193,-0.02047 -0.0379,-0.03274 -0.0561,-0.03692 0.0259,-0.0066 0.047,-0.0181 0.0631,-0.03458 0.0166,-0.0166 0.0317,-0.03775 0.0451,-0.06347 l 0.0951,-0.180438 c 0.005,-0.01001 0.008,-0.01851 0.008,-0.0255 0,-0.01277 -0.007,-0.01872 -0.0214,-0.01781 l -0.10056,0.0063 c -0.0257,0.0019 -0.0458,0.01738 -0.0606,0.04633 l -0.0635,0.122788 c -0.0161,0.03119 -0.033,0.05372 -0.0507,0.06768 -0.0173,0.01385 -0.0374,0.02082 -0.06,0.02099 l -0.0811,6.14e-4 v -0.198515 c 0,-0.01078 -0.004,-0.01996 -0.0104,-0.02756 -0.006,-0.0076 -0.0147,-0.01108 -0.0242,-0.01048 z m 0.962182,0.06804 0.004,0.259052 -0.31821,9.36e-4 0.0397,-0.151334 c 0.007,-0.02912 0.0221,-0.05248 0.0448,-0.07053 0.0231,-0.01855 0.051,-0.02849 0.0829,-0.03014 z"
         transform="matrix(0.96203967,0,0,0.96203967,3.8017489,1.3108761)" /><path
         id="ellipse10-6-6-3-6"
         style="display:inline;fill:#19101b;fill-opacity:1;fill-rule:evenodd;stroke-width:0.621637;stroke-dasharray:0.621637, 0.621637"
         d="m 100.52259,34.212058 a 0.78879362,0.97767991 0 0 0 -0.789102,0.977718 0.78879362,0.97767991 0 0 0 0.789102,0.977718 0.78879362,0.97767991 0 0 0 0.78858,-0.977718 0.78879362,0.97767991 0 0 0 -0.78858,-0.977718 z m 0,0.08682 a 0.71875006,0.89086354 0 0 1 0.71882,0.890902 0.71875006,0.89086354 0 0 1 -0.71882,0.890902 0.71875006,0.89086354 0 0 1 -0.718822,-0.890902 0.71875006,0.89086354 0 0 1 0.718822,-0.890902 z" /></g><path
       id="path8-1-4-7"
       style="display:inline;fill:#bc36d9;fill-opacity:1;fill-rule:evenodd;stroke:#19101b;stroke-width:1.86101;stroke-linecap:round;stroke-linejoin:round;stroke-dasharray:none;stroke-dashoffset:0;stroke-opacity:1;paint-order:stroke markers fill"
       d="m 104.9522,144.64143 a 3.433371,3.4855985 77.322997 0 1 1.31885,-0.12942 3.433371,3.4855985 77.322997 0 1 2.97213,2.34763 3.433371,3.4855985 77.322997 0 1 -1.01228,3.63905 c -0.0268,-0.0918 -0.061,-0.19913 -0.0998,-0.31992 -0.42481,-1.29983 -3.78901,-3.80535 -5.16936,-3.93143 -0.0187,-0.002 -0.0369,-0.002 -0.0548,-0.003 a 3.433371,3.4855985 77.322997 0 1 2.04568,-1.60269 z" /><path
       id="path85"
       style="display:inline;fill:#8929b6;fill-opacity:1;fill-rule:evenodd;stroke:#19101b;stroke-width:1.858;stroke-dasharray:none;stroke-opacity:1;paint-order:stroke fill markers"
       d="m 95.624501,169.98834 c -0.09604,1.27882 1.084501,2.40268 2.636921,2.51002 1.552269,0.10743 2.888438,-0.84219 2.984358,-2.12102 0.0961,-1.27883 -1.08456,-2.40268 -2.636897,-2.51007 -1.552316,-0.10739 -2.888415,0.84222 -2.984382,2.12107 z" /><path
       id="path86"
       style="display:inline;fill:none;fill-opacity:1;fill-rule:evenodd;stroke:#19101b;stroke-width:1.861;stroke-linecap:round;stroke-linejoin:round;stroke-dasharray:none;stroke-dashoffset:0;stroke-opacity:1;paint-order:stroke markers fill"
       d="m 99.363539,143.8042 c 0.513098,-0.1377 1.051791,-0.1703 1.584031,-0.0872 1.83682,0.28733 3.19684,1.83245 3.19893,3.82109 0.004,1.90623 -1.25266,3.4664 -2.92903,3.9573 2e-5,-0.1083 -0.003,-0.23649 -0.008,-0.38152 -0.0544,-1.59411 -2.912222,-5.299 -4.106995,-5.63884 -0.01512,-0.005 -0.03027,-0.007 -0.04478,-0.0107 0.535912,-0.79562 1.348768,-1.40318 2.305779,-1.66006 z"
       transform="matrix(-0.99793053,0.06430136,0.06430136,0.99793053,185.4707,-3.763902)" /><path
       id="path88"
       style="display:inline;fill:none;fill-opacity:1;fill-rule:evenodd;stroke:#19101b;stroke-width:1.9;stroke-dasharray:none;stroke-opacity:1;paint-order:stroke fill markers"
       d="m 86.165648,170.25292 c -0.09604,1.27882 1.084501,2.40268 2.636921,2.51002 1.552269,0.10743 2.888435,-0.84219 2.984355,-2.12102 0.09607,-1.27883 -1.084562,-2.40268 -2.636894,-2.51007 -1.552316,-0.10739 -2.888415,0.84222 -2.984382,2.12107 z" /><path
       id="path89"
       style="display:inline;fill:none;fill-opacity:1;fill-rule:evenodd;stroke:#19101b;stroke-width:1.9;stroke-dasharray:none;stroke-opacity:1;paint-order:stroke fill markers"
       d="m 105.27874,168.69983 c 0.65232,1.56868 2.74566,2.20352 4.67573,1.41793 1.93008,-0.78554 2.96598,-2.69404 2.31373,-4.26269 -0.65232,-1.56866 -2.74568,-2.20352 -4.67574,-1.41794 -1.93006,0.78562 -2.96596,2.69404 -2.31372,4.2627 z" /><path
       id="path82"
       style="fill:#ca6ad1;fill-opacity:1;fill-rule:evenodd;stroke:#19101b;stroke-width:1.861;stroke-linecap:round;stroke-linejoin:round;stroke-dasharray:none;stroke-opacity:1;paint-order:stroke fill markers"
       d="m 101.65846,146.22286 c -2.964569,0.007 -5.809209,1.17142 -7.927159,3.24579 l -1e-5,-0.001 -0.25683,0.23461 -0.009,0.009 -4.72477,4.75423 c -1.875209,1.80495 -2.934774,4.29555 -2.934709,6.89829 1.22e-4,5.28757 4.286519,9.57397 9.574089,9.57409 1.02087,-2e-5 2.03517,-0.16331 3.00447,-0.48369 l 0.008,-0.003 6.263179,-1.90014 0.003,-0.001 0.55087,-0.1912 h 0.003 c 4.65304,-1.53166 7.8012,-5.87229 7.81192,-10.77092 4e-5,-6.27713 -5.08858,-11.36575 -11.36571,-11.36571 z" /><g
       id="g25-18-0-5"
       style="display:inline;fill:#c44fd1;fill-opacity:1;stroke-width:0.873661"
       transform="matrix(-4.6240026,1.0865727,1.0865727,4.6240026,498.30927,-128.69642)"><rect
         style="fill:#bc36d9;fill-opacity:1;fill-rule:evenodd;stroke-width:0.755717;stroke-dasharray:0.755717, 0.755717"
         id="rect21-9-6-7"
         width="1.8024739"
         height="0.82682288"
         x="92.918358"
         y="39.298889"
         ry="0.3156108" /><rect
         style="fill:#8929b6;fill-opacity:1;fill-rule:evenodd;stroke-width:0.188964;stroke-dasharray:0.188964, 0.188964"
         id="rect24-2-6-5"
         width="0.5037694"
         height="0.18496683"
         x="39.478928"
         y="-93.639229"
         ry="0.070604645"
         transform="rotate(90)" /><rect
         style="fill:#8929b6;fill-opacity:1;fill-rule:evenodd;stroke-width:0.188964;stroke-dasharray:0.188964, 0.188964"
         id="rect25-7-1-4"
         width="0.5037694"
         height="0.18496683"
         x="39.478928"
         y="-94.189064"
         ry="0.070604645"
         transform="rotate(90)" /></g><path
       id="rect26-9-6"
       style="display:inline;fill:#8929b6;fill-rule:evenodd;stroke-width:0.651479;stroke-linecap:round;stroke-linejoin:round;paint-order:stroke fill markers"
       d="m 101.69852,152.08945 c -0.20313,0.0289 -0.38393,0.1649 -0.46079,0.37152 -0.11181,0.3004 0.0402,0.63229 0.34051,0.74409 l 1.71077,0.63712 -1.41395,1.16885 c -0.24703,0.20426 -0.28152,0.56762 -0.0772,0.81467 0.20426,0.24701 0.56763,0.28152 0.81466,0.0772 l 2.17396,-1.79762 c 0.0768,-0.0636 0.13321,-0.14235 0.16812,-0.22828 0.004,-0.009 0.008,-0.0188 0.0109,-0.0283 0.11182,-0.3004 -0.0394,-0.6324 -0.33983,-0.74421 l -2.64358,-0.98339 c -0.0938,-0.035 -0.19107,-0.0446 -0.28344,-0.0318 z" /><path
       id="ellipse21-6-2-3-3"
       style="display:inline;fill:#8929b6;fill-opacity:1;fill-rule:evenodd;stroke:none;stroke-width:1.9;stroke-dasharray:none;stroke-opacity:1;paint-order:stroke fill markers"
       d="m 86.165648,170.25292 c -0.09604,1.27882 1.084501,2.40268 2.636921,2.51002 1.552269,0.10743 2.888435,-0.84219 2.984355,-2.12102 0.09607,-1.27883 -1.084562,-2.40268 -2.636894,-2.51007 -1.552316,-0.10739 -2.888415,0.84222 -2.984382,2.12107 z" /><path
       id="path67-7-6"
       style="display:inline;fill:#bc36d9;fill-opacity:1;fill-rule:evenodd;stroke:none;stroke-width:1.97303;stroke-dasharray:none;stroke-opacity:1;paint-order:stroke fill markers"
       d="m 95.577453,164.15376 c 2.003407,0.38823 4.022578,-1.28203 4.509977,-3.73078 0.48746,-2.44873 -0.741472,-4.74862 -2.744806,-5.13689 -2.003391,-0.38823 -4.022579,1.28204 -4.509985,3.73076 -0.487354,2.44876 0.74148,4.74862 2.744814,5.13691 z" /><path
       id="path71-8-1"
       style="display:inline;fill:#bc36d9;fill-opacity:1;fill-rule:evenodd;stroke:none;stroke-width:1.86101;stroke-linecap:round;stroke-linejoin:round;stroke-dasharray:none;stroke-dashoffset:0;stroke-opacity:1;paint-order:stroke markers fill"
       d="m 99.363539,143.8042 c 0.513098,-0.1377 1.051791,-0.1703 1.584031,-0.0872 1.83682,0.28733 3.19684,1.83245 3.19893,3.82109 0.004,1.90623 -1.25266,3.4664 -2.92903,3.9573 2e-5,-0.1083 -0.003,-0.23649 -0.008,-0.38152 -0.0544,-1.59411 -2.912222,-5.299 -4.106995,-5.63884 -0.01512,-0.005 -0.03027,-0.007 -0.04478,-0.0107 0.535912,-0.79562 1.348768,-1.40318 2.305779,-1.66006 z"
       transform="matrix(-0.99793053,0.06430136,0.06430136,0.99793053,185.4707,-3.7639027)" /><path
       id="path83"
       style="display:inline;fill:#8929b6;fill-rule:evenodd;stroke-width:0.651479;stroke-linecap:round;stroke-linejoin:round;paint-order:stroke fill markers"
       d="m 109.77321,150.46851 c 0.16966,-0.0621 0.36647,-0.0319 0.51203,0.0968 0.21162,0.18669 0.23158,0.50744 0.045,0.71904 l -1.06303,1.20547 1.58321,0.31958 c 0.2766,0.0558 0.4544,0.32354 0.39851,0.60018 -0.0558,0.27662 -0.32357,0.45441 -0.60019,0.39852 l -2.43438,-0.49171 c -0.0861,-0.0174 -0.16255,-0.0552 -0.22536,-0.10731 -0.007,-0.003 -0.0137,-0.0115 -0.0203,-0.0176 -0.21162,-0.18669 -0.23223,-0.50722 -0.0455,-0.71884 l 1.64309,-1.86191 c 0.0582,-0.0662 0.12977,-0.11402 0.20679,-0.14245 z" /><path
       id="path84"
       style="display:inline;fill:#bc36d9;fill-opacity:1;fill-rule:evenodd;stroke:none;stroke-width:1.9;stroke-dasharray:none;stroke-opacity:1;paint-order:stroke fill markers"
       d="m 105.27874,168.69983 c 0.65232,1.56868 2.74566,2.20352 4.67573,1.41793 1.93008,-0.78554 2.96598,-2.69404 2.31373,-4.26269 -0.65232,-1.56866 -2.74568,-2.20352 -4.67574,-1.41794 -1.93006,0.78562 -2.96596,2.69404 -2.31372,4.2627 z" /><g
       id="g90"><path
         style="display:inline;fill:#fcbf68;fill-opacity:1;fill-rule:evenodd;stroke:none;stroke-width:1.36722;stroke-linecap:round;stroke-linejoin:round;stroke-dasharray:none;stroke-dashoffset:0;stroke-opacity:1;paint-order:stroke fill markers"
         id="path14-2"
         d="m 83.489623,21.469179 c -0.563985,-0.02094 -0.85312,-2.13245 -1.257416,-2.52623 -0.381944,-0.372009 -2.459429,-0.541869 -2.439647,-1.074674 0.02094,-0.563985 2.132451,-0.85312 2.52623,-1.257415 0.37201,-0.381944 0.54187,-2.459429 1.074675,-2.439647 0.563984,0.02094 0.85312,2.13245 1.257415,2.52623 0.381944,0.372009 2.459429,0.54187 2.439647,1.074674 -0.02094,0.563985 -2.132451,0.85312 -2.52623,1.257416 -0.372009,0.381944 -0.54187,2.459429 -1.074674,2.439646 z"
         transform="matrix(0.84800031,0,0,0.84800031,45.969436,146.94149)" /><path
         style="display:inline;fill:#da83b8;fill-opacity:1;fill-rule:evenodd;stroke:none;stroke-width:1.41045;stroke-linecap:round;stroke-linejoin:round;stroke-dasharray:none;stroke-dashoffset:0;stroke-opacity:1;paint-order:stroke fill markers"
         id="path16-6"
         d="m 83.489623,21.469179 c -0.563985,-0.02094 -0.85312,-2.13245 -1.257416,-2.52623 -0.381944,-0.372009 -2.459429,-0.541869 -2.439647,-1.074674 0.02094,-0.563985 2.132451,-0.85312 2.52623,-1.257415 0.37201,-0.381944 0.54187,-2.459429 1.074675,-2.439647 0.563984,0.02094 0.85312,2.13245 1.257415,2.52623 0.381944,0.372009 2.459429,0.54187 2.439647,1.074674 -0.02094,0.563985 -2.132451,0.85312 -2.52623,1.257416 -0.372009,0.381944 -0.54187,2.459429 -1.074674,2.439646 z"
         transform="matrix(0.82200956,0,0,0.82200956,17.00711,131.24812)" /><path
         style="display:inline;fill:#da83b8;fill-opacity:1;fill-rule:evenodd;stroke:none;stroke-width:2.62209;stroke-linecap:round;stroke-linejoin:round;stroke-dasharray:none;stroke-dashoffset:0;stroke-opacity:1;paint-order:stroke fill markers"
         id="path90"
         d="m 83.489623,21.469179 c -0.563985,-0.02094 -0.85312,-2.13245 -1.257416,-2.52623 -0.381944,-0.372009 -2.459429,-0.541869 -2.439647,-1.074674 0.02094,-0.563985 2.132451,-0.85312 2.52623,-1.257415 0.37201,-0.381944 0.54187,-2.459429 1.074675,-2.439647 0.563984,0.02094 0.85312,2.13245 1.257415,2.52623 0.381944,0.372009 2.459429,0.54187 2.439647,1.074674 -0.02094,0.563985 -2.132451,0.85312 -2.52623,1.257416 -0.372009,0.381944 -0.54187,2.459429 -1.074674,2.439646 z"
         transform="matrix(0.44216766,0,0,0.44216766,82.208924,149.16597)" /><rect
         style="fill:#fcbf68;fill-opacity:1;fill-rule:evenodd;stroke:none;stroke-width:1.9;stroke-linecap:round;stroke-linejoin:round;stroke-dasharray:none;stroke-opacity:1;paint-order:stroke fill markers"
         id="rect92"
         width="3.9086449"
         height="6.3422098"
         x="177.96278"
         y="39.435368"
         ry="0.85227275"
         transform="rotate(38.040568)" /><rect
         style="fill:#fcbf68;fill-opacity:1;fill-rule:evenodd;stroke:none;stroke-width:1.9;stroke-linecap:round;stroke-linejoin:round;stroke-dasharray:none;stroke-opacity:1;paint-order:stroke fill markers"
         id="rect93"
         width="2.5876222"
         height="5.0284481"
         x="182.73364"
         y="-48.856808"
         ry="0.67572808"
         transform="rotate(65.662509)" /></g></g><style
     type="text/css"
     id="style1">

<![CDATA[
	.st0{fill-rule:evenodd;clip-rule:evenodd;}
]]>

</style><g
     id="g219"
     style="display:inline"
     transform="translate(-4.9505654,-180.19321)"><g
       id="g196"
       transform="translate(-57.960549,120.3054)"><path
         style="display:inline;fill:#19101b;fill-opacity:1;fill-rule:evenodd;stroke:#19101b;stroke-width:1.06869;stroke-linecap:round;stroke-linejoin:round;stroke-dasharray:none;stroke-opacity:1;paint-order:stroke fill markers"
         id="path172"
         d="m 89.194519,57.764359 c -2.074154,0 -6.222463,-7.185082 -5.185386,-8.981352 1.037077,-1.796271 9.333695,-1.796271 10.370772,0 1.037077,1.79627 -3.111231,8.981351 -5.185386,8.981352 z"
         transform="matrix(0.91318186,1.6140802,-1.6153073,0.91524393,109.50014,-119.36647)" /><path
         id="path166"
         style="fill:#c460dd;fill-opacity:1;fill-rule:evenodd;stroke:none;stroke-width:0.638853;stroke-linecap:round;stroke-linejoin:round;paint-order:stroke fill markers"
         d="m 87.514313,47.515893 c 0.02731,0.974021 0.142367,2.031664 0.327593,3.069955 2.242395,-0.97469 4.887451,-1.66155 6.628039,-1.594975 -0.0239,-0.0755 -0.05376,-0.145103 -0.09004,-0.207949 -0.644954,-1.117093 -4.097499,-1.539378 -6.865592,-1.267031 z"
         transform="matrix(0.92587739,1.6036667,-1.6036667,0.92587739,107.81952,-119.09205)" /><path
         id="path165"
         style="fill:#d277c0;fill-opacity:1;fill-rule:evenodd;stroke:none;stroke-width:0.504646;stroke-linecap:round;stroke-linejoin:round;paint-order:stroke fill markers"
         d="m 85.205617,47.982106 c 0.249834,2.081972 1.022101,4.376687 1.915649,4.695053 1.367062,0.487077 5.43959,-2.789109 6.146953,-4.663954 -2.008881,-0.759373 -5.999434,-0.76967 -8.062602,-0.0311 z"
         transform="matrix(1.7854927,1.5189984,-1.5189984,1.7854927,22.229812,-148.96288)" /><path
         id="path185"
         style="fill:#a3b178;fill-opacity:1;fill-rule:evenodd;stroke:none;stroke-width:0.638853;stroke-linecap:round;stroke-linejoin:round;paint-order:stroke fill markers"
         d="m 84.00926,48.782957 c -0.390657,0.676637 -0.04576,2.117908 0.647124,3.651757 0.672938,-0.566939 1.623023,-1.128077 2.694398,-1.62779 -0.196105,-1.096323 -0.313845,-2.214832 -0.332887,-3.233808 -1.462149,0.195239 -2.655709,0.598555 -3.008635,1.209841 z"
         transform="matrix(0.92587739,1.6036667,-1.6036667,0.92587739,107.81952,-119.09205)" /></g><text
       xml:space="preserve"
       style="font-style:normal;font-variant:normal;font-weight:normal;font-stretch:normal;font-size:17.3339px;font-family:'Days One';-inkscape-font-specification:'Days One';text-align:start;writing-mode:lr-tb;direction:ltr;text-anchor:start;fill:#8929b6;fill-opacity:1;fill-rule:evenodd;stroke:#19101b;stroke-width:1.983;stroke-linecap:round;stroke-linejoin:round;stroke-dasharray:none;stroke-opacity:1;paint-order:stroke fill markers"
       x="62.614544"
       y="196.05299"
       id="text203"><tspan
         id="tspan203"
         style="fill:#8929b6;fill-opacity:1;stroke:#19101b;stroke-width:1.983;stroke-opacity:1"
         x="62.614544"
         y="196.05299">=</tspan></text><text
       xml:space="preserve"
       style="font-style:normal;font-variant:normal;font-weight:normal;font-stretch:normal;font-size:17.9118px;font-family:'Days One';-inkscape-font-specification:'Days One';text-align:start;writing-mode:lr-tb;direction:ltr;text-anchor:start;fill:#bc36d9;fill-opacity:1;fill-rule:evenodd;stroke:#19101b;stroke-width:1.983;stroke-linecap:round;stroke-linejoin:round;stroke-dasharray:none;stroke-opacity:1;paint-order:stroke fill markers"
       x="73.704674"
       y="197.03822"
       id="text204"><tspan
         id="tspan204"
         style="stroke:#19101b;stroke-width:1.983;stroke-opacity:1"
         x="73.704674"
         y="197.03822">8k</tspan></text><g
       id="g206"
       style="display:inline;stroke-width:1.78091;stroke-dasharray:none"
       transform="matrix(1.1756086,0,0,1.1827409,-119.15279,250.88181)"><path
         id="path204"
         style="display:inline;fill:url(#linearGradient211);fill-rule:evenodd;stroke:#19101b;stroke-width:1.78091;stroke-linecap:round;stroke-linejoin:round;stroke-dasharray:none;stroke-opacity:1;paint-order:stroke fill markers"
         d="m 137.92557,-36.3183 c -0.53135,0 -0.95912,0.427765 -0.95912,0.959115 v 6.449218 c 0,0.53135 0.42777,0.959115 0.95912,0.959115 h 12.97905 c 0.53135,0 0.95911,-0.427765 0.95911,-0.959115 v -6.449218 c 0,-0.53135 -0.42776,-0.959115 -0.95911,-0.959115 z m 6.48952,1.178739 a 3.0050819,3.0050819 0 0 1 3.00499,3.004985 3.0050819,3.0050819 0 0 1 -3.00499,3.004984 3.0050819,3.0050819 0 0 1 -3.00498,-3.004984 3.0050819,3.0050819 0 0 1 3.00498,-3.004985 z m -2.12338,1.484148 c -0.0446,0 -0.0823,0.01601 -0.11317,0.04806 -0.0309,0.03204 -0.0465,0.07009 -0.0465,0.114721 v 2.137338 c 0,0.04464 0.0166,0.08268 0.0486,0.114721 0.0321,0.0309 0.07,0.04651 0.11472,0.04651 h 0.32247 c 0.0446,0 0.0828,-0.01561 0.11368,-0.04651 0.0321,-0.03205 0.0476,-0.07009 0.0476,-0.114721 v -0.73794 h 0.41909 c 0.17051,0 0.31599,0.09396 0.43615,0.281637 l 0.29197,0.456303 c 0.0274,0.04464 0.0668,0.08268 0.11834,0.114721 0.0526,0.0309 0.10068,0.04651 0.14418,0.04651 h 0.41186 c 0.0583,0 0.0873,-0.02469 0.0873,-0.0739 0,-0.02632 -0.009,-0.05529 -0.0274,-0.08733 l -0.31264,-0.496094 c -0.0755,-0.116726 -0.1421,-0.205484 -0.2005,-0.266134 -0.0584,-0.0618 -0.12199,-0.105044 -0.19069,-0.130224 0.43143,-0.08468 0.64699,-0.293824 0.64699,-0.626836 0,-0.239174 -0.084,-0.428716 -0.25218,-0.569474 -0.16709,-0.140754 -0.38183,-0.211356 -0.64389,-0.211356 z m 0.48731,0.485758 h 0.73173 c 0.11786,0 0.22076,0.02336 0.31006,0.07028 0.0905,0.04692 0.13591,0.121799 0.13591,0.224792 0,0.102994 -0.0455,0.17839 -0.13591,0.22531 -0.0893,0.04692 -0.1922,0.06976 -0.31006,0.06976 h -0.73173 z m 3.33003,0.05994 c -0.23917,0 -0.44913,0.06407 -0.62994,0.192236 v -0.05116 c 0,-0.0309 -0.0104,-0.0565 -0.031,-0.07596 -0.0195,-0.02061 -0.0437,-0.03049 -0.0734,-0.03049 h -0.33124 c -0.0297,0 -0.0548,0.0099 -0.0754,0.03049 -0.0192,0.01946 -0.0295,0.04506 -0.0295,0.07596 v 2.248442 c 0,0.0309 0.01,0.05599 0.0295,0.07545 0.0205,0.0206 0.0457,0.03101 0.0754,0.03101 h 0.38447 c 0.0299,0 0.0544,-0.01041 0.0739,-0.03101 0.0206,-0.01946 0.031,-0.04455 0.031,-0.07545 v -0.526583 c 0.1854,0.05836 0.35075,0.08733 0.4961,0.08733 0.28151,0 0.50482,-0.08355 0.67076,-0.25063 0.16587,-0.167079 0.24908,-0.407846 0.24908,-0.721403 0,-0.314702 -0.0801,-0.555765 -0.2403,-0.723987 -0.16021,-0.169364 -0.36027,-0.254248 -0.59944,-0.254248 z m -0.14573,0.415478 c 0.12474,0 0.21828,0.04458 0.28008,0.133842 0.0629,0.08812 0.0941,0.230126 0.0941,0.425814 0,0.195687 -0.0328,0.338104 -0.0992,0.427364 -0.0652,0.08926 -0.17654,0.134359 -0.33332,0.134359 -0.1007,0 -0.22444,-0.02388 -0.37207,-0.0708 v -0.896069 c 0.16365,-0.102999 0.30687,-0.154513 0.43047,-0.154513 z" /><path
         style="display:inline;fill:#c663d9;fill-opacity:1;fill-rule:evenodd;stroke:#19101b;stroke-width:6.36398;stroke-linecap:round;stroke-linejoin:round;stroke-dasharray:none;stroke-dashoffset:0;stroke-opacity:1;paint-order:stroke fill markers"
         id="path205"
         d="m 83.489623,21.469179 c -0.563985,-0.02094 -0.85312,-2.13245 -1.257416,-2.52623 -0.381944,-0.372009 -2.459429,-0.541869 -2.439647,-1.074674 0.02094,-0.563985 2.132451,-0.85312 2.52623,-1.257415 0.37201,-0.381944 0.54187,-2.459429 1.074675,-2.439647 0.563984,0.02094 0.85312,2.13245 1.257415,2.52623 0.381944,0.372009 2.459429,0.54187 2.439647,1.074674 -0.02094,0.563985 -2.132451,0.85312 -2.52623,1.257416 -0.372009,0.381944 -0.54187,2.459429 -1.074674,2.439646 z"
         transform="matrix(0.27984307,0,0,0.27984307,128.87922,-41.403752)" /><path
         style="display:inline;fill:#df8ea4;fill-opacity:1;fill-rule:evenodd;stroke:#19101b;stroke-width:4.23187;stroke-linecap:round;stroke-linejoin:round;stroke-dasharray:none;stroke-dashoffset:0;stroke-opacity:1;paint-order:stroke fill markers"
         id="path206"
         d="m 83.489623,21.469179 c -0.563985,-0.02094 -0.85312,-2.13245 -1.257416,-2.52623 -0.381944,-0.372009 -2.459429,-0.541869 -2.439647,-1.074674 0.02094,-0.563985 2.132451,-0.85312 2.52623,-1.257415 0.37201,-0.381944 0.54187,-2.459429 1.074675,-2.439647 0.563984,0.02094 0.85312,2.13245 1.257415,2.52623 0.381944,0.372009 2.459429,0.54187 2.439647,1.074674 -0.02094,0.563985 -2.132451,0.85312 -2.52623,1.257416 -0.372009,0.381944 -0.54187,2.459429 -1.074674,2.439646 z"
         transform="matrix(0.42083416,0,0,0.42083416,101.60476,-35.41477)" /></g><g
       id="g210"
       transform="translate(2.1853871,142.6799)"><path
         style="display:inline;fill:#19101b;fill-opacity:1;fill-rule:evenodd;stroke:#19101b;stroke-width:1.06869;stroke-linecap:round;stroke-linejoin:round;stroke-dasharray:none;stroke-opacity:1;paint-order:stroke fill markers"
         id="path207"
         d="m 89.194519,57.764359 c -2.074154,0 -6.222463,-7.185082 -5.185386,-8.981352 1.037077,-1.796271 9.333695,-1.796271 10.370772,0 1.037077,1.79627 -3.111231,8.981351 -5.185386,8.981352 z"
         transform="matrix(0.91318186,1.6140802,-1.6153073,0.91524393,109.50014,-119.36647)" /><path
         id="path208"
         style="fill:#c460dd;fill-opacity:1;fill-rule:evenodd;stroke:none;stroke-width:0.638853;stroke-linecap:round;stroke-linejoin:round;paint-order:stroke fill markers"
         d="m 87.514313,47.515893 c 0.02731,0.974021 0.142367,2.031664 0.327593,3.069955 2.242395,-0.97469 4.887451,-1.66155 6.628039,-1.594975 -0.0239,-0.0755 -0.05376,-0.145103 -0.09004,-0.207949 -0.644954,-1.117093 -4.097499,-1.539378 -6.865592,-1.267031 z"
         transform="matrix(0.92587739,1.6036667,-1.6036667,0.92587739,107.81952,-119.09205)" /><path
         id="path209"
         style="fill:#d277c0;fill-opacity:1;fill-rule:evenodd;stroke:none;stroke-width:0.504646;stroke-linecap:round;stroke-linejoin:round;paint-order:stroke fill markers"
         d="m 85.205617,47.982106 c 0.249834,2.081972 1.022101,4.376687 1.915649,4.695053 1.367062,0.487077 5.43959,-2.789109 6.146953,-4.663954 -2.008881,-0.759373 -5.999434,-0.76967 -8.062602,-0.0311 z"
         transform="matrix(1.7854927,1.5189984,-1.5189984,1.7854927,22.229812,-148.96288)" /><path
         id="path210"
         style="fill:#a3b178;fill-opacity:1;fill-rule:evenodd;stroke:none;stroke-width:0.638853;stroke-linecap:round;stroke-linejoin:round;paint-order:stroke fill markers"
         d="m 84.00926,48.782957 c -0.390657,0.676637 -0.04576,2.117908 0.647124,3.651757 0.672938,-0.566939 1.623023,-1.128077 2.694398,-1.62779 -0.196105,-1.096323 -0.313845,-2.214832 -0.332887,-3.233808 -1.462149,0.195239 -2.655709,0.598555 -3.008635,1.209841 z"
         transform="matrix(0.92587739,1.6036667,-1.6036667,0.92587739,107.81952,-119.09205)" /></g><text
       xml:space="preserve"
       style="font-style:normal;font-variant:normal;font-weight:normal;font-stretch:normal;font-size:17.3339px;font-family:'Days One';-inkscape-font-specification:'Days One';text-align:start;writing-mode:lr-tb;direction:ltr;text-anchor:start;fill:#8929b6;fill-opacity:1;fill-rule:evenodd;stroke:#19101b;stroke-width:1.983;stroke-linecap:round;stroke-linejoin:round;stroke-dasharray:none;stroke-opacity:1;paint-order:stroke fill markers"
       x="62.567772"
       y="218.42751"
       id="text210"><tspan
         id="tspan210"
         style="fill:#8929b6;fill-opacity:1;stroke:#19101b;stroke-width:1.983;stroke-opacity:1"
         x="62.567772"
         y="218.42751">=</tspan></text><text
       xml:space="preserve"
       style="font-style:normal;font-variant:normal;font-weight:normal;font-stretch:normal;font-size:17.9118px;font-family:'Days One';-inkscape-font-specification:'Days One';text-align:start;writing-mode:lr-tb;direction:ltr;text-anchor:start;fill:#bc36d9;fill-opacity:1;fill-rule:evenodd;stroke:#19101b;stroke-width:1.983;stroke-linecap:round;stroke-linejoin:round;stroke-dasharray:none;stroke-opacity:1;paint-order:stroke fill markers"
       x="73.657898"
       y="219.44771"
       id="text211"><tspan
         id="tspan211"
         style="stroke:#19101b;stroke-width:1.983;stroke-opacity:1"
         x="73.657898"
         y="219.44771">x2</tspan></text><text
       xml:space="preserve"
       style="font-style:normal;font-variant:normal;font-weight:normal;font-stretch:normal;font-size:17.9118px;font-family:'Days One';-inkscape-font-specification:'Days One';text-align:start;writing-mode:lr-tb;direction:ltr;text-anchor:start;fill:#bc36d9;fill-opacity:1;fill-rule:evenodd;stroke:#19101b;stroke-width:1.983;stroke-linecap:round;stroke-linejoin:round;stroke-dasharray:none;stroke-opacity:1;paint-order:stroke fill markers"
       x="5.9245734"
       y="219.44771"
       id="text212"><tspan
         id="tspan212"
         style="stroke:#19101b;stroke-width:1.983;stroke-opacity:1"
         x="5.9245734"
         y="219.44771">16k</tspan></text><g
       id="g203"
       style="display:inline;stroke-width:1.78091;stroke-dasharray:none"
       transform="matrix(1.1756086,0,0,1.1827409,-57.987261,228.50731)"><path
         id="rect80"
         style="display:inline;fill:url(#linearGradient83);fill-rule:evenodd;stroke:#19101b;stroke-width:1.78091;stroke-linecap:round;stroke-linejoin:round;stroke-dasharray:none;stroke-opacity:1;paint-order:stroke fill markers"
         d="m 137.92557,-36.3183 c -0.53135,0 -0.95912,0.427765 -0.95912,0.959115 v 6.449218 c 0,0.53135 0.42777,0.959115 0.95912,0.959115 h 12.97905 c 0.53135,0 0.95911,-0.427765 0.95911,-0.959115 v -6.449218 c 0,-0.53135 -0.42776,-0.959115 -0.95911,-0.959115 z m 6.48952,1.178739 a 3.0050819,3.0050819 0 0 1 3.00499,3.004985 3.0050819,3.0050819 0 0 1 -3.00499,3.004984 3.0050819,3.0050819 0 0 1 -3.00498,-3.004984 3.0050819,3.0050819 0 0 1 3.00498,-3.004985 z m -2.12338,1.484148 c -0.0446,0 -0.0823,0.01601 -0.11317,0.04806 -0.0309,0.03204 -0.0465,0.07009 -0.0465,0.114721 v 2.137338 c 0,0.04464 0.0166,0.08268 0.0486,0.114721 0.0321,0.0309 0.07,0.04651 0.11472,0.04651 h 0.32247 c 0.0446,0 0.0828,-0.01561 0.11368,-0.04651 0.0321,-0.03205 0.0476,-0.07009 0.0476,-0.114721 v -0.73794 h 0.41909 c 0.17051,0 0.31599,0.09396 0.43615,0.281637 l 0.29197,0.456303 c 0.0274,0.04464 0.0668,0.08268 0.11834,0.114721 0.0526,0.0309 0.10068,0.04651 0.14418,0.04651 h 0.41186 c 0.0583,0 0.0873,-0.02469 0.0873,-0.0739 0,-0.02632 -0.009,-0.05529 -0.0274,-0.08733 l -0.31264,-0.496094 c -0.0755,-0.116726 -0.1421,-0.205484 -0.2005,-0.266134 -0.0584,-0.0618 -0.12199,-0.105044 -0.19069,-0.130224 0.43143,-0.08468 0.64699,-0.293824 0.64699,-0.626836 0,-0.239174 -0.084,-0.428716 -0.25218,-0.569474 -0.16709,-0.140754 -0.38183,-0.211356 -0.64389,-0.211356 z m 0.48731,0.485758 h 0.73173 c 0.11786,0 0.22076,0.02336 0.31006,0.07028 0.0905,0.04692 0.13591,0.121799 0.13591,0.224792 0,0.102994 -0.0455,0.17839 -0.13591,0.22531 -0.0893,0.04692 -0.1922,0.06976 -0.31006,0.06976 h -0.73173 z m 3.33003,0.05994 c -0.23917,0 -0.44913,0.06407 -0.62994,0.192236 v -0.05116 c 0,-0.0309 -0.0104,-0.0565 -0.031,-0.07596 -0.0195,-0.02061 -0.0437,-0.03049 -0.0734,-0.03049 h -0.33124 c -0.0297,0 -0.0548,0.0099 -0.0754,0.03049 -0.0192,0.01946 -0.0295,0.04506 -0.0295,0.07596 v 2.248442 c 0,0.0309 0.01,0.05599 0.0295,0.07545 0.0205,0.0206 0.0457,0.03101 0.0754,0.03101 h 0.38447 c 0.0299,0 0.0544,-0.01041 0.0739,-0.03101 0.0206,-0.01946 0.031,-0.04455 0.031,-0.07545 v -0.526583 c 0.1854,0.05836 0.35075,0.08733 0.4961,0.08733 0.28151,0 0.50482,-0.08355 0.67076,-0.25063 0.16587,-0.167079 0.24908,-0.407846 0.24908,-0.721403 0,-0.314702 -0.0801,-0.555765 -0.2403,-0.723987 -0.16021,-0.169364 -0.36027,-0.254248 -0.59944,-0.254248 z m -0.14573,0.415478 c 0.12474,0 0.21828,0.04458 0.28008,0.133842 0.0629,0.08812 0.0941,0.230126 0.0941,0.425814 0,0.195687 -0.0328,0.338104 -0.0992,0.427364 -0.0652,0.08926 -0.17654,0.134359 -0.33332,0.134359 -0.1007,0 -0.22444,-0.02388 -0.37207,-0.0708 v -0.896069 c 0.16365,-0.102999 0.30687,-0.154513 0.43047,-0.154513 z" /><path
         style="display:inline;fill:#c663d9;fill-opacity:1;fill-rule:evenodd;stroke:#19101b;stroke-width:6.36398;stroke-linecap:round;stroke-linejoin:round;stroke-dasharray:none;stroke-dashoffset:0;stroke-opacity:1;paint-order:stroke fill markers"
         id="path51-1"
         d="m 83.489623,21.469179 c -0.563985,-0.02094 -0.85312,-2.13245 -1.257416,-2.52623 -0.381944,-0.372009 -2.459429,-0.541869 -2.439647,-1.074674 0.02094,-0.563985 2.132451,-0.85312 2.52623,-1.257415 0.37201,-0.381944 0.54187,-2.459429 1.074675,-2.439647 0.563984,0.02094 0.85312,2.13245 1.257415,2.52623 0.381944,0.372009 2.459429,0.54187 2.439647,1.074674 -0.02094,0.563985 -2.132451,0.85312 -2.52623,1.257416 -0.372009,0.381944 -0.54187,2.459429 -1.074674,2.439646 z"
         transform="matrix(0.27984307,0,0,0.27984307,128.87922,-41.403752)" /><path
         style="display:inline;fill:#df8ea4;fill-opacity:1;fill-rule:evenodd;stroke:#19101b;stroke-width:4.23187;stroke-linecap:round;stroke-linejoin:round;stroke-dasharray:none;stroke-dashoffset:0;stroke-opacity:1;paint-order:stroke fill markers"
         id="path112"
         d="m 83.489623,21.469179 c -0.563985,-0.02094 -0.85312,-2.13245 -1.257416,-2.52623 -0.381944,-0.372009 -2.459429,-0.541869 -2.439647,-1.074674 0.02094,-0.563985 2.132451,-0.85312 2.52623,-1.257415 0.37201,-0.381944 0.54187,-2.459429 1.074675,-2.439647 0.563984,0.02094 0.85312,2.13245 1.257415,2.52623 0.381944,0.372009 2.459429,0.54187 2.439647,1.074674 -0.02094,0.563985 -2.132451,0.85312 -2.52623,1.257416 -0.372009,0.381944 -0.54187,2.459429 -1.074674,2.439646 z"
         transform="matrix(0.42083416,0,0,0.42083416,101.60476,-35.41477)" /></g></g></svg>
