<?xml version="1.0" encoding="UTF-8" standalone="no"?>
<!-- Created with Inkscape (http://www.inkscape.org/) -->

<svg
   width="71.449928mm"
   height="24.521906mm"
   viewBox="0 0 71.449928 24.521906"
   version="1.1"
   id="svg1"
   xml:space="preserve"
   xmlns="http://www.w3.org/2000/svg"
   xmlns:svg="http://www.w3.org/2000/svg"><defs
     id="defs1" /><style
     type="text/css"
     id="style1">

<![CDATA[
	.st0{fill-rule:evenodd;clip-rule:evenodd;}
]]>

</style><path
     id="primary"
     style="display:inline;fill:#bc36d9;fill-opacity:1;stroke:#19101b;stroke-width:2.919;stroke-linecap:round;stroke-linejoin:round;stroke-dasharray:none;stroke-opacity:1;paint-order:stroke fill markers"
     d="m 60.687937,4.5735626 a 1.0274403,1.0275555 0 0 0 -0.52531,0.18804 l -8.2193,5.8675694 a 1.0274403,1.0275555 0 0 0 1.19174,1.66462 l 0.43155,-0.30815 v 8.54512 h 4.10965 v -4.66131 c 0,-0.56752 0.46021,-1.0273 1.02765,-1.0273 h 4.10965 c 0.56744,0 1.02766,0.45978 1.02766,1.0273 v 4.66131 h 4.10965 v -8.54512 l 0.43154,0.30815 a 1.0274403,1.0275555 0 0 0 0.59563,0.19522 1.0274403,1.0275555 0 0 0 0.59612,-1.85984 l -8.2193,-5.8675694 a 1.0274403,1.0275555 0 0 0 -0.66693,-0.18804 z m -7.41364,16.4337694 a 0.93558299,1.0275555 0 0 0 0,2.05507 h 1.31997 4.10965 4.10965 4.10965 1.31998 a 0.93558299,1.0275555 0 0 0 0,-2.05507 z" /><g
     id="g192"
     style="display:inline"
     transform="translate(-132.90481,-303.84051)"><path
       id="path187"
       style="fill:#ba4ef2;fill-opacity:1;fill-rule:evenodd;stroke:none;stroke-width:1.183;stroke-linecap:round;stroke-linejoin:round;paint-order:stroke fill markers"
       d="m 131.88704,237.99736 a 6.4492188,6.4492188 0 0 0 -1.54668,0.1881 v 6.57066 h 7.98866 a 6.4492188,6.4492188 0 0 0 0.007,-0.30954 6.4492188,6.4492188 0 0 0 -6.44922,-6.44922 z"
       transform="translate(3.0987753,81.81226)" /><path
       id="path188"
       style="fill:#dc88ac;fill-opacity:1;fill-rule:evenodd;stroke:none;stroke-width:1.183;stroke-linecap:round;stroke-linejoin:round;paint-order:stroke fill markers"
       d="m 137.311,237.99736 a 6.4492188,6.4492188 0 0 0 -6.44922,6.44922 6.4492188,6.4492188 0 0 0 0.007,0.30954 h 8.89714 v -6.273 a 6.4492188,6.4492188 0 0 0 -2.45515,-0.48576 z"
       transform="translate(3.0987753,81.81226)" /><path
       id="path1-16"
       style="display:inline;fill:#19101b;fill-opacity:1;stroke-width:0.413413"
       d="m 136.68804,306.15154 c -0.69532,2e-5 -1.26091,0.56602 -1.26091,1.26142 v 1.62109 c -1.42558,0.28787 -2.52235,1.55035 -2.52232,3.09025 v 2.52233 c 0,0.55897 0.24372,1.06206 0.63045,1.4087 v 2.22725 c -0.38671,0.34666 -0.63045,0.84972 -0.63045,1.4087 0,0.30253 2e-5,5.90241 0,6.1867 -3e-5,1.04313 0.8482,1.89188 1.89135,1.89188 h 6.30608 c 1.04315,0 1.89187,-0.84878 1.89187,-1.89188 v -6.1867 c -2e-5,-0.55895 -0.24424,-1.06207 -0.63097,-1.4087 v -2.22725 c 0.40086,-0.35932 0.63095,-0.86753 0.63097,-1.4087 v -2.52233 c 0,-1.54078 -1.09746,-2.80257 -2.52232,-3.09025 v -1.62109 c 8e-5,-0.69708 -0.56432,-1.26148 -1.26143,-1.26142 z m 0,1.26142 h 2.52232 v 1.55856 h -2.52232 z m -0.63046,2.81947 h 3.78324 c 1.04555,0 1.89179,0.84618 1.89187,1.89187 v 2.52233 c 0,0.3477 -0.2827,0.63045 -0.63045,0.63045 h -6.30608 c -0.34775,0 -0.63045,-0.2827 -0.63045,-0.63045 v -2.52233 c 0,-1.04571 0.84621,-1.89187 1.89187,-1.89187 z m 5.04466,6.30555 v 1.26143 h -6.30608 v -1.26091 z m -6.30608,2.52285 h 6.30608 c 0.34772,2e-5 0.63048,0.28278 0.63045,0.63045 v 2.52233 h -7.56698 v -2.52233 c 0,-0.34775 0.28281,-0.63045 0.63045,-0.63045 z m -0.63045,4.41368 h 7.56698 v 2.40347 c -3e-5,0.34858 -0.2819,0.63097 -0.63045,0.63097 h -6.30608 c -0.34844,0 -0.63045,-0.28241 -0.63045,-0.63097 z" /><path
       d="m 142.94134,303.8407 c -0.57879,0.0224 -1.37074,1.91832 -1.39991,2.58227 -0.0242,0.10963 -0.0363,0.22157 -0.0362,0.33383 1.1e-4,0.85273 0.69136,1.54398 1.54409,1.54409 0.85293,1.8e-4 1.5445,-0.69116 1.54461,-1.54409 -9e-5,-0.13471 -0.0178,-0.26883 -0.0527,-0.39894 -0.0346,-0.61069 -1.00505,-2.54019 -1.59938,-2.51716 z m 2.71043,2.9776 c -0.27202,0.0105 -0.64413,0.90131 -0.65784,1.21336 -0.0114,0.0516 -0.0171,0.10427 -0.0171,0.1571 -1.4e-4,0.40105 0.32501,0.7262 0.72606,0.72605 0.40085,-1.4e-4 0.72568,-0.3252 0.72554,-0.72605 -5e-5,-0.0633 -0.008,-0.12641 -0.0248,-0.18759 -0.0163,-0.28701 -0.47256,-1.1937 -0.75189,-1.18287 z"
       style="display:inline;fill:#dc88ac;fill-opacity:1;stroke-width:0.413413"
       id="path1-65" /></g><g
     id="g193"
     style="display:inline"
     transform="translate(-132.15646,-303.98997)"><path
       class="st0"
       d="m 171.58928,317.60833 c 0,2.15677 -0.75877,3.99827 -2.27851,5.518 -1.5219,1.52191 -3.36123,2.28286 -5.518,2.28286 -2.14806,0 -3.98739,-0.75878 -5.51147,-2.28286 -1.52191,-1.51973 -2.28721,-3.36123 -2.28721,-5.518 0,-2.15023 0.76313,-3.98304 2.28721,-5.5093 1.52843,-1.5219 3.36559,-2.28721 5.51147,-2.28721 2.15677,0 3.9961,0.76313 5.518,2.28721 1.51756,1.52626 2.27851,3.35907 2.27851,5.5093 z m -3.25688,-0.007 c 0,1.25666 -0.44135,2.32851 -1.33057,3.21774 -0.88706,0.88488 -1.95892,1.33058 -3.21558,1.33058 -1.24796,0 -2.31982,-0.4457 -3.20688,-1.33058 -0.88704,-0.88923 -1.33057,-1.96108 -1.33057,-3.21774 0,-1.24797 0.44353,-2.31983 1.33057,-3.20471 0.88924,-0.88488 1.95892,-1.33058 3.20688,-1.33058 2.5242,0.003 4.54615,2.00892 4.54615,4.53529 z m 1.06316,0 c 0,-1.54365 -0.54353,-2.86336 -1.63713,-3.95696 -1.0936,-1.0936 -2.41766,-1.63714 -3.97218,-1.63714 -1.55017,0 -2.86987,0.54354 -3.95696,1.63714 -1.09359,1.0936 -1.64365,2.41331 -1.64365,3.95696 0,1.54799 0.55006,2.8677 1.64365,3.96565 1.08709,1.09577 2.40679,1.64583 3.95696,1.64583 1.55235,0 2.87641,-0.55006 3.97218,-1.64583 1.09142,-1.10013 1.63713,-2.41983 1.63713,-3.96565 z"
       id="path1-6"
       style="display:inline;fill:#bc36d9;fill-opacity:1;stroke:#19101b;stroke-width:2.523;stroke-linecap:round;stroke-linejoin:round;stroke-dasharray:none;stroke-opacity:1;paint-order:stroke fill markers" /><path
       d="m 152.66914,316.13655 c 0.79578,-0.54314 1.19493,-1.25302 1.12672,-2.87741 v -4.17591 c -0.008,-0.58357 -1.06608,-0.65431 -1.11914,0 l -0.0404,3.38772 c -0.003,0.63409 -0.95492,0.6543 -0.9524,0 l 0.0404,-3.50393 c -0.0126,-0.62652 -1.02313,-0.68967 -1.03577,0 0,0.97261 -0.0404,2.53131 -0.0404,3.50393 0.0505,0.61388 -0.83366,0.69472 -0.81093,0 l 0.0404,-3.4812 c -0.0227,-0.47241 -0.54314,-0.64167 -0.89682,-0.41936 -0.37641,0.24 -0.30063,0.72252 -0.31578,1.12924 l -0.13137,3.99655 c 0.0202,1.16208 0.32589,2.10691 1.23534,2.50858 0.13895,0.0606 0.33094,0.10863 0.55326,0.14147 l -0.31326,9.74633 c -0.0177,0.57851 0.45473,1.05093 1.00798,1.05093 h 0.12631 c 0.62399,0 1.15198,-0.53305 1.13429,-1.1823 l -0.27536,-9.61748 c 0.29052,-0.0455 0.53052,-0.11368 0.66693,-0.20716 z m 22.82985,9.66296 -0.0152,-8.7535 c -3.06941,-1.77344 -2.09174,-8.60698 0.98019,-8.56909 3.73382,0.0429 4.17592,7.70005 0.96504,8.5413 l 0.23747,8.81666 c 0.0455,1.66734 -2.16501,1.82144 -2.16754,-0.0354 z"
       style="clip-rule:evenodd;display:inline;fill:#bc36d9;fill-opacity:1;fill-rule:evenodd;stroke:#19101b;stroke-width:2.223;stroke-linecap:round;stroke-linejoin:round;stroke-dasharray:none;stroke-opacity:1;paint-order:stroke fill markers"
       id="path1-13" /></g></svg>
