<?xml version="1.0" encoding="UTF-8" standalone="no"?>
<!-- Created with Inkscape (http://www.inkscape.org/) -->

<svg
   width="36.131954mm"
   height="40.567814mm"
   viewBox="0 0 36.131954 40.567814"
   version="1.1"
   id="svg1"
   xml:space="preserve"
   xmlns="http://www.w3.org/2000/svg"
   xmlns:svg="http://www.w3.org/2000/svg"><defs
     id="defs1" /><g
     id="g117"
     transform="translate(-81.180106,-134.3218)"><path
       id="path104"
       style="display:inline;fill:none;fill-opacity:1;fill-rule:evenodd;stroke:#19101b;stroke-width:1.97303;stroke-dasharray:none;stroke-opacity:1;paint-order:stroke fill markers"
       d="m 92.410774,170.08977 c -0.05565,1.76373 1.648277,3.2575 3.805833,3.33643 2.157543,0.079 3.951723,-1.28676 4.007373,-3.05043 0.0556,-1.76372 -1.648292,-3.2575 -3.805833,-3.33645 -2.157557,-0.0789 -3.951719,1.28678 -4.007373,3.05045 z" /><path
       id="path105"
       style="display:inline;fill:none;fill-opacity:1;fill-rule:evenodd;stroke:#19101b;stroke-width:1.45787;stroke-dasharray:none;stroke-opacity:1;paint-order:stroke fill markers"
       d="m 82.677423,168.97794 c -0.09057,1.20602 1.022763,2.2659 2.486806,2.36713 1.463897,0.10131 2.724,-0.79425 2.814462,-2.00028 0.09056,-1.20603 -1.022817,-2.2659 -2.486784,-2.36717 -1.463943,-0.10128 -2.72398,0.79427 -2.814484,2.00032 z" /><path
       id="path106"
       style="display:inline;fill:none;fill-opacity:1;fill-rule:evenodd;stroke:#19101b;stroke-width:1.86101;stroke-linecap:round;stroke-linejoin:round;stroke-dasharray:none;stroke-dashoffset:0;stroke-opacity:1;paint-order:stroke markers fill"
       d="m 99.144437,143.74709 c 0.433235,-0.13734 0.880853,-0.18418 1.317963,-0.13371 1.4456,0.16732 2.54655,1.35132 2.68677,3.00552 0.14183,1.65935 -0.72611,3.28355 -2.10177,4.06877 -0.006,-0.10852 -0.0151,-0.23595 -0.0263,-0.3795 -0.12693,-1.54366 -2.785931,-4.69993 -3.919447,-4.92155 -0.01466,-0.003 -0.02936,-0.004 -0.04346,-0.007 0.509098,-0.77748 1.249336,-1.36745 2.086626,-1.63292 z"
       transform="matrix(-1,0,0,1,194.46107,4.6493437)" /><path
       id="path107"
       style="display:inline;fill:#bc36d9;fill-opacity:1;fill-rule:evenodd;stroke:#19101b;stroke-width:1.97304;stroke-dasharray:none;stroke-opacity:1;paint-order:stroke fill markers"
       d="m 102.4183,169.08836 c 0.0657,1.40051 1.52226,2.47266 3.25327,2.3947 1.731,-0.0779 3.08098,-1.27643 3.01526,-2.6769 -0.0657,-1.4005 -1.52228,-2.47263 -3.25327,-2.3947 -1.73102,0.0779 -3.08098,1.27643 -3.01526,2.6769 z" /><path
       id="path108"
       style="display:inline;fill:#bc36d9;fill-opacity:1;fill-rule:evenodd;stroke:#19101b;stroke-width:1.86101;stroke-linecap:round;stroke-linejoin:round;stroke-dasharray:none;stroke-dashoffset:0;stroke-opacity:1;paint-order:stroke markers fill"
       d="m 104.91235,148.61693 a 3.433371,3.4855985 77.322997 0 1 1.31885,-0.12942 3.433371,3.4855985 77.322997 0 1 2.97213,2.34763 3.433371,3.4855985 77.322997 0 1 -1.01228,3.63905 c -0.0268,-0.0918 -0.061,-0.19913 -0.0998,-0.31992 -0.42481,-1.29983 -3.78901,-3.80535 -5.16936,-3.93143 -0.0187,-0.002 -0.0369,-0.002 -0.0548,-0.003 a 3.433371,3.4855985 77.322997 0 1 2.04568,-1.60269 z" /><path
       id="path109"
       style="display:inline;fill:#ca6ad1;fill-opacity:1;fill-rule:evenodd;stroke:#19101b;stroke-width:1.9;stroke-linecap:round;stroke-linejoin:round;stroke-dasharray:none;stroke-opacity:1;paint-order:stroke fill markers"
       d="m 98.269303,149.26542 c 5.889707,-2.3e-4 10.664407,4.77423 10.664467,10.66394 -0.007,5.77817 -4.60966,10.51137 -10.385931,10.65982 l -0.0021,5.2e-4 -0.221692,0.004 h -0.0015 l -5.99343,0.0971 -5.2e-4,-0.004 h -0.001 c -5.42563,8e-5 -9.82406,-4.41825 -9.82421,-9.86865 -4e-5,-4.38909 2.88538,-8.25078 7.08071,-9.47643 v -0.002 l 5.5578,-1.6061 h 5.17e-4 l 0.0016,-5.2e-4 0.201021,-0.0512 -0.0011,8e-4 c 0.951032,-0.27427 1.935616,-0.4148 2.925402,-0.41754 z" /><g
       id="g111"
       style="display:inline;fill:#c44fd1;fill-opacity:1;stroke-width:0.873661"
       transform="matrix(-4.7499505,0.00320525,0.00320525,4.7499505,548.75271,-26.673618)"><rect
         style="fill:#bc36d9;fill-opacity:1;fill-rule:evenodd;stroke-width:0.755717;stroke-dasharray:0.755717, 0.755717"
         id="rect109"
         width="1.8024739"
         height="0.82682288"
         x="92.918358"
         y="39.298889"
         ry="0.3156108" /><rect
         style="fill:#8929b6;fill-opacity:1;fill-rule:evenodd;stroke-width:0.188964;stroke-dasharray:0.188964, 0.188964"
         id="rect110"
         width="0.5037694"
         height="0.18496683"
         x="39.478928"
         y="-93.639229"
         ry="0.070604645"
         transform="rotate(90)" /><rect
         style="fill:#8929b6;fill-opacity:1;fill-rule:evenodd;stroke-width:0.188964;stroke-dasharray:0.188964, 0.188964"
         id="rect111"
         width="0.5037694"
         height="0.18496683"
         x="39.478928"
         y="-94.189064"
         ry="0.070604645"
         transform="rotate(90)" /></g><path
       id="path115"
       style="display:inline;fill:#8929b6;fill-opacity:1;fill-rule:evenodd;stroke:none;stroke-width:1.45787;stroke-dasharray:none;stroke-opacity:1;paint-order:stroke fill markers"
       d="m 82.677423,168.97794 c -0.09057,1.20602 1.022763,2.2659 2.486806,2.36713 1.463897,0.10131 2.724,-0.79425 2.814462,-2.00028 0.09056,-1.20603 -1.022817,-2.2659 -2.486784,-2.36717 -1.463943,-0.10128 -2.72398,0.79427 -2.814484,2.00032 z" /><path
       id="path116"
       style="display:inline;fill:#bc36d9;fill-opacity:1;fill-rule:evenodd;stroke:none;stroke-width:1.97303;stroke-dasharray:none;stroke-opacity:1;paint-order:stroke fill markers"
       d="m 92.410774,170.08977 c -0.05565,1.76373 1.648277,3.2575 3.805833,3.33643 2.157543,0.079 3.951723,-1.28676 4.007373,-3.05043 0.0556,-1.76372 -1.648292,-3.2575 -3.805833,-3.33645 -2.157557,-0.0789 -3.951719,1.28678 -4.007373,3.05045 z" /><path
       id="path117"
       style="display:inline;fill:#bc36d9;fill-opacity:1;fill-rule:evenodd;stroke:none;stroke-width:1.86101;stroke-linecap:round;stroke-linejoin:round;stroke-dasharray:none;stroke-dashoffset:0;stroke-opacity:1;paint-order:stroke markers fill"
       d="m 98.955704,143.79283 c 0.415601,-0.1327 0.855965,-0.17791 1.298426,-0.12614 1.53976,0.18056 2.86882,1.48781 3.15406,3.37357 0.30105,1.98074 -0.65971,3.79419 -2.2438,4.44482 -0.0115,-0.13057 -0.0281,-0.28404 -0.0475,-0.45644 -0.21047,-1.81349 -2.99229,-5.42922 -4.020478,-5.69857 -0.01291,-0.004 -0.02584,-0.005 -0.03822,-0.008 0.449394,-0.72732 1.116222,-1.27943 1.89788,-1.52904 z"
       transform="matrix(-1,0,0,1,194.46107,4.6493437)" /><path
       style="display:inline;fill:#d47abc;fill-opacity:1;fill-rule:evenodd;stroke:none;stroke-width:1.60107;stroke-linecap:round;stroke-linejoin:round;stroke-dasharray:none;stroke-dashoffset:0;stroke-opacity:1;paint-order:stroke fill markers"
       id="path123"
       d="m 83.489623,21.469179 c -0.563985,-0.02094 -0.85312,-2.13245 -1.257416,-2.52623 -0.381944,-0.372009 -2.459429,-0.541869 -2.439647,-1.074674 0.02094,-0.563985 2.132451,-0.85312 2.52623,-1.257415 0.37201,-0.381944 0.54187,-2.459429 1.074675,-2.439647 0.563984,0.02094 0.85312,2.13245 1.257415,2.52623 0.381944,0.372009 2.459429,0.54187 2.439647,1.074674 -0.02094,0.563985 -2.132451,0.85312 -2.52623,1.257416 -0.372009,0.381944 -0.54187,2.459429 -1.074674,2.439646 z"
       transform="matrix(0.72413882,0,0,0.72413882,52.18631,141.68086)" /><path
       style="display:inline;fill:#eda786;fill-opacity:1;fill-rule:evenodd;stroke:none;stroke-width:2.45486;stroke-linecap:round;stroke-linejoin:round;stroke-dasharray:none;stroke-dashoffset:0;stroke-opacity:1;paint-order:stroke fill markers"
       id="path124"
       d="m 83.489623,21.469179 c -0.563985,-0.02094 -0.85312,-2.13245 -1.257416,-2.52623 -0.381944,-0.372009 -2.459429,-0.541869 -2.439647,-1.074674 0.02094,-0.563985 2.132451,-0.85312 2.52623,-1.257415 0.37201,-0.381944 0.54187,-2.459429 1.074675,-2.439647 0.563984,0.02094 0.85312,2.13245 1.257415,2.52623 0.381944,0.372009 2.459429,0.54187 2.439647,1.074674 -0.02094,0.563985 -2.132451,0.85312 -2.52623,1.257416 -0.372009,0.381944 -0.54187,2.459429 -1.074674,2.439646 z"
       transform="matrix(0.47228712,0,0,0.47228712,75.415935,150.13131)" /></g></svg>
