<?xml version="1.0" encoding="UTF-8" standalone="no"?>
<!-- Created with Inkscape (http://www.inkscape.org/) -->

<svg
   width="39.659931mm"
   height="41.23103mm"
   viewBox="0 0 39.659931 41.23103"
   version="1.1"
   id="svg1"
   xml:space="preserve"
   xmlns="http://www.w3.org/2000/svg"
   xmlns:svg="http://www.w3.org/2000/svg"><defs
     id="defs1" /><g
     id="g8"
     transform="translate(-81.994133,-132.8063)"><path
       id="path8-1-4-7"
       style="display:inline;fill:#bc36d9;fill-opacity:1;fill-rule:evenodd;stroke:#19101b;stroke-width:1.86101;stroke-linecap:round;stroke-linejoin:round;stroke-dasharray:none;stroke-dashoffset:0;stroke-opacity:1;paint-order:stroke markers fill"
       d="m 104.9522,144.64143 a 3.433371,3.4855985 77.322997 0 1 1.31885,-0.12942 3.433371,3.4855985 77.322997 0 1 2.97213,2.34763 3.433371,3.4855985 77.322997 0 1 -1.01228,3.63905 c -0.0268,-0.0918 -0.061,-0.19913 -0.0998,-0.31992 -0.42481,-1.29983 -3.78901,-3.80535 -5.16936,-3.93143 -0.0187,-0.002 -0.0369,-0.002 -0.0548,-0.003 a 3.433371,3.4855985 77.322997 0 1 2.04568,-1.60269 z" /><path
       id="path85"
       style="display:inline;fill:#8929b6;fill-opacity:1;fill-rule:evenodd;stroke:#19101b;stroke-width:1.858;stroke-dasharray:none;stroke-opacity:1;paint-order:stroke fill markers"
       d="m 95.624501,169.98834 c -0.09604,1.27882 1.084501,2.40268 2.636921,2.51002 1.552269,0.10743 2.888438,-0.84219 2.984358,-2.12102 0.0961,-1.27883 -1.08456,-2.40268 -2.636897,-2.51007 -1.552316,-0.10739 -2.888415,0.84222 -2.984382,2.12107 z" /><path
       id="path86"
       style="display:inline;fill:none;fill-opacity:1;fill-rule:evenodd;stroke:#19101b;stroke-width:1.861;stroke-linecap:round;stroke-linejoin:round;stroke-dasharray:none;stroke-dashoffset:0;stroke-opacity:1;paint-order:stroke markers fill"
       d="m 99.363539,143.8042 c 0.513098,-0.1377 1.051791,-0.1703 1.584031,-0.0872 1.83682,0.28733 3.19684,1.83245 3.19893,3.82109 0.004,1.90623 -1.25266,3.4664 -2.92903,3.9573 2e-5,-0.1083 -0.003,-0.23649 -0.008,-0.38152 -0.0544,-1.59411 -2.912222,-5.299 -4.106995,-5.63884 -0.01512,-0.005 -0.03027,-0.007 -0.04478,-0.0107 0.535912,-0.79562 1.348768,-1.40318 2.305779,-1.66006 z"
       transform="matrix(-0.99793053,0.06430136,0.06430136,0.99793053,185.4707,-3.763902)" /><path
       id="path88"
       style="display:inline;fill:none;fill-opacity:1;fill-rule:evenodd;stroke:#19101b;stroke-width:1.9;stroke-dasharray:none;stroke-opacity:1;paint-order:stroke fill markers"
       d="m 86.165648,170.25292 c -0.09604,1.27882 1.084501,2.40268 2.636921,2.51002 1.552269,0.10743 2.888435,-0.84219 2.984355,-2.12102 0.09607,-1.27883 -1.084562,-2.40268 -2.636894,-2.51007 -1.552316,-0.10739 -2.888415,0.84222 -2.984382,2.12107 z" /><path
       id="path89"
       style="display:inline;fill:none;fill-opacity:1;fill-rule:evenodd;stroke:#19101b;stroke-width:1.9;stroke-dasharray:none;stroke-opacity:1;paint-order:stroke fill markers"
       d="m 105.27874,168.69983 c 0.65232,1.56868 2.74566,2.20352 4.67573,1.41793 1.93008,-0.78554 2.96598,-2.69404 2.31373,-4.26269 -0.65232,-1.56866 -2.74568,-2.20352 -4.67574,-1.41794 -1.93006,0.78562 -2.96596,2.69404 -2.31372,4.2627 z" /><path
       id="path82"
       style="fill:#ca6ad1;fill-opacity:1;fill-rule:evenodd;stroke:#19101b;stroke-width:1.861;stroke-linecap:round;stroke-linejoin:round;stroke-dasharray:none;stroke-opacity:1;paint-order:stroke fill markers"
       d="m 101.65846,146.22286 c -2.964569,0.007 -5.809209,1.17142 -7.927159,3.24579 l -1e-5,-0.001 -0.25683,0.23461 -0.009,0.009 -4.72477,4.75423 c -1.875209,1.80495 -2.934774,4.29555 -2.934709,6.89829 1.22e-4,5.28757 4.286519,9.57397 9.574089,9.57409 1.02087,-2e-5 2.03517,-0.16331 3.00447,-0.48369 l 0.008,-0.003 6.263179,-1.90014 0.003,-0.001 0.55087,-0.1912 h 0.003 c 4.65304,-1.53166 7.8012,-5.87229 7.81192,-10.77092 4e-5,-6.27713 -5.08858,-11.36575 -11.36571,-11.36571 z" /><g
       id="g25-18-0-5"
       style="display:inline;fill:#c44fd1;fill-opacity:1;stroke-width:0.873661"
       transform="matrix(-4.6240026,1.0865727,1.0865727,4.6240026,498.30927,-128.69642)"><rect
         style="fill:#bc36d9;fill-opacity:1;fill-rule:evenodd;stroke-width:0.755717;stroke-dasharray:0.755717, 0.755717"
         id="rect21-9-6-7"
         width="1.8024739"
         height="0.82682288"
         x="92.918358"
         y="39.298889"
         ry="0.3156108" /><rect
         style="fill:#8929b6;fill-opacity:1;fill-rule:evenodd;stroke-width:0.188964;stroke-dasharray:0.188964, 0.188964"
         id="rect24-2-6-5"
         width="0.5037694"
         height="0.18496683"
         x="39.478928"
         y="-93.639229"
         ry="0.070604645"
         transform="rotate(90)" /><rect
         style="fill:#8929b6;fill-opacity:1;fill-rule:evenodd;stroke-width:0.188964;stroke-dasharray:0.188964, 0.188964"
         id="rect25-7-1-4"
         width="0.5037694"
         height="0.18496683"
         x="39.478928"
         y="-94.189064"
         ry="0.070604645"
         transform="rotate(90)" /></g><path
       id="rect26-9-6"
       style="display:inline;fill:#8929b6;fill-rule:evenodd;stroke-width:0.651479;stroke-linecap:round;stroke-linejoin:round;paint-order:stroke fill markers"
       d="m 101.69852,152.08945 c -0.20313,0.0289 -0.38393,0.1649 -0.46079,0.37152 -0.11181,0.3004 0.0402,0.63229 0.34051,0.74409 l 1.71077,0.63712 -1.41395,1.16885 c -0.24703,0.20426 -0.28152,0.56762 -0.0772,0.81467 0.20426,0.24701 0.56763,0.28152 0.81466,0.0772 l 2.17396,-1.79762 c 0.0768,-0.0636 0.13321,-0.14235 0.16812,-0.22828 0.004,-0.009 0.008,-0.0188 0.0109,-0.0283 0.11182,-0.3004 -0.0394,-0.6324 -0.33983,-0.74421 l -2.64358,-0.98339 c -0.0938,-0.035 -0.19107,-0.0446 -0.28344,-0.0318 z" /><path
       id="ellipse21-6-2-3-3"
       style="display:inline;fill:#8929b6;fill-opacity:1;fill-rule:evenodd;stroke:none;stroke-width:1.9;stroke-dasharray:none;stroke-opacity:1;paint-order:stroke fill markers"
       d="m 86.165648,170.25292 c -0.09604,1.27882 1.084501,2.40268 2.636921,2.51002 1.552269,0.10743 2.888435,-0.84219 2.984355,-2.12102 0.09607,-1.27883 -1.084562,-2.40268 -2.636894,-2.51007 -1.552316,-0.10739 -2.888415,0.84222 -2.984382,2.12107 z" /><path
       id="path71-8-1"
       style="display:inline;fill:#bc36d9;fill-opacity:1;fill-rule:evenodd;stroke:none;stroke-width:1.86101;stroke-linecap:round;stroke-linejoin:round;stroke-dasharray:none;stroke-dashoffset:0;stroke-opacity:1;paint-order:stroke markers fill"
       d="m 99.363539,143.8042 c 0.513098,-0.1377 1.051791,-0.1703 1.584031,-0.0872 1.83682,0.28733 3.19684,1.83245 3.19893,3.82109 0.004,1.90623 -1.25266,3.4664 -2.92903,3.9573 2e-5,-0.1083 -0.003,-0.23649 -0.008,-0.38152 -0.0544,-1.59411 -2.912222,-5.299 -4.106995,-5.63884 -0.01512,-0.005 -0.03027,-0.007 -0.04478,-0.0107 0.535912,-0.79562 1.348768,-1.40318 2.305779,-1.66006 z"
       transform="matrix(-0.99793053,0.06430136,0.06430136,0.99793053,185.4707,-3.7639027)" /><path
       id="path83"
       style="display:inline;fill:#8929b6;fill-rule:evenodd;stroke-width:0.651479;stroke-linecap:round;stroke-linejoin:round;paint-order:stroke fill markers"
       d="m 109.77321,150.46851 c 0.16966,-0.0621 0.36647,-0.0319 0.51203,0.0968 0.21162,0.18669 0.23158,0.50744 0.045,0.71904 l -1.06303,1.20547 1.58321,0.31958 c 0.2766,0.0558 0.4544,0.32354 0.39851,0.60018 -0.0558,0.27662 -0.32357,0.45441 -0.60019,0.39852 l -2.43438,-0.49171 c -0.0861,-0.0174 -0.16255,-0.0552 -0.22536,-0.10731 -0.007,-0.003 -0.0137,-0.0115 -0.0203,-0.0176 -0.21162,-0.18669 -0.23223,-0.50722 -0.0455,-0.71884 l 1.64309,-1.86191 c 0.0582,-0.0662 0.12977,-0.11402 0.20679,-0.14245 z" /><path
       id="path84"
       style="display:inline;fill:#bc36d9;fill-opacity:1;fill-rule:evenodd;stroke:none;stroke-width:1.9;stroke-dasharray:none;stroke-opacity:1;paint-order:stroke fill markers"
       d="m 105.27874,168.69983 c 0.65232,1.56868 2.74566,2.20352 4.67573,1.41793 1.93008,-0.78554 2.96598,-2.69404 2.31373,-4.26269 -0.65232,-1.56866 -2.74568,-2.20352 -4.67574,-1.41794 -1.93006,0.78562 -2.96596,2.69404 -2.31372,4.2627 z" /><g
       id="g90"><path
         style="display:inline;fill:#fcbf68;fill-opacity:1;fill-rule:evenodd;stroke:none;stroke-width:1.36722;stroke-linecap:round;stroke-linejoin:round;stroke-dasharray:none;stroke-dashoffset:0;stroke-opacity:1;paint-order:stroke fill markers"
         id="path14-2"
         d="m 83.489623,21.469179 c -0.563985,-0.02094 -0.85312,-2.13245 -1.257416,-2.52623 -0.381944,-0.372009 -2.459429,-0.541869 -2.439647,-1.074674 0.02094,-0.563985 2.132451,-0.85312 2.52623,-1.257415 0.37201,-0.381944 0.54187,-2.459429 1.074675,-2.439647 0.563984,0.02094 0.85312,2.13245 1.257415,2.52623 0.381944,0.372009 2.459429,0.54187 2.439647,1.074674 -0.02094,0.563985 -2.132451,0.85312 -2.52623,1.257416 -0.372009,0.381944 -0.54187,2.459429 -1.074674,2.439646 z"
         transform="matrix(0.84800031,0,0,0.84800031,45.969436,146.94149)" /><path
         style="display:inline;fill:#da83b8;fill-opacity:1;fill-rule:evenodd;stroke:none;stroke-width:1.41045;stroke-linecap:round;stroke-linejoin:round;stroke-dasharray:none;stroke-dashoffset:0;stroke-opacity:1;paint-order:stroke fill markers"
         id="path16-6"
         d="m 83.489623,21.469179 c -0.563985,-0.02094 -0.85312,-2.13245 -1.257416,-2.52623 -0.381944,-0.372009 -2.459429,-0.541869 -2.439647,-1.074674 0.02094,-0.563985 2.132451,-0.85312 2.52623,-1.257415 0.37201,-0.381944 0.54187,-2.459429 1.074675,-2.439647 0.563984,0.02094 0.85312,2.13245 1.257415,2.52623 0.381944,0.372009 2.459429,0.54187 2.439647,1.074674 -0.02094,0.563985 -2.132451,0.85312 -2.52623,1.257416 -0.372009,0.381944 -0.54187,2.459429 -1.074674,2.439646 z"
         transform="matrix(0.82200956,0,0,0.82200956,17.00711,131.24812)" /><path
         style="display:inline;fill:#da83b8;fill-opacity:1;fill-rule:evenodd;stroke:none;stroke-width:2.62209;stroke-linecap:round;stroke-linejoin:round;stroke-dasharray:none;stroke-dashoffset:0;stroke-opacity:1;paint-order:stroke fill markers"
         id="path90"
         d="m 83.489623,21.469179 c -0.563985,-0.02094 -0.85312,-2.13245 -1.257416,-2.52623 -0.381944,-0.372009 -2.459429,-0.541869 -2.439647,-1.074674 0.02094,-0.563985 2.132451,-0.85312 2.52623,-1.257415 0.37201,-0.381944 0.54187,-2.459429 1.074675,-2.439647 0.563984,0.02094 0.85312,2.13245 1.257415,2.52623 0.381944,0.372009 2.459429,0.54187 2.439647,1.074674 -0.02094,0.563985 -2.132451,0.85312 -2.52623,1.257416 -0.372009,0.381944 -0.54187,2.459429 -1.074674,2.439646 z"
         transform="matrix(0.44216766,0,0,0.44216766,82.208924,149.16597)" /></g></g></svg>
