<?xml version="1.0" encoding="UTF-8" standalone="no"?>
<!-- Created with Inkscape (http://www.inkscape.org/) -->

<svg
   width="17.184933mm"
   height="16.350489mm"
   viewBox="0 0 17.184933 16.350489"
   version="1.1"
   id="svg1"
   xml:space="preserve"
   xmlns="http://www.w3.org/2000/svg"
   xmlns:svg="http://www.w3.org/2000/svg"><defs
     id="defs1" /><g
     id="g9"
     transform="translate(-137.13776,-130.68951)"><path
       id="path93"
       style="fill:#fcbf68;fill-opacity:1;fill-rule:evenodd;stroke:none;stroke-width:1.9;stroke-linecap:round;stroke-linejoin:round;stroke-dasharray:none;stroke-opacity:1;paint-order:stroke fill markers"
       d="m 162.21747,177.52116 c -0.0928,0.004 -0.18574,0.0342 -0.26666,0.0935 l -1.5105,1.10795 c -0.21577,0.15827 -0.26221,0.45931 -0.10438,0.67541 l 2.54609,3.48609 c 0.15783,0.21609 0.45861,0.26266 0.67438,0.10438 l 1.50999,-1.10794 c 0.21577,-0.15827 0.26273,-0.45983 0.1049,-0.67593 l -2.5461,-3.48557 c -0.0986,-0.13506 -0.25306,-0.20393 -0.40772,-0.19792 z m 5.43222,4.55166 a 5.1225066,5.1225066 0 0 0 -5.12268,5.12268 5.1225066,5.1225066 0 0 0 5.12268,5.12217 5.1225066,5.1225066 0 0 0 5.12269,-5.12217 5.1225066,5.1225066 0 0 0 -5.12269,-5.12268 z m -7.56491,0.2806 c -0.18532,9.7e-4 -0.35986,0.11107 -0.43563,0.29352 l -0.51418,1.23817 c -0.10104,0.24327 0.013,0.52061 0.25631,0.62167 l 2.16834,0.90072 c 0.24326,0.10106 0.52064,-0.0136 0.62167,-0.25683 l 0.51418,-1.23817 c 0.10104,-0.24327 -0.0136,-0.52061 -0.25683,-0.62167 l -2.16834,-0.90072 c -0.0608,-0.0253 -0.12375,-0.037 -0.18552,-0.0367 z m 7.56491,0.91261 a 3.9293249,3.9293249 0 0 1 3.92948,3.92947 3.9293249,3.9293249 0 0 1 -3.92948,3.92896 3.9293249,3.9293249 0 0 1 -3.92947,-3.92896 3.9293249,3.9293249 0 0 1 3.92947,-3.92947 z m 6.21151,4.53512 c -0.26793,0.005 -0.50303,0.19646 -0.55346,0.47077 l -0.13539,0.73898 c -0.0576,0.3135 0.14806,0.61265 0.46147,0.67076 l 1.834,0.34003 c 0.31342,0.0581 0.6121,-0.14745 0.66973,-0.46096 l 0.1359,-0.73897 c 0.0576,-0.3135 -0.14857,-0.61266 -0.46198,-0.67076 l -1.834,-0.34003 c -0.0392,-0.007 -0.078,-0.0105 -0.11627,-0.01 z m -0.82062,2.16628 c -0.18442,6e-5 -0.36529,0.0894 -0.47646,0.25476 l -0.68678,1.02113 c -0.17787,0.26451 -0.10818,0.62116 0.15606,0.79943 l 2.40916,1.62523 c 0.26424,0.17827 0.62001,0.10896 0.79788,-0.15555 l 0.68678,-1.02164 c 0.17787,-0.26452 0.10818,-0.62065 -0.15606,-0.79892 l -2.40864,-1.62522 c -0.0991,-0.0669 -0.21129,-0.0993 -0.32194,-0.0992 z m -10.12652,0.8971 c -0.14718,0.001 -0.29389,0.059 -0.40566,0.1726 l -1.30793,1.32963 c -0.22353,0.22725 -0.21983,0.59021 0.008,0.81339 l 0.53641,0.52607 c 0.22758,0.22318 0.59037,0.21949 0.8139,-0.008 l 1.30793,-1.32964 c 0.22353,-0.22724 0.22035,-0.58968 -0.007,-0.81287 l -0.53641,-0.52607 c -0.11379,-0.11159 -0.26157,-0.16668 -0.40876,-0.16536 z"
       transform="translate(-21.960416,-46.831249)" /></g></svg>
