<?xml version="1.0" encoding="UTF-8" standalone="no"?>
<!-- Created with Inkscape (http://www.inkscape.org/) -->

<svg
   width="40.878868mm"
   height="44.340004mm"
   viewBox="0 0 40.878868 44.340004"
   version="1.1"
   id="svg1"
   xml:space="preserve"
   xmlns="http://www.w3.org/2000/svg"
   xmlns:svg="http://www.w3.org/2000/svg"><defs
     id="defs1" /><g
     id="g59"
     style="display:inline"
     transform="translate(-41.299613,-79.074119)"><g
       id="g44"><rect
         style="display:inline;fill:#8929b6;fill-opacity:1;fill-rule:evenodd;stroke-width:0.607305;stroke-linecap:round;stroke-linejoin:round;paint-order:stroke fill markers"
         id="rect51"
         width="17.118614"
         height="3.2339613"
         x="47.849346"
         y="110.22648"
         ry="0.87812144"
         transform="rotate(-0.05340658)" /><rect
         style="display:inline;fill:#8929b6;fill-opacity:1;fill-rule:evenodd;stroke-width:0.402845;stroke-linecap:round;stroke-linejoin:round;paint-order:stroke fill markers"
         id="rect52"
         width="17.118608"
         height="1.4229721"
         x="47.32597"
         y="108.20863"
         ry="0.245841"
         transform="matrix(0.99999992,-4.1014081e-4,0.00211841,0.99999776,0,0)" /><rect
         style="display:inline;fill:#8929b6;fill-opacity:1;fill-rule:evenodd;stroke-width:0.235094;stroke-linecap:round;stroke-linejoin:round;paint-order:stroke fill markers"
         id="rect53"
         width="2.8620353"
         height="2.8986616"
         x="51.677662"
         y="99.796692"
         ry="0.77027786"
         transform="matrix(0.99525901,-0.09725998,0.09245835,0.99571655,0,0)" /><rect
         style="display:inline;fill:#8929b6;fill-opacity:1;fill-rule:evenodd;stroke-width:0.235094;stroke-linecap:round;stroke-linejoin:round;paint-order:stroke fill markers"
         id="rect54"
         width="2.8620353"
         height="2.8986616"
         x="51.78775"
         y="103.26183"
         ry="0.77027786"
         transform="matrix(0.99525901,-0.09725998,0.09245835,0.99571655,0,0)" /><g
         id="g55"
         style="display:inline"><path
           style="display:inline;fill:#bc36d9;fill-opacity:1;fill-rule:evenodd;stroke:none;stroke-width:1.43744;stroke-linecap:round;stroke-linejoin:round;stroke-dasharray:none;stroke-dashoffset:0;stroke-opacity:1;paint-order:stroke fill markers"
           id="path13-6"
           d="m 83.489623,21.469179 c -0.563985,-0.02094 -0.85312,-2.13245 -1.257416,-2.52623 -0.381944,-0.372009 -2.459429,-0.541869 -2.439647,-1.074674 0.02094,-0.563985 2.132451,-0.85312 2.52623,-1.257415 0.37201,-0.381944 0.54187,-2.459429 1.074675,-2.439647 0.563984,0.02094 0.85312,2.13245 1.257415,2.52623 0.381944,0.372009 2.459429,0.54187 2.439647,1.074674 -0.02094,0.563985 -2.132451,0.85312 -2.52623,1.257416 -0.372009,0.381944 -0.54187,2.459429 -1.074674,2.439646 z"
           transform="matrix(0.40232885,-0.04470617,0.04470617,0.40232885,22.765005,84.665556)" /><path
           id="path5-7-7-2"
           style="display:inline;fill:#bc36d9;fill-opacity:1;stroke-width:0.00532777"
           d="m 100.98636,34.849827 -0.21494,0.0041 c -0.14904,0.0032 -0.22974,0.06435 -0.24215,0.187407 l -0.0514,0.503166 c -3.8e-4,0.005 1.1e-4,0.01069 -1.6e-4,0.01728 6.8e-4,0.0066 0.004,0.0144 0.01,0.02324 0.006,0.0085 0.0152,0.01254 0.027,0.01237 l 0.089,-0.0014 c 0.0117,-1.71e-4 0.022,-0.0053 0.0312,-0.01562 0.009,-0.01064 0.0143,-0.02346 0.0151,-0.03927 l 0.0106,-0.141957 0.31186,-0.0053 0.0269,0.141627 c 0.003,0.01578 0.01,0.02908 0.0193,0.03944 0.01,0.01 0.0216,0.01492 0.0341,0.01475 l 0.0854,-0.0015 c 0.0118,-1.72e-4 0.0206,-0.0055 0.0269,-0.01566 0.007,-0.01056 0.008,-0.0232 0.004,-0.03822 l -0.13981,-0.642763 c -0.002,-0.01132 -0.008,-0.02132 -0.0165,-0.02969 -0.008,-0.0083 -0.0171,-0.01237 -0.0269,-0.01219 z m -0.99558,0.01544 c -0.01026,2.5e-5 -0.01903,0.0044 -0.02632,0.01317 -0.0073,0.0088 -0.01097,0.01911 -0.01091,0.03099 l 0.0033,0.636559 c 7.7e-5,0.01493 0.0043,0.02801 0.01273,0.03924 0.0084,0.01083 0.01851,0.01637 0.03017,0.01642 l 0.08488,3.71e-4 c 0.0117,5.1e-5 0.0214,-0.005 0.0292,-0.01502 0.008,-0.0104 0.0118,-0.0231 0.0113,-0.03807 l -0.009,-0.266589 0.0917,1.35e-4 c 0.0256,3.8e-5 0.048,0.0092 0.0674,0.02753 0.0195,0.01811 0.0395,0.04548 0.0603,0.08238 l 0.0897,0.156549 c 0.009,0.01502 0.0204,0.02801 0.0348,0.03892 9.4e-4,7.84e-4 0.002,0.0016 0.003,0.0024 -0.004,-0.0084 -0.008,-0.01769 -0.009,-0.0279 l -5e-5,-5.78e-4 -9e-5,-0.0011 c -4.2e-4,-0.0078 -7.4e-4,-0.01545 -2.3e-4,-0.02244 l 4.4e-4,2e-6 -5e-5,-5.72e-4 0.0224,-0.212319 c -0.0173,-0.02734 -0.0364,-0.0529 -0.0575,-0.07592 -0.0216,-0.02383 -0.0417,-0.03807 -0.0608,-0.04286 0.0259,-0.0078 0.0461,-0.02121 0.0607,-0.04011 0.0148,-0.01878 0.0274,-0.04242 0.0378,-0.0708 l 0.0693,-0.187224 c 0.004,-0.0098 0.005,-0.01822 0.004,-0.02522 -0.001,-0.01274 -0.008,-0.01907 -0.0213,-0.01904 l -0.0919,2.1e-4 c -0.024,3.57e-4 -0.0419,0.01506 -0.0536,0.04436 l -0.053,0.129986 c -0.0141,0.0346 -0.0299,0.05992 -0.0474,0.07572 -0.0173,0.01588 -0.0383,0.02385 -0.0627,0.02384 l -0.0894,-1.6e-5 -0.008,-0.229039 c -4e-4,-0.0119 -0.005,-0.02222 -0.0121,-0.03099 -0.007,-0.0087 -0.0162,-0.01308 -0.0265,-0.01306 z m 0.90428,0.117791 0.0493,0.259596 -0.27222,0.0049 0.0136,-0.163364 c 0.002,-0.0301 0.0117,-0.05371 0.0285,-0.07136 0.0169,-0.01787 0.0387,-0.02678 0.0648,-0.02726 z"
           transform="matrix(8.7890657,0,0,8.8039546,-828.66183,-215.22931)" /><circle
           style="display:inline;fill:#bc36d9;fill-opacity:1;fill-rule:evenodd;stroke-width:1.1594;stroke-linecap:round;stroke-linejoin:round;paint-order:stroke fill markers"
           id="circle69"
           cx="54.979828"
           cy="94.990303"
           r="4.7459636" /><path
           id="rect52-2"
           style="display:inline;fill:#8929b6;fill-rule:evenodd;stroke-width:0.541338;stroke-linecap:round;stroke-linejoin:round;paint-order:stroke fill markers"
           d="m 64.701433,83.369151 -1.253228,1.86e-4 c 0.04028,0.06985 0.07852,0.124374 0.114937,0.152319 0.17552,0.134696 1.018756,0.119948 1.042961,0.335633 0.02562,0.228306 -0.803234,0.429469 -0.936677,0.608346 -0.126067,0.168988 -0.06905,1.013506 -0.283791,1.026929 -0.227309,0.01421 -0.470274,-0.825771 -0.656066,-0.96835 -0.17552,-0.134696 -1.018736,-0.11943 -1.042941,-0.335115 -0.02562,-0.228306 0.803214,-0.429987 0.936657,-0.608864 0.0296,-0.03968 0.04941,-0.116618 0.0647,-0.211294 l -13.404179,1.94e-4 c -0.257536,0 -0.465227,0.207248 -0.465227,0.464784 l 4.17e-4,1.760905 c 0,0.257536 0.206967,0.465046 0.464503,0.465046 l 1.477517,-2.14e-4 c -0.04968,-0.0919 -0.09736,-0.16475 -0.141535,-0.198649 -0.17552,-0.134696 -1.018239,-0.119942 -1.042445,-0.335627 -0.02562,-0.228306 0.803214,-0.429987 0.936658,-0.608864 0.126067,-0.168988 0.06853,-1.013511 0.283274,-1.026935 0.227308,-0.01421 0.470791,0.825777 0.656583,0.968356 0.175519,0.134697 1.018239,0.119943 1.042444,0.335627 0.02562,0.228306 -0.803234,0.429469 -0.936678,0.608347 -0.03432,0.04601 -0.05483,0.141993 -0.07117,0.257764 l 13.213497,2.17e-4 c 0.257536,0 0.46471,-0.207255 0.46471,-0.464791 l 1e-4,-1.760899 c 0,-0.257536 -0.207484,-0.465051 -0.465021,-0.465051 z"
           transform="matrix(0.99993505,-0.01139707,-0.03868067,0.99925162,0,0)" /><path
           id="path66"
           style="display:inline;fill:#19101b;fill-opacity:1;fill-rule:evenodd;stroke-width:1.1594;stroke-linecap:round;stroke-linejoin:round;paint-order:stroke fill markers"
           d="m 58.299523,91.598775 -1.274857,0.02429 c -1.309957,0.02775 -2.018955,0.566629 -2.128036,1.650029 l -0.451652,4.429703 c -0.0034,0.04407 0.0013,0.09444 -10e-4,0.152446 0.006,0.05817 0.03417,0.126756 0.08733,0.204638 0.05301,0.07473 0.13351,0.110066 0.237195,0.108521 l 0.781864,-0.0124 c 0.103041,-0.0015 0.193356,-0.04692 0.274402,-0.13746 0.08038,-0.09371 0.125508,-0.206559 0.133325,-0.345715 l 0.09302,-1.250053 2.740918,-0.04599 0.214457,1.12603 a 4.7459636,4.7459636 0 0 0 0.719336,-2.512509 4.7459636,4.7459636 0 0 0 -1.42627,-3.391524 z m -3.578593,0.114205 -0.807702,0.0021 c -0.211329,0.0031 -0.368217,0.132204 -0.471289,0.390157 l -0.465605,1.144633 c -0.123901,0.304633 -0.262335,0.527528 -0.416512,0.666626 -0.152171,0.139841 -0.336898,0.209845 -0.551388,0.209806 h -0.785481 l -0.06408,-1.950785 a 4.7459636,4.7459636 0 0 0 -0.925008,2.814815 4.7459636,4.7459636 0 0 0 1.066601,2.997233 c 0.03344,-0.07228 0.04695,-0.154313 0.04393,-0.245979 l -0.07751,-2.346627 0.806152,0.001 c 0.225088,3.34e-4 0.422193,0.08124 0.592729,0.242363 0.171502,0.159474 0.347252,0.400658 0.529683,0.725537 l 0.788066,1.37821 c 0.07968,0.132241 0.178782,0.246559 0.305924,0.342615 0.0083,0.0069 0.01651,0.01368 0.02481,0.02067 -0.03716,-0.07358 -0.06708,-0.155502 -0.07493,-0.245463 l -5.17e-4,-0.0052 -10e-4,-0.0098 c -0.0036,-0.0688 -0.0065,-0.135921 -0.0021,-0.197403 h 0.0041 l -5.17e-4,-0.0052 0.196887,-1.869137 c -0.152191,-0.240715 -0.319945,-0.466032 -0.505395,-0.668693 -0.189686,-0.209766 -0.366682,-0.335042 -0.533818,-0.377238 0.227252,-0.06861 0.405254,-0.186571 0.533301,-0.35295 0.130081,-0.165321 0.241136,-0.37336 0.332279,-0.623217 l 0.608749,-1.648479 c 0.03131,-0.08644 0.0431,-0.160585 0.03617,-0.222208 -0.01261,-0.112175 -0.07277,-0.167692 -0.186552,-0.167432 z m 3.390491,1.046965 0.433565,2.285648 -2.392618,0.04341 0.119889,-1.438672 c 0.02018,-0.265031 0.103302,-0.472467 0.250631,-0.627868 0.148113,-0.157306 0.34049,-0.23606 0.569474,-0.240296 z" /><path
           style="display:inline;fill:#bc36d9;fill-opacity:1;fill-rule:evenodd;stroke:none;stroke-width:1.43744;stroke-linecap:round;stroke-linejoin:round;stroke-dasharray:none;stroke-dashoffset:0;stroke-opacity:1;paint-order:stroke fill markers"
           id="path69"
           d="m 83.489623,21.469179 c -0.563985,-0.02094 -0.85312,-2.13245 -1.257416,-2.52623 -0.381944,-0.372009 -2.459429,-0.541869 -2.439647,-1.074674 0.02094,-0.563985 2.132451,-0.85312 2.52623,-1.257415 0.37201,-0.381944 0.54187,-2.459429 1.074675,-2.439647 0.563984,0.02094 0.85312,2.13245 1.257415,2.52623 0.381944,0.372009 2.459429,0.54187 2.439647,1.074674 -0.02094,0.563985 -2.132451,0.85312 -2.52623,1.257416 -0.372009,0.381944 -0.54187,2.459429 -1.074674,2.439646 z"
           transform="matrix(0.29796239,-0.03310913,0.03310913,0.29796239,34.077951,87.062529)" /><path
           style="display:inline;fill:#bc36d9;fill-opacity:1;fill-rule:evenodd;stroke:none;stroke-width:1.43744;stroke-linecap:round;stroke-linejoin:round;stroke-dasharray:none;stroke-dashoffset:0;stroke-opacity:1;paint-order:stroke fill markers"
           id="path70"
           d="m 83.489623,21.469179 c -0.563985,-0.02094 -0.85312,-2.13245 -1.257416,-2.52623 -0.381944,-0.372009 -2.459429,-0.541869 -2.439647,-1.074674 0.02094,-0.563985 2.132451,-0.85312 2.52623,-1.257415 0.37201,-0.381944 0.54187,-2.459429 1.074675,-2.439647 0.563984,0.02094 0.85312,2.13245 1.257415,2.52623 0.381944,0.372009 2.459429,0.54187 2.439647,1.074674 -0.02094,0.563985 -2.132451,0.85312 -2.52623,1.257416 -0.372009,0.381944 -0.54187,2.459429 -1.074674,2.439646 z"
           transform="matrix(0.22082196,-0.0245374,0.0245374,0.22082196,31.291245,98.321818)" /></g></g></g></svg>
