<?xml version="1.0" encoding="UTF-8" standalone="no"?>
<!-- Created with Inkscape (http://www.inkscape.org/) -->

<svg
   width="40.878868mm"
   height="44.398956mm"
   viewBox="0 0 40.878868 44.398956"
   version="1.1"
   id="svg1"
   xml:space="preserve"
   xmlns="http://www.w3.org/2000/svg"
   xmlns:svg="http://www.w3.org/2000/svg"><defs
     id="defs1" /><g
     id="g59"
     style="display:inline"
     transform="translate(-41.299613,-79.015165)"><g
       id="g44"
       style="display:inline"><path
         id="rect41"
         style="display:inline;fill:#c765d7;fill-opacity:1;fill-rule:evenodd;stroke:#000000;stroke-width:1.1594;stroke-linecap:round;stroke-linejoin:round;stroke-opacity:1;paint-order:stroke fill markers"
         d="m 45.307551,79.594857 c -0.954226,0 -1.762948,0.467456 -2.238106,1.188558 l -0.0021,-0.0016 -0.08061,0.124541 c -3.14e-4,5.39e-4 -7.2e-4,10e-4 -0.001,0.0015 l -0.61805,0.95498 0.0026,0.0067 c -0.251025,0.448622 -0.378813,0.982216 -0.342098,1.557528 l 1.909444,29.917036 c 0.134226,2.10326 1.731645,3.82147 3.579627,3.82147 h 17.405655 c 1.174443,0 2.095346,-0.6942 2.526461,-1.73995 0.669722,-0.70083 0.998922,-1.78953 0.809253,-3.00756 L 63.600492,82.501139 C 63.348355,80.881937 61.86824,79.594857 60.27873,79.594857 Z" /><path
         d="m 45.307551,79.594857 c -1.589509,0 -2.787408,1.28708 -2.684074,2.906282 l 1.909445,29.917041 c 0.134226,2.10326 1.731644,3.82147 3.579626,3.82147 h 17.405656 c 1.847982,0 3.067914,-1.71821 2.740401,-3.82147 L 63.600492,82.501139 C 63.348355,80.881937 61.86824,79.594857 60.27873,79.594857 Z"
         style="display:inline;fill:#df8fa3;fill-opacity:1;fill-rule:evenodd;stroke-width:1.519;stroke-linecap:round;stroke-linejoin:round;paint-order:stroke fill markers"
         id="path72" /><path
         d="m 46.639976,80.845529 c -1.744793,0 -2.487892,0.636985 -2.331968,2.707902 l 1.658958,27.874929 c 0.116617,1.95969 1.504481,3.56061 3.110036,3.56061 h 15.122321 c 1.605557,0 2.665454,-1.60092 2.380905,-3.56061 L 62.533184,83.553431 c -0.289219,-1.812696 -1.0139,-2.707902 -2.886002,-2.707902 z"
         style="display:inline;fill:#19101b;fill-opacity:1;fill-rule:evenodd;stroke-width:1.36669;stroke-linecap:round;stroke-linejoin:round;paint-order:stroke fill markers"
         id="path49" /></g></g></svg>
