<?xml version="1.0" encoding="UTF-8" standalone="no"?>
<!-- Created with Inkscape (http://www.inkscape.org/) -->

<svg
   width="40.878868mm"
   height="44.340004mm"
   viewBox="0 0 40.878868 44.340004"
   version="1.1"
   id="svg1"
   xml:space="preserve"
   xmlns="http://www.w3.org/2000/svg"
   xmlns:svg="http://www.w3.org/2000/svg"><defs
     id="defs1" /><g
     id="g59"
     style="display:inline"
     transform="translate(-41.299613,-79.074119)"><g
       id="g44"
       style="display:inline"><rect
         style="display:inline;fill:#8929b6;fill-opacity:1;fill-rule:evenodd;stroke-width:0.607305;stroke-linecap:round;stroke-linejoin:round;paint-order:stroke fill markers"
         id="rect51"
         width="17.118614"
         height="3.2339613"
         x="47.849346"
         y="110.22648"
         ry="0.87812144"
         transform="rotate(-0.05340658)" /><rect
         style="display:inline;fill:#8929b6;fill-opacity:1;fill-rule:evenodd;stroke-width:0.402845;stroke-linecap:round;stroke-linejoin:round;paint-order:stroke fill markers"
         id="rect52"
         width="17.118608"
         height="1.4229721"
         x="47.32597"
         y="108.20863"
         ry="0.245841"
         transform="matrix(0.99999992,-4.1014081e-4,0.00211841,0.99999776,0,0)" /><rect
         style="display:inline;fill:#8929b6;fill-opacity:1;fill-rule:evenodd;stroke-width:0.235094;stroke-linecap:round;stroke-linejoin:round;paint-order:stroke fill markers"
         id="rect53"
         width="2.8620353"
         height="2.8986616"
         x="51.677662"
         y="99.796692"
         ry="0.77027786"
         transform="matrix(0.99525901,-0.09725998,0.09245835,0.99571655,0,0)" /><rect
         style="display:inline;fill:#8929b6;fill-opacity:1;fill-rule:evenodd;stroke-width:0.235094;stroke-linecap:round;stroke-linejoin:round;paint-order:stroke fill markers"
         id="rect54"
         width="2.8620353"
         height="2.8986616"
         x="51.78775"
         y="103.26183"
         ry="0.77027786"
         transform="matrix(0.99525901,-0.09725998,0.09245835,0.99571655,0,0)" /><g
         id="g65"
         style="display:inline"><rect
           style="fill:#bc36d9;fill-opacity:1;fill-rule:evenodd;stroke-width:0.671342;stroke-linecap:round;stroke-linejoin:round;paint-order:stroke fill markers"
           id="rect60"
           width="8.2347736"
           height="8.215313"
           x="44.655815"
           y="94.071877"
           ry="1.2475646"
           transform="matrix(0.99744702,-0.07141044,0.06667583,0.99777469,0,0)" /><path
           style="display:inline;fill:#bc36d9;fill-opacity:1;fill-rule:evenodd;stroke:none;stroke-width:1.43744;stroke-linecap:round;stroke-linejoin:round;stroke-dasharray:none;stroke-dashoffset:0;stroke-opacity:1;paint-order:stroke fill markers"
           id="path61"
           d="m 83.489623,21.469179 c -0.563985,-0.02094 -0.85312,-2.13245 -1.257416,-2.52623 -0.381944,-0.372009 -2.459429,-0.541869 -2.439647,-1.074674 0.02094,-0.563985 2.132451,-0.85312 2.52623,-1.257415 0.37201,-0.381944 0.54187,-2.459429 1.074675,-2.439647 0.563984,0.02094 0.85312,2.13245 1.257415,2.52623 0.381944,0.372009 2.459429,0.54187 2.439647,1.074674 -0.02094,0.563985 -2.132451,0.85312 -2.52623,1.257416 -0.372009,0.381944 -0.54187,2.459429 -1.074674,2.439646 z"
           transform="matrix(0.44770558,-0.04974836,0.04974836,0.44770558,12.175045,85.765943)" /><path
           style="display:inline;fill:#bc36d9;fill-opacity:1;fill-rule:evenodd;stroke:none;stroke-width:1.43744;stroke-linecap:round;stroke-linejoin:round;stroke-dasharray:none;stroke-dashoffset:0;stroke-opacity:1;paint-order:stroke fill markers"
           id="path62"
           d="m 83.489623,21.469179 c -0.563985,-0.02094 -0.85312,-2.13245 -1.257416,-2.52623 -0.381944,-0.372009 -2.459429,-0.541869 -2.439647,-1.074674 0.02094,-0.563985 2.132451,-0.85312 2.52623,-1.257415 0.37201,-0.381944 0.54187,-2.459429 1.074675,-2.439647 0.563984,0.02094 0.85312,2.13245 1.257415,2.52623 0.381944,0.372009 2.459429,0.54187 2.439647,1.074674 -0.02094,0.563985 -2.132451,0.85312 -2.52623,1.257416 -0.372009,0.381944 -0.54187,2.459429 -1.074674,2.439646 z"
           transform="matrix(0.23897266,-0.02655428,0.02655428,0.23897266,28.285574,90.229161)" /><path
           style="display:inline;fill:#bc36d9;fill-opacity:1;fill-rule:evenodd;stroke:none;stroke-width:1.43744;stroke-linecap:round;stroke-linejoin:round;stroke-dasharray:none;stroke-dashoffset:0;stroke-opacity:1;paint-order:stroke fill markers"
           id="path64"
           d="m 83.489623,21.469179 c -0.563985,-0.02094 -0.85312,-2.13245 -1.257416,-2.52623 -0.381944,-0.372009 -2.459429,-0.541869 -2.439647,-1.074674 0.02094,-0.563985 2.132451,-0.85312 2.52623,-1.257415 0.37201,-0.381944 0.54187,-2.459429 1.074675,-2.439647 0.563984,0.02094 0.85312,2.13245 1.257415,2.52623 0.381944,0.372009 2.459429,0.54187 2.439647,1.074674 -0.02094,0.563985 -2.132451,0.85312 -2.52623,1.257416 -0.372009,0.381944 -0.54187,2.459429 -1.074674,2.439646 z"
           transform="matrix(0.23897266,-0.02655428,0.02655428,0.23897266,37.427567,98.000324)" /><rect
           style="fill:#bc36d9;fill-opacity:1;fill-rule:evenodd;stroke-width:0.143952;stroke-linecap:round;stroke-linejoin:round;paint-order:stroke fill markers"
           id="rect64"
           width="1.765738"
           height="1.7615652"
           x="0.57236075"
           y="111.58022"
           ry="0.52632695"
           transform="matrix(0.897702,-0.44060312,0.43633774,0.89978296,0,0)" /><rect
           style="fill:#bc36d9;fill-opacity:1;fill-rule:evenodd;stroke-width:0.207907;stroke-linecap:round;stroke-linejoin:round;paint-order:stroke fill markers"
           id="rect65"
           width="2.55022"
           height="2.5441933"
           x="-48.302395"
           y="93.876274"
           ry="0.38635719"
           transform="matrix(0.49080776,-0.87126789,0.86892875,0.4949372,0,0)" /><path
           style="display:inline;fill:#19101b;fill-opacity:1;fill-rule:evenodd;stroke:none;stroke-width:1.43744;stroke-linecap:round;stroke-linejoin:round;stroke-dasharray:none;stroke-dashoffset:0;stroke-opacity:1;paint-order:stroke fill markers"
           id="path65"
           d="m 83.489623,21.469179 c -0.563985,-0.02094 -0.85312,-2.13245 -1.257416,-2.52623 -0.381944,-0.372009 -2.459429,-0.541869 -2.439647,-1.074674 0.02094,-0.563985 2.132451,-0.85312 2.52623,-1.257415 0.37201,-0.381944 0.54187,-2.459429 1.074675,-2.439647 0.563984,0.02094 0.85312,2.13245 1.257415,2.52623 0.381944,0.372009 2.459429,0.54187 2.439647,1.074674 -0.02094,0.563985 -2.132451,0.85312 -2.52623,1.257416 -0.372009,0.381944 -0.54187,2.459429 -1.074674,2.439646 z"
           transform="matrix(0.2967278,-0.03297194,0.03297194,0.2967278,33.031905,89.157784)" /></g></g></g></svg>
